<?xml version="1.0" standalone="no"?>
<!DOCTYPE svg PUBLIC "-//W3C//DTD SVG 1.1//EN" "http://www.w3.org/Graphics/SVG/1.1/DTD/svg11.dtd" >
<svg xmlns="http://www.w3.org/2000/svg" width="100%" height="100%">
<metadata>
Created by FontXChange 20110222 at Mon Apr 23 15:24:19 2012
 By John Rees
Copyright (c) 1991, 1996, 1998, 1999 Adobe Systems Incorporated.  All Rights Reserved.Formata is either a registered trademark or trademark of Berthold Types Limited in the United States and/or other countries.
</metadata>
<defs>
<font id="Formata-Medium" horiz-adv-x="604" >
  <font-face 
    font-family="Formata"
    font-weight="550"
    font-stretch="normal"
    units-per-em="1000"
    panose-1="2 11 6 0 0 0 0 0 0 0"
    ascent="749"
    descent="-251"
    x-height="531"
    cap-height="709"
    bbox="-127 -251 1291 967"
    underline-thickness="50"
    underline-position="-50"
    unicode-range="U+0020-FB02"
  />
<missing-glyph horiz-adv-x="292" 
 />
    <glyph glyph-name=".notdef" horiz-adv-x="292" 
 />
    <glyph glyph-name=".null" horiz-adv-x="0" 
 />
    <glyph glyph-name="nonmarkingreturn" horiz-adv-x="292" 
 />
    <glyph glyph-name="space" unicode=" " horiz-adv-x="292" 
 />
    <glyph glyph-name="space" unicode="&#xa0;" horiz-adv-x="292" 
 />
    <glyph glyph-name="numbersign" unicode="#" horiz-adv-x="667" 
d="M378 313l13 95h-99l-14 -95h100zM435 -1h-101l31 215h-99l-30 -215h-102l30 215h-122v99h136l12 95h-126v100h139l27 199h104l-28 -199h98l27 199h101l-27 -199h118v-100h-131l-14 -95h123v-99h-135z" />
    <glyph glyph-name="dollar" unicode="$" horiz-adv-x="521" 
d="M280 578q-16 -1 -32 -4t-30 -20q-16 -19 -16 -43q0 -26 15 -40.5t29 -23.5zM237 102q43 2 62.5 24t19.5 48t-16 43.5t-30 28.5zM190 -85h-69l-4 6l19 74q-17 4 -28 7t-20.5 6.5t-19.5 8t-24 12.5l-6 8l9 119l10 4q17 -12 28.5 -20t23 -13t24.5 -9t32 -9l43 177
q-27 18 -46 31t-32.5 23.5t-23 19.5t-17.5 20q-24 29 -31.5 57.5t-7.5 54.5q0 33 11.5 68t37.5 64t67.5 48t102.5 19h18t18 -1l11 61l7 6l69 -1l5 -6l-18 -68q13 -2 22 -4t17.5 -4.5t18 -6t23.5 -8.5l7 -7l-15 -116l-10 -3q-16 9 -26.5 15t-19.5 10t-19 7t-25 6l-42 -164
q23 -14 39 -24.5t34 -23.5q14 -10 31.5 -24t32.5 -34.5t25.5 -48t10.5 -64.5q0 -24 -6.5 -49.5t-21 -49.5t-37 -44.5t-55.5 -35.5q-40 -17 -78 -20t-75 -2l-14 -66z" />
    <glyph glyph-name="percent" unicode="%" horiz-adv-x="917" 
d="M368 0h-27.5h-20t-22 -0.5t-31.5 -0.5l-5 8q37 80 72 160t70 161q36 85 71 170t69 172l7 7q20 0 32.5 0.5t22.5 0.5t20 0.5t25 0.5l4 -9q-20 -45 -45.5 -101t-58.5 -133.5t-76.5 -182t-99.5 -246.5zM778 234q0 23 -2 47.5t-7.5 44.5t-17 33t-30.5 13q-14 0 -24.5 -7.5
t-17.5 -19.5q-7 -13 -11 -32.5t-5.5 -38t-2 -34t-0.5 -19.5q0 -83 16 -117t45 -34q12 0 22.5 6t18.5 23.5t12.5 49.5t3.5 85zM895 228q0 -32 -4 -73t-21.5 -77t-53.5 -61t-100 -25q-42 0 -70.5 12t-48 31t-30.5 43t-16 49t-6.5 48t-1.5 40q0 34 4 71.5t21 71.5
q15 31 36 49.5t43 28t42.5 12t33.5 2.5q42 0 71.5 -12.5t48.5 -32.5t29.5 -44.5t15.5 -49t6 -47t1 -36.5zM257 470q0 23 -2 47.5t-7.5 44.5t-17 33t-30.5 13q-14 0 -24.5 -7.5t-17.5 -19.5q-7 -13 -11 -32.5t-5.5 -38t-2 -34t-0.5 -19.5q0 -83 16 -117.5t45 -34.5
q12 0 22.5 6t18.5 23.5t12.5 50t3.5 85.5zM374 464q0 -32 -3.5 -72.5t-21.5 -77.5t-54 -62t-100 -25q-42 0 -70.5 12t-48 31t-30.5 43.5t-16 49.5t-6.5 48t-1.5 39q0 35 4 72.5t21 71.5q15 31 36 49.5t43 28t42.5 12t33.5 2.5q42 0 71.5 -12.5t48.5 -32.5t29.5 -44.5
t15.5 -49t6 -47t1 -36.5z" />
    <glyph glyph-name="ampersand" unicode="&#x26;" horiz-adv-x="667" 
d="M255 283q-21 -15 -42 -35.5t-21 -53.5q0 -14 5.5 -27.5t16 -24.5t26 -18t35.5 -7q32 0 51.5 10.5t33.5 21.5zM302 476q9 7 19.5 16t19.5 20t14.5 24t5.5 28q0 26 -17 38t-33 12q-22 0 -37.5 -15.5t-15.5 -37.5q0 -9 2 -16.5t7 -17t13.5 -21.5t21.5 -30zM655 3h-44t-44 -1
t-43 -2t-43 -3l-9 6l-37 50q-11 -8 -27.5 -19.5t-40 -21.5t-53.5 -17t-68 -7q-58 0 -99 15.5t-73 48.5q-19 20 -34.5 52t-15.5 74q0 41 14 72.5t36 56.5t49 44t53 36q-8 10 -19 25.5t-21.5 35.5t-17.5 43.5t-7 50.5q0 36 14.5 68t41 56t64 38t83.5 14q51 0 85.5 -15t56 -38
t31 -50t9.5 -51q0 -36 -14 -66t-33.5 -53.5t-39.5 -39.5t-32 -25l98 -126q15 21 26.5 39t21 36t17.5 38t17 46l10 1l83 -103l2 -9q-21 -41 -45.5 -77t-54.5 -69q10 -13 28 -35.5l36 -45t31.5 -39.5t15.5 -18z" />
    <glyph glyph-name="quoteright" unicode="&#x2019;" horiz-adv-x="250" 
d="M244 758l-14 -28t-12 -24.5t-13.5 -28.5t-17.5 -39q-14 -31 -28.5 -62.5t-28.5 -63.5l-6 -6l-113 -2l-4 6q14 44 23 73t15.5 54.5t12.5 51.5t14 64l6 7l162 5z" />
    <glyph glyph-name="parenleft" unicode="(" horiz-adv-x="354" 
d="M337 -215l-92 -3l-7 6q-26 37 -58 85.5t-60 109.5t-46.5 134t-18.5 159q0 85 21 161t50.5 138t62 109.5t55.5 75.5l8 4l93 1l5 -9q-13 -23 -29 -55t-38 -87q-35 -91 -55 -176.5t-20 -173.5q0 -63 10 -121.5t28 -116t43 -115t54 -117.5z" />
    <glyph glyph-name="parenright" unicode=")" horiz-adv-x="354" 
d="M17 762l92 3l8 -6q26 -37 57.5 -85.5t59.5 -109.5t46.5 -134.5t18.5 -159.5q0 -121 -48 -243.5t-140 -239.5l-9 -4l-93 -1l-5 9q19 34 43.5 87t46.5 117.5t37 137.5t15 149q0 69 -12.5 134t-32.5 124.5t-44 112.5t-46 100z" />
    <glyph glyph-name="asterisk" unicode="*" horiz-adv-x="458" 
d="M429 510l-48 -88l-8 -2l-110 82l25 -130l-6 -6l-103 -3l-5 5l16 129q-18 -14 -29 -22t-21 -16t-21.5 -17t-29.5 -24l-7 1l-52 86l2 7l122 52l-122 51l-3 7q9 15 15.5 24.5t11.5 18.5t10 18.5t13 23.5l8 1q16 -13 26.5 -21t21 -15.5t23.5 -17t35 -24.5l-21 129l6 6l100 2
l5 -6l-18 -128l103 79l8 -1q7 -14 12.5 -24t11 -19t11.5 -18.5t15 -24.5l-1 -7l-122 -55l123 -46z" />
    <glyph glyph-name="plus" unicode="+" horiz-adv-x="667" 
d="M386 0h-103v240h-241v102h241v241h103v-241h239v-102h-239v-240z" />
    <glyph glyph-name="comma" unicode="," horiz-adv-x="250" 
d="M231 148q-17 -36 -28.5 -63l-23 -54t-24.5 -60t-32 -81l-7 -5l-116 -4l-4 7q12 43 20 72t14 55.5t11 55.5t12 72l6 6q31 0 51 0.5t37.5 1.5t35.5 1.5t44 2.5z" />
    <glyph glyph-name="hyphen" unicode="-" horiz-adv-x="375" 
d="M341 342l-7 -116l-6 -6q-37 0 -73.5 0.5t-73.5 0.5h-36.5t-33 -0.5t-34 -1t-38.5 -0.5l-5 6l6 115l7 6q35 0 71 -0.5t72 -0.5q44 0 77 0.5t69 1.5z" />
    <glyph glyph-name="hyphen" unicode="&#xad;" horiz-adv-x="375" 
d="M341 342l-7 -116l-6 -6q-37 0 -73.5 0.5t-73.5 0.5h-36.5t-33 -0.5t-34 -1t-38.5 -0.5l-5 6l6 115l7 6q35 0 71 -0.5t72 -0.5q44 0 77 0.5t69 1.5z" />
    <glyph glyph-name="period" unicode="." horiz-adv-x="250" 
d="M209 148l2 -141l-5 -6l-160 -4l-5 7l-2 139l5 8l160 3z" />
    <glyph glyph-name="slash" unicode="/" horiz-adv-x="479" 
d="M107 -144l-118 -2l-6 9q51 115 92.5 209t76 173t63 146t54 128t48 119.5t45.5 119.5l8 7h117l4 -8q-66 -151 -113.5 -262t-83 -193t-60.5 -141.5t-45 -108.5t-37.5 -93t-37.5 -96z" />
    <glyph glyph-name="zero" unicode="0" horiz-adv-x="583" 
d="M377 360q0 31 -2 69t-10 71.5t-24.5 56.5t-45.5 23q-21 0 -38 -13t-28 -41.5t-17 -74.5t-6 -112q0 -21 1 -46.5t3.5 -50.5t6.5 -47.5t10 -38.5q14 -37 34 -48t33 -11q6 0 15 2t18.5 9t18.5 20t15 35q8 29 12 75t4 122zM548 351q0 -20 -0.5 -56t-7.5 -77.5t-22 -84
t-44 -73.5q-38 -42 -87 -57.5t-95 -15.5q-128 0 -192.5 82t-64.5 260q0 44 3 77t7.5 57t9 40t8.5 26q19 53 49.5 85t63 49t64 22.5t54.5 5.5q61 0 104 -18t71 -46.5t43.5 -65.5t23.5 -74.5t9.5 -73t2.5 -62.5z" />
    <glyph glyph-name="one" unicode="1" horiz-adv-x="583" 
d="M381 0h-47.5h-38.5t-37 -1t-44 -2l-5 7q2 102 4 197.5t2 193.5v80.5t-1 80.5l-92 -10l-6 6l7 101l7 7l249 33l6 -6q-2 -102 -3.5 -202.5t-1.5 -202.5q0 -57 0.5 -96t1.5 -69.5t2 -56t3 -53.5z" />
    <glyph glyph-name="two" unicode="2" horiz-adv-x="583" 
d="M521 129l-5 -121l-7 -8h-484l-5 10q29 34 68 82t98 122q34 42 59 76t41 62.5t23.5 53t7.5 47.5q0 14 -6 32.5t-19.5 34.5t-36 27t-55.5 11q-29 0 -52 -6t-42 -15.5t-33.5 -20.5t-26.5 -21l-9 6l7 133l5 7q23 10 44.5 19t44 15.5t48 10.5t56.5 4q16 0 42.5 -2t56 -11
t59.5 -27t54 -51q21 -28 30.5 -62t9.5 -66q0 -36 -10.5 -68.5t-29 -63.5t-43.5 -62t-53 -64l-70 -83l228 6z" />
    <glyph glyph-name="three" unicode="3" horiz-adv-x="583" 
d="M53 669l6 8h423l5 -8q-3 -6 -12.5 -23.5t-20.5 -37.5t-21 -38t-14 -25q-12 -21 -20.5 -37.5t-16 -30.5t-14.5 -27.5t-15 -28.5q16 -3 34 -8.5t36 -15.5t35 -26.5t32 -41.5q14 -23 19 -48t5 -51q0 -48 -16.5 -92t-51.5 -78t-89.5 -54t-130.5 -20q-37 0 -65 4t-49 9.5
t-35.5 11.5t-23.5 10l-5 8l8 120l8 4q29 -19 60 -34t81 -15q64 0 99 35q17 17 23.5 39t6.5 36q0 18 -5.5 38t-20 37t-39 28t-63.5 11q-17 0 -28.5 -2.5t-25.5 -7.5l-10 11q28 54 45 86.5t28.5 54.5t20.5 39.5t20 41.5l-204 -4l-5 6z" />
    <glyph glyph-name="four" unicode="4" horiz-adv-x="583" 
d="M302 263l4 167l5 135q-11 -26 -18.5 -44.5t-14.5 -35t-14.5 -33.5t-18.5 -41l-69 -150zM465 7l-7 -7h-44.5h-35.5t-34.5 -1t-41.5 -2l-6 7l4 141h-261l-5 7l3 91q37 75 64.5 129.5t47 94t33 67.5t24 50t19.5 42t20 43l8 7l206 3l7 -6q-2 -78 -3.5 -131.5t-2 -97t0 -85.5
t0.5 -98l72 2l5 -6l-6 -106l-6 -7l-65 1z" />
    <glyph glyph-name="five" unicode="5" horiz-adv-x="583" 
d="M225 457l31.5 3.5t28.5 1.5q56 0 100.5 -16.5t76 -46.5t48 -72t16.5 -92q0 -36 -12.5 -79.5t-45.5 -81t-90 -62.5t-145 -25q-26 0 -47 2t-40.5 6t-38.5 9.5t-41 12.5l-5 8q2 20 3 34t2 27t2 27t2 34l9 4q31 -20 66 -31t73 -11q60 0 96 32t36 82q0 23 -8.5 44t-26 36.5
t-43 24.5t-59.5 9q-46 0 -75.5 -10.5t-53.5 -21.5l-9 5q5 68 8.5 113.5t6 83t4.5 74.5t4 88l7 8h381l5 -5l-9 -120l-7 -6l-242 6z" />
    <glyph glyph-name="six" unicode="6" horiz-adv-x="583" 
d="M210 254q0 -29 2 -54.5t13 -45.5q12 -25 33.5 -39.5t47.5 -14.5q6 0 20.5 2.5t29.5 13t26.5 32t11.5 60.5q0 23 -6.5 43.5t-19 36t-30 24.5t-38.5 9q-27 0 -44 -10t-27.5 -22.5t-14.5 -23t-4 -11.5zM482 541q-17 9 -43.5 20t-69.5 11q-31 0 -49 -5.5t-27 -10.5
q-25 -13 -40 -31.5t-24 -39t-14 -42t-8 -41.5q9 7 21.5 15t29 15t38 12t49.5 5q42 0 79.5 -15t66 -44t45 -71.5t16.5 -97.5q0 -58 -19 -102t-52 -73t-78.5 -44t-98.5 -15q-66 0 -111 19t-74 49.5t-45 68.5t-23.5 75t-9 69t-1.5 51q0 83 18.5 151.5t57.5 117.5t100.5 76
t147.5 27q40 0 69.5 -5.5t61.5 -12.5l5 -8l-7 -118z" />
    <glyph glyph-name="seven" unicode="7" horiz-adv-x="583" 
d="M541 670q-29 -80 -57.5 -162t-54 -158t-47 -142.5t-34.5 -116.5q-6 -21 -11.5 -42t-10.5 -42l-7 -7h-51.5h-42t-42 -1t-49.5 -2l-6 8q6 15 22 55.5t37 94t45 114.5t45.5 116.5t39 99.5t24.5 65l-285 -4l-6 6l11 118l6 7q78 0 133.5 -0.5t105.5 0t103 1t126 1.5z" />
    <glyph glyph-name="eight" unicode="8" horiz-adv-x="583" 
d="M370 203q0 30 -8.5 49t-20.5 30t-25 15.5t-23 4.5q-32 0 -56.5 -26.5t-24.5 -74.5q0 -18 4.5 -36t14.5 -32t25.5 -23t37.5 -9q29 0 53 24t23 78zM365 506q-2 24 -10 39.5t-19 24.5t-23.5 12.5t-22.5 3.5t-23 -4t-25 -14.5t-20 -27.5t-8 -42q0 -24 8 -40.5t19.5 -26.5
t25 -14.5t24.5 -4.5q32 0 54 25t20 69zM433 366q22 -9 41.5 -21t37.5 -39q20 -30 25.5 -61t5.5 -51q0 -18 -4 -40.5t-14.5 -45.5t-29.5 -45.5t-49 -39.5q-33 -20 -75 -28t-82 -8q-50 0 -95 12.5t-79 38t-54 65t-20 93.5q0 43 11.5 72.5t27.5 48.5t34 30t30 17
q-11 6 -27 15.5t-30 26t-24 40t-10 58.5q0 43 18 77.5t50 58.5t76.5 37t97.5 13q69 0 114 -18t71 -45.5t36 -60t10 -60.5q0 -55 -34 -97q-15 -18 -29.5 -26.5t-29.5 -16.5z" />
    <glyph glyph-name="nine" unicode="9" horiz-adv-x="583" 
d="M374 423v12t-1 18.5t-1.5 19t-1.5 14.5q-8 45 -35.5 68.5t-59.5 23.5q-8 0 -18 -2t-21 -8t-21 -16.5t-17 -28.5q-9 -24 -9 -54q0 -54 28 -84t66 -30q24 0 40.5 8.5t27.5 19.5t16.5 22t6.5 17zM101 135q16 -8 43 -19t70 -11q20 0 39.5 3.5t36.5 12.5q25 13 40.5 31.5
t25 39t14 42t7.5 41.5q-9 -7 -21.5 -15t-29 -15t-38.5 -12t-50 -5q-38 0 -75.5 13.5t-66.5 42t-47 72.5t-18 104q0 49 16 91t47 73t77 48.5t106 17.5q40 0 78 -9q49 -12 85 -40t59 -69.5t34 -95.5t11 -118q0 -186 -84.5 -279t-238.5 -93q-38 0 -68.5 5t-64.5 13l-5 7l7 119z
" />
    <glyph glyph-name="colon" unicode=":" horiz-adv-x="292" 
d="M251 526l1 -142l-5 -5l-162 -4l-5 6v140l5 7l161 4zM250 148l2 -141l-5 -6l-160 -4l-5 7l-3 139l5 8l160 3z" />
    <glyph glyph-name="semicolon" unicode=";" horiz-adv-x="292" 
d="M253 526v-142l-5 -6l-161 -4l-5 6v141l5 6l160 5zM258 148q-17 -36 -28.5 -62t-23 -53.5t-24.5 -60.5t-32 -82l-8 -5l-116 -4l-4 7q13 43 21 72t14 55.5t11 56t11 71.5l6 6q31 0 51 0.5t37.5 1.5t35.5 1.5t44 2.5z" />
    <glyph glyph-name="less" unicode="&#x3c;" horiz-adv-x="667" 
d="M667 -3l-667 303v104l667 305v-113l-529 -244l529 -243v-112z" />
    <glyph glyph-name="equal" unicode="=" horiz-adv-x="667" 
d="M667 334h-667v103h667v-103zM667 146h-667v103h667v-103z" />
    <glyph glyph-name="greater" unicode="&#x3e;" horiz-adv-x="667" 
d="M0 -3v112l528 243l-528 244v113l667 -305v-104z" />
    <glyph glyph-name="question" unicode="?" horiz-adv-x="458" 
d="M274 235h-42t-31.5 -0.5t-30.5 -1.5t-39 -2l-5 7q3 18 5.5 31t7.5 25t13 26t22 34l35 50q17 26 34 59t17 78q0 28 -9 47.5t-23.5 32.5t-33.5 19t-40 6q-45 0 -74 -15.5t-51 -31.5l-9 6l5 125l6 8q41 13 78.5 23t89.5 10q45 0 73.5 -7t47.5 -16q36 -17 57.5 -41
t32.5 -49.5t14.5 -48.5t3.5 -37q0 -29 -6 -54.5t-16 -48t-21.5 -42t-22.5 -35.5l-36 -54q-12 -17 -19.5 -27.5t-12 -20t-7.5 -20t-7 -26.5zM283 148l2 -141l-5 -6l-160 -4l-5 7l-3 139l6 8l160 3z" />
    <glyph glyph-name="at" unicode="@" horiz-adv-x="896" 
d="M532 349q1 24 -5.5 42t-17.5 30t-25 17.5t-27 5.5q-30 0 -54.5 -20t-41 -50.5t-25.5 -67t-9 -68.5q0 -25 6.5 -42.5t17 -29t23.5 -16.5t25 -5q25 0 49 17t42.5 45t30 65t11.5 77zM823 38q-35 -33 -75 -62.5t-85.5 -51.5t-97.5 -35t-110 -13q-40 0 -84 8t-87 25.5t-82 45
t-68.5 67.5t-47 93t-17.5 121q0 97 35.5 183.5t97.5 151.5t145 103t179 38q77 0 133.5 -24t94 -63.5t55.5 -91.5t18 -109q0 -70 -20 -134.5t-52.5 -113.5t-75 -78.5t-87.5 -29.5q-30 0 -48.5 13t-26.5 26q-6 11 -8 19.5t-3 18.5q-28 -35 -60.5 -55.5t-74.5 -20.5
q-25 0 -49 9t-43 29t-31 51.5t-12 75.5q0 54 16.5 105.5t45.5 91.5t68 64.5t84 24.5q28 0 47 -8t31.5 -19t20 -23.5t12.5 -21.5l12 51h79l-33 -154q-4 -18 -8.5 -41t-9 -46.5t-7.5 -45.5t-3 -37q0 -18 8 -26.5t17 -8.5q19 0 43 22.5t45.5 60.5t36.5 88.5t15 106.5
q0 65 -21.5 109t-55.5 70.5t-75.5 37.5t-81.5 11q-76 0 -145.5 -32.5t-122.5 -88t-84.5 -130.5t-31.5 -159q0 -83 29.5 -139t75.5 -90.5t102 -49t108 -14.5q98 0 181.5 41t148.5 105z" />
    <glyph glyph-name="A" unicode="A" horiz-adv-x="667" 
d="M405 309l-37 156l-30 130l-35 -117l-50 -169h152zM471 703q14 -55 25.5 -98t22.5 -84.5t24 -87t29.5 -104l38.5 -136.5t52 -185l-5 -8h-51h-39t-37.5 -1t-46.5 -2l-7 6l-43 185h-216l-49 -182l-7 -6h-156l-4 7q37 105 64.5 186t49 143.5t37.5 111.5t29.5 90.5t26 80.5
t25.5 81l7 6h66.5t49 0.5t47 1t60.5 1.5z" />
    <glyph glyph-name="B" unicode="B" horiz-adv-x="646" 
d="M239 423q30 0 64.5 1.5t53.5 9.5q4 2 13 7.5t17 15.5t14.5 24t6.5 34q0 24 -8.5 40.5t-23 26t-33 13.5t-38.5 4q-13 0 -31.5 -0.5t-34.5 -0.5v-175zM239 112q32 -1 68 0t59 9q28 10 45 31t17 55q0 24 -9 46t-31 36q-22 13 -57 15t-92 0v-192zM72 0l-7 4q3 213 3 425v87
t-1 64t-2 56.5t-2 63.5l6 6l140 2q13 0 30 0.5t34.5 1t34.5 0.5h30q74 0 123.5 -11.5t81.5 -45.5q24 -27 32 -57.5t8 -54.5q0 -37 -16 -70q-20 -40 -47 -57t-53 -28q16 -3 32 -6.5t30 -11.5q43 -21 63.5 -62t20.5 -89q0 -42 -17.5 -88t-66.5 -81q-28 -20 -62.5 -30
t-72 -14.5t-75.5 -4.5t-73 1h-174z" />
    <glyph glyph-name="C" unicode="C" 
d="M586 175l-7 -149l-5 -6q-24 -10 -66 -22.5t-105 -12.5q-92 0 -159.5 29.5t-112.5 79t-67 115t-22 137.5q0 66 18 132.5t59.5 120.5t108 88t163.5 34q66 0 112 -13t73 -24l4 -5l-9 -138l-9 -2q-9 7 -22 15.5t-30 15.5t-39 12t-50 5q-61 0 -99 -25t-59 -61.5t-28 -77.5
t-7 -73q0 -53 14.5 -95.5t40 -71.5t61 -44.5t78.5 -15.5q31 0 56 6t44.5 15t33.5 18.5t23 16.5z" />
    <glyph glyph-name="D" unicode="D" horiz-adv-x="708" 
d="M243 129q20 0 42.5 0.5t45 4t43 11t37.5 21.5q9 7 21 22t23.5 39t19 58.5t7.5 81.5q0 80 -19.5 123t-47.5 63t-59 23.5t-54 3.5q-15 0 -30.5 -0.5t-30.5 -1.5q-1 -41 -1 -81v-81q0 -72 0.5 -142.5t2.5 -144.5zM70 0l-6 4q1 31 1.5 58.5l1 55t0.5 58v67.5q0 104 -0.5 175
t-2 121.5t-3 87.5t-2.5 73l6 6l106 1q35 2 69 3t69 1q43 0 87 -2.5t85.5 -15t77 -38.5t61.5 -72q19 -34 32.5 -87t13.5 -124q0 -17 -1.5 -39.5t-5 -48t-10 -52t-16.5 -51.5q-27 -67 -72 -103.5t-96.5 -54t-103.5 -21t-94 -3.5h-39.5t-39.5 1h-118z" />
    <glyph glyph-name="E" unicode="E" horiz-adv-x="562" 
d="M525 128l-7 -122l-8 -6h-440l-5 4q1 39 2 72.5t1.5 67t1 70.5t0.5 84q0 100 -0.5 162t-1.5 103t-2.5 71t-3.5 66l6 6h439l5 -4l-7 -116l-5 -6q-45 1 -75 1.5t-56.5 1t-55 0.5h-70.5v-159l242 4l5 -6l-6 -113l-7 -6h-234l2 -175h80t60.5 1t59 2.5t74.5 3.5z" />
    <glyph glyph-name="F" unicode="F" horiz-adv-x="521" 
d="M242 288q1 -50 2 -84t2 -63.5t2.5 -60.5t4.5 -74l-5 -6h-54.5t-40 -0.5t-37.5 -1t-46 -1.5l-5 5q2 87 3 172.5t1 172.5q0 66 -0.5 116t-2 90.5t-3.5 75.5t-4 72l6 6q54 0 95.5 -0.5t76 -0.5t64.5 0.5t60 0.5t63.5 0.5t74.5 1.5l6 -5l-11 -124l-6 -7l-245 3v-167l228 8
l5 -6l-8 -117l-7 -6h-219z" />
    <glyph glyph-name="G" unicode="G" horiz-adv-x="708" 
d="M655 175q0 -35 1 -69t2 -69l-5 -8q-26 -9 -52 -17t-54 -14t-59.5 -9.5t-70.5 -3.5q-47 0 -79.5 5.5t-54.5 11.5q-15 4 -35 11t-43 20t-47 32t-46 48q-34 44 -52 102t-18 129q0 51 12 107t39 104q30 50 67 82.5t78.5 51t85.5 25.5t87 7q78 0 129.5 -16t83.5 -30l5 -6
q-3 -23 -5 -38.5t-3.5 -30t-3 -30.5t-3.5 -39l-8 -3q-35 23 -73 42t-95 19q-47 0 -86 -16t-67 -47t-43 -76.5t-15 -104.5q0 -28 7 -66.5t26.5 -73t55.5 -59t94 -24.5q21 0 38 3t37 8q1 34 1 58t-1 46t-3 47t-5 62l5 6l170 3l5 -6q-1 -38 -1.5 -75.5t-0.5 -75.5v-23z" />
    <glyph glyph-name="H" unicode="H" horiz-adv-x="729" 
d="M664 703q0 -29 -0.5 -53t-1 -46.5t-0.5 -45.5v-49q0 -127 2.5 -251.5t8.5 -251.5l-5 -6h-53.5h-40.5t-38.5 -1t-47.5 -2l-5 6q2 53 3 89t1 68v66.5t-1 85.5q-30 1 -60 1.5t-60 0.5q-29 0 -58 -0.5t-62 -2.5q0 -54 0.5 -91t1.5 -69t2.5 -65.5t3.5 -79.5l-5 -6h-55h-40.5
t-37.5 -1t-46 -2l-5 6q1 31 1.5 57.5t1 52t1 52.5t0.5 61q0 93 -1 164t-2.5 127t-3.5 100t-4 83l6 6h54t39 0.5t37.5 1t48.5 1.5l5 -6l-2 -264q26 0 53 -0.5t53 -0.5q34 0 67 0.5t66 1.5q0 44 -0.5 74.5t-1.5 57.5t-2 56.5t-4 71.5l5 6h51.5t38.5 0.5t37.5 1t49.5 1.5z" />
    <glyph glyph-name="I" unicode="I" horiz-adv-x="313" 
d="M250 703q-2 -104 -3.5 -207t-1.5 -207q0 -54 0.5 -92.5t1 -69t2 -59t3.5 -62.5l-6 -6h-52t-40 -0.5t-38.5 -1t-47.5 -1.5l-5 6q1 39 2.5 71.5t2 64.5t1 67.5t0.5 79.5q0 64 -0.5 112t-0.5 85t-1 65.5t-2 53t-2.5 48t-2.5 50.5l4 6q27 0 46.5 -0.5t38.5 0t41.5 1t54.5 2.5
z" />
    <glyph glyph-name="J" unicode="J" horiz-adv-x="354" 
d="M-2 5v123l6 6q10 -3 17.5 -5t18.5 -2q29 0 44.5 12.5t23 34.5t8.5 51.5t1 64.5q0 54 -0.5 105t-2 101t-3 100.5t-3.5 103.5l5 6h51.5t38.5 0.5t37.5 1t48.5 1.5l5 -6v-356v-42q1 -19 1.5 -37.5t0.5 -37.5q0 -25 -1 -52t-7.5 -53.5t-20 -50t-38.5 -41.5t-64 -28.5
t-95 -10.5q-17 0 -32.5 1t-34.5 3z" />
    <glyph glyph-name="K" unicode="K" horiz-adv-x="646" 
d="M637 699q-29 -32 -51 -58t-46 -57t-54.5 -73.5t-76.5 -108.5q22 -39 52.5 -88.5t65 -101.5t70.5 -103.5t71 -94.5l-4 -11l-203 -7l-7 5q-14 26 -26.5 49t-28 50t-37 62.5t-54.5 88.5q-14 23 -23 37t-16 24.5t-13.5 20t-15.5 23.5q0 -65 0.5 -108.5t1.5 -79.5t2.5 -73
t3.5 -89l-5 -6h-46t-37.5 -0.5t-39.5 -1t-50 -1.5l-5 6q1 37 1.5 67t1 59t1 60.5t0.5 70.5q0 96 -0.5 161.5t-2 114t-3.5 86t-4 78.5l5 6h51h37.5t37 1t49.5 2l5 -6l-5 -307q26 35 45 62.5t40 59t47 74t67 108.5l8 6h55h41t40 1t52 2z" />
    <glyph glyph-name="L" unicode="L" horiz-adv-x="521" 
d="M495 132l-8 -126l-5 -6h-79.5h-64t-56.5 -0.5t-58 -0.5t-68 -0.5t-86 -1.5l-5 6q0 119 0.5 237t0.5 237v74t-1 52t-2 45t-2 52l6 6q26 0 45 -0.5t37.5 0t41 1t54.5 2.5l6 -6q-2 -60 -3.5 -107t-2.5 -88.5t-1.5 -81t-0.5 -83v-95.5t1 -119h20q23 0 83.5 1.5t142.5 6.5z
" />
    <glyph glyph-name="M" unicode="M" horiz-adv-x="917" 
d="M833 703v-37.5t1 -32t2 -38t3 -56.5q2 -48 4 -94.5t4 -94.5q3 -87 7.5 -172.5t9.5 -171.5l-5 -6h-50h-39.5t-38 -1t-45.5 -2l-5 6v240l-2 153v179l-56 -210l-40 -146l-58 -213l-6 -6h-44h-33.5t-32 -1t-39.5 -2l-6 6l-67 258l-38 142l-44 177l-4 -189l-6 -194l-3 -191
l-6 -6h-37.5h-30.5t-32 -1t-41 -2l-5 6q5 80 9.5 142t7.5 114.5t5.5 100t4.5 98t4 109t5 133.5l6 6h69t51 0.5t50.5 1t66.5 1.5l5 -6l50 -192l28 -113l44 -179l47 174l40 145l46 162l6 6h68.5t50 0.5t49 1t64.5 1.5z" />
    <glyph glyph-name="N" unicode="N" horiz-adv-x="729" 
d="M667 703q-1 -85 -1.5 -167.5t-0.5 -167.5v-87t0.5 -85t1 -90t0.5 -101l-5 -5h-34.5t-28.5 -0.5t-30 -1t-39 -1.5l-7 5l-89 130l-100 147q-26 37 -43 62.5t-30.5 47t-26.5 43t-31 50.5l6 -134l3 -123l10 -219l-5 -6h-38t-31.5 -0.5t-33.5 -1t-43 -1.5l-5 6l2 146t1 147
q0 50 -0.5 97.5t-1.5 96.5t-2.5 100.5t-3.5 109.5l5 6q27 0 45.5 -0.5t35 0t35.5 1t49 2.5l7 -5q9 -15 18 -28.5t21 -32t30 -45.5t46 -70l91 -133q19 -29 30.5 -46t20 -30.5t16 -26t18.5 -30.5l-4 165l-4 138l-7 135l5 6h39.5h31.5t31 1t40 2z" />
    <glyph glyph-name="O" unicode="O" horiz-adv-x="750" 
d="M475 550q-18 22 -43 34t-54 12q-14 0 -33.5 -4t-39.5 -16q-35 -23 -55.5 -72.5t-20.5 -139.5q0 -34 3.5 -77.5t18.5 -82.5t44.5 -65.5t81.5 -26.5q43 0 71.5 19t45 53.5t22.5 82t5 103.5q-1 19 -3 44.5t-8 54.5q-5 22 -12.5 43t-22.5 38zM633 614q9 -12 22 -31.5
t25 -50.5t20 -74.5t8 -102.5q0 -32 -4.5 -71.5t-17.5 -81t-36.5 -80.5t-60.5 -70q-45 -37 -100.5 -52t-113.5 -15q-19 0 -47 2.5t-59.5 11t-64 24.5t-60.5 43q-35 33 -55.5 71.5t-31 77t-13 73.5t-2.5 61q0 51 9 102q3 16 10 43.5t23.5 60t44.5 65.5t74 59q41 23 86.5 32.5
t92.5 9.5q53 0 103 -12.5t88 -38.5q34 -22 60 -56z" />
    <glyph glyph-name="P" unicode="P" 
d="M239 365q45 0 74.5 3t49.5 14t30.5 26t15.5 30t6 27.5t1 17.5q0 22 -5 40.5t-18 33t-34.5 22.5t-54.5 9h-32.5t-32.5 -1v-222zM282 710q28 0 57.5 -0.5t58 -4t55 -10.5t49.5 -20q31 -18 49.5 -43t28 -51t12.5 -50.5t3 -40.5q0 -53 -15.5 -94t-36.5 -67q-27 -33 -62 -51
t-75 -26t-82.5 -9t-84.5 -1v-64.5t0.5 -51t1 -52t2.5 -68.5l-5 -6h-50h-37.5t-36 -1t-46.5 -2l-6 6q2 92 4 182.5t2 182.5q0 43 -0.5 82t-1.5 78.5t-2.5 81t-2.5 90.5l6 6l127 2z" />
    <glyph glyph-name="Q" unicode="Q" horiz-adv-x="750" 
d="M522 347q1 59 -8 110.5t-30 82.5q-15 22 -39.5 38.5t-69.5 16.5q-51 0 -86.5 -34.5t-49.5 -103.5q-5 -24 -6.5 -47.5t-1.5 -47.5q0 -52 7 -100.5t31 -86.5q20 -32 48.5 -46.5t60.5 -14.5q47 0 75.5 21.5t43.5 55.5t20 75.5t5 80.5zM682 -175q-60 28 -103 49t-75 36
t-55 25.5t-42 19t-37 16.5t-40 17l-7 1q-35 5 -71.5 15.5t-77.5 36.5q-46 30 -72.5 74t-39.5 89t-16 83.5t-3 57.5q0 92 24.5 162t68.5 117.5t106.5 72t137.5 24.5q67 0 126.5 -19.5t99.5 -56.5q29 -27 48.5 -61t31.5 -71.5t17.5 -76t5.5 -74.5q0 -60 -11.5 -117t-41.5 -108
q-15 -26 -30 -43.5t-30 -30t-30 -21t-29 -15.5q32 -12 54 -20.5t43 -15.5t45 -14.5t61 -19.5l3 -8l-52 -122z" />
    <glyph glyph-name="R" unicode="R" horiz-adv-x="625" 
d="M239 391q38 1 65.5 4t48.5 16q28 17 36 42t8 46q0 33 -12.5 51t-30.5 26t-38 9.5t-35 1.5h-21t-21 -1v-195zM237 273q0 -45 0.5 -76t1.5 -59t3 -58.5t5 -73.5l-6 -6h-51h-37.5t-36.5 -1t-46 -2l-6 6q1 31 2 56.5t1.5 50.5t0.5 52v62q0 102 -0.5 175t-2 127.5t-3 95.5
t-2.5 79l5 6h122l70 1q44 1 77 0.5t59 -3t46.5 -8t40.5 -15.5q31 -16 49.5 -39.5t28.5 -49t13 -49.5t3 -40q0 -48 -15 -80.5t-36 -54t-44.5 -34.5t-40.5 -20q9 -17 17.5 -30.5t16.5 -27.5t17.5 -29.5t21.5 -34.5q27 -43 44 -69.5t29.5 -44.5t23 -32.5t24.5 -32.5l-6 -12
q-23 0 -47 -0.5t-47 -1.5l-46 -2t-46 -3l-8 5q-24 49 -40.5 82t-31.5 61.5t-32 58.5t-42 73z" />
    <glyph glyph-name="S" unicode="S" horiz-adv-x="562" 
d="M375 420q18 -8 37.5 -18t39.5 -25q40 -31 57.5 -73.5t17.5 -85.5q0 -64 -28.5 -117.5t-91.5 -84.5q-23 -11 -47.5 -17t-47 -9t-41.5 -4t-30 -1q-57 0 -98.5 9.5t-58.5 15.5q-8 2 -16.5 5.5t-16.5 6.5l-6 8l7 141l10 3q11 -9 26 -19.5t36 -20.5t48 -16.5t61 -6.5
q33 0 55.5 7.5t37 19.5t21 27t6.5 29q0 20 -9.5 35t-26 27.5t-38.5 23t-48 21.5l-33 15q-21 10 -47 24.5t-49 36.5t-38.5 54t-15.5 77q0 40 13 78.5t43 68.5t78 48t119 18q36 0 63.5 -3.5t49 -8.5t39 -11.5t33.5 -13.5l5 -7l-8 -131l-9 -4q-28 19 -64.5 37.5t-93.5 18.5
q-25 0 -43 -6.5t-29.5 -17t-17 -22.5t-5.5 -24q0 -17 8 -29.5t24.5 -23.5t40 -21.5t55.5 -23.5z" />
    <glyph glyph-name="T" unicode="T" horiz-adv-x="521" 
d="M349 578q-1 -24 -1.5 -42.5t-1 -35.5t-0.5 -34v-38q0 -106 1.5 -210.5t5.5 -210.5l-6 -6h-52t-39.5 -0.5t-38 -1.5t-47.5 -2l-6 6q2 62 3.5 110.5t2 90t1 80.5t1 82t0 94t-0.5 116l-163 -4l-5 6l7 123l7 6h495l5 -3l-7 -125l-6 -5z" />
    <glyph glyph-name="U" unicode="U" horiz-adv-x="688" 
d="M635 703l-3 -297v-102q-1 -48 -2.5 -83.5t-7.5 -63.5t-17.5 -50.5t-31.5 -43.5q-28 -29 -60.5 -45t-63.5 -23.5t-57 -8.5t-39 -1q-50 0 -90 8.5t-70.5 23t-52.5 33.5t-36 39q-13 18 -21 38t-13 44.5t-7 55.5t-3 72v74q0 58 -0.5 96.5t-1 72t-1.5 69t-2 89.5l6 6
q25 0 44 -0.5t37.5 0t40.5 1t54 2.5l5 -6q-2 -75 -2.5 -135.5t-0.5 -121.5v-79.5t2 -79.5q2 -48 7 -76t16 -48q17 -26 44 -39.5t58 -13.5q25 0 48 8.5t40 27.5q10 12 16 27.5t9 37.5t4 51.5t1 68.5q0 93 -3 184.5t-7 184.5l6 6q21 0 37 -0.5t32 0t35 1t46 2.5z" />
    <glyph glyph-name="V" unicode="V" horiz-adv-x="583" 
d="M397 0h-65h-48t-44.5 -1t-55.5 -2l-6 6l-30 123q-13 49 -30 113t-38 137.5t-44.5 155.5t-48.5 169l5 6h49t38.5 1t39.5 2.5t52 3.5l6 -5q8 -36 13.5 -63t11.5 -52t12.5 -52.5t15.5 -66.5l21 -90l53 -236l43 185l32 131q10 42 17 70t12.5 52.5t10.5 50t12 62.5l6 6h38.5
t33 0.5t36 1t47.5 1.5l5 -5q-34 -116 -58.5 -200t-42.5 -146.5t-31 -108t-23 -84.5t-19 -76t-20 -82z" />
    <glyph glyph-name="W" unicode="W" horiz-adv-x="938" 
d="M782 0h-68h-53t-51.5 -1t-62.5 -2l-5 6l-21 137l-25 156q-7 40 -11 67.5t-7.5 51.5t-7 49.5t-7.5 62.5l-36 -214l-33 -183l-21 -124l-7 -6q-37 0 -62.5 0.5t-49.5 0t-50 -1.5t-64 -2l-6 6q-14 72 -24.5 129t-20.5 107t-19.5 97t-21 100.5t-25.5 117t-32 146.5l5 7
q27 1 45.5 1.5t36 1t38.5 2t53 3.5l6 -5l33 -198l26 -146q8 -45 13 -75.5t9 -55.5t7 -49t8 -57l25 138l39 205l40 230l6 6l198 5l6 -7l25 -154l29 -168q7 -44 12.5 -74.5t9.5 -58t8 -57.5t10 -72l32 172l29 153q8 43 13.5 73.5t10 57.5t9 55t10.5 67l6 6h42t32.5 0.5t33 1
t44.5 1.5l5 -6q-27 -110 -46.5 -191.5t-34 -144t-25 -109.5t-19.5 -88t-17 -80t-17 -84z" />
    <glyph glyph-name="X" unicode="X" 
d="M590 6l-189 -9l-7 6q-16 35 -27 59.5t-21.5 47t-23 48t-30.5 63.5l-103 -215l-7 -6h-50.5t-37.5 -0.5t-35 -1t-43 -1.5l-5 7q34 57 58.5 97.5t42 70t30 51.5t24 42t23.5 41.5t28 50.5q-14 25 -22 39.5t-13.5 24.5t-11 19t-12.5 22q-33 57 -68 115t-72 121l3 9
q31 0 52 0.5t40.5 1.5t41.5 2t55 3l6 -5q18 -40 29.5 -64.5t21 -45.5t21 -44l29.5 -59q10 24 18.5 43t18.5 40.5t22.5 50t31.5 71.5l8 6q24 0 42 -0.5t36 0t38.5 1t50.5 2.5l4 -8l-40 -65t-27 -44.5t-19.5 -33.5t-18.5 -32q-23 -41 -47 -81t-47 -80q37 -68 64.5 -116
t50.5 -86.5t44.5 -73.5t46.5 -75z" />
    <glyph glyph-name="Y" unicode="Y" 
d="M395 0h-46t-37.5 -0.5t-40.5 -1t-53 -1.5l-5 6q2 44 3.5 76.5t2 61t1 57.5t0.5 66v32q-11 20 -21.5 39t-21.5 39q-7 11 -21 36t-32.5 57t-39 67t-39.5 67t-34 58t-22 39l3 8q31 0 53 0.5t41.5 1.5t41.5 2t54 3l7 -5q11 -24 19.5 -42.5t16 -33.5t13.5 -28t13 -26
q4 -7 14 -26.5t21.5 -41.5t22 -42t14.5 -28q16 31 29.5 58l28 56t31 64t38.5 82l6 6h39.5t33 0.5t36 1t47.5 1.5l4 -7l-221 -402v-81.5t1 -64.5t2 -65t3 -83z" />
    <glyph glyph-name="Z" unicode="Z" horiz-adv-x="562" 
d="M517 0h-495l-6 6q15 30 59.5 122.5t116.5 242.5l56 120l42 87l-247 -4l-6 6l9 120l6 6h478l5 -5l-275 -572q40 0 69 0.5t57 1t60.5 1.5t80.5 3l6 -7l-9 -122z" />
    <glyph glyph-name="bracketleft" unicode="[" horiz-adv-x="333" 
d="M321 -216q-37 0 -63.5 0.5t-51.5 0t-53 -1t-68 -1.5l-6 7q1 30 1.5 55t0.5 53t0.5 62t0.5 82v113v155q0 56 -0.5 104.5t-1 99.5t-2 109t-3.5 134l6 7l246 3l6 -7l-4 -85l-6 -7l-93 3q-1 -38 -2 -69.5t-1.5 -64t-1 -70t-0.5 -86.5q0 -57 0.5 -121t1 -129.5t1.5 -129.5
t2 -122l98 2l5 -6l-5 -84z" />
    <glyph glyph-name="backslash" unicode="\" horiz-adv-x="479" 
d="M491 -146q-21 0 -34 0.5t-24.5 1t-24.5 0.5h-34l-9 7q-42 109 -86 216t-91 215q-23 53 -45.5 105t-45.5 106q-28 65 -44.5 104.5t-27.5 64.5t-19 42.5t-18 39.5l4 9q29 0 59 -0.5t59 -0.5l7 -6q11 -30 23.5 -62t27.5 -71t35 -87t46.5 -111t60.5 -142t79 -180
q4 -9 12.5 -28t19.5 -43.5t23 -51.5t22.5 -51t18.5 -42.5t11 -25.5z" />
    <glyph glyph-name="bracketright" unicode="]" horiz-adv-x="333" 
d="M12 763h68h53.5t52.5 0.5t64 1.5l6 -7q-1 -32 -1.5 -58t-1 -54t-1 -60.5t-0.5 -77.5v-106v-145q0 -57 0.5 -108.5t1 -105.5t2 -114.5t3.5 -136.5l-6 -7l-246 -2l-7 6l4 85l6 7l95 -2q1 36 1.5 67.5t1 64.5t1 71t0.5 88q0 121 -1.5 251.5t-3.5 247.5l-98 -2l-6 6l5 84z
" />
    <glyph glyph-name="asciicircum" unicode="^" horiz-adv-x="729" 
d="M601 323h-118l-116 246l-122 -246h-117l195 383h91z" />
    <glyph glyph-name="underscore" unicode="_" horiz-adv-x="500" 
d="M510 -125h-520v50h520v-50z" />
    <glyph glyph-name="quoteleft" unicode="&#x2018;" horiz-adv-x="250" 
d="M6 510q17 34 28 57.5t25 52.5q3 7 11.5 26.5t18 41.5t18 41.5t12.5 27.5l7 6l113 2l4 -7q-15 -45 -24 -75t-15.5 -55.5t-12.5 -51t-13 -61.5l-6 -6l-162 -5z" />
    <glyph glyph-name="a" unicode="a" horiz-adv-x="562" 
d="M340 260q-26 -3 -52 -8t-47 -14t-34.5 -24t-13.5 -40q0 -32 19.5 -46.5t46.5 -14.5q25 0 45 8.5t36 17.5v121zM504 224v-59.5t1 -47.5t2 -48t4 -62l-5 -7h-42h-35t-36 -1t-46 -2l-6 7v37q-8 -6 -20 -15.5t-29 -17.5t-39.5 -14t-50.5 -6q-37 0 -69 12.5t-55.5 35.5
t-37 55.5t-13.5 72.5q0 17 4 35.5t12.5 36.5t23 35t35.5 30q22 14 45 23.5t50.5 16.5t61.5 12.5t79 11.5q0 11 -2.5 23t-10.5 20q-10 10 -23.5 14.5t-41.5 4.5q-25 0 -49.5 -4.5t-46 -10.5t-40 -13t-31.5 -12l-8 4l5 109l6 8q21 6 42.5 12t44.5 10.5t50 7.5t59 3
q48 0 80.5 -7t54 -17.5t33.5 -23t20 -24.5q10 -16 15 -32t7.5 -35.5t2.5 -44.5v-59z" />
    <glyph glyph-name="b" unicode="b" 
d="M228 109q26 1 55.5 4.5t54.5 20.5q20 14 39.5 49t19.5 89q0 69 -27 110t-77 41q-20 0 -35 -6t-30 -14v-294zM66 -3l-7 7q0 70 0.5 135.5t1 123t0.5 104.5v79q0 75 -0.5 122.5t-2 80.5t-3.5 58.5t-5 57.5l6 7l166 26l8 -6l-6 -290q21 13 50 26.5t79 13.5q51 0 91 -19
t68 -52.5t42.5 -78.5t14.5 -97q0 -16 -2 -39.5t-10 -51.5t-23.5 -58.5t-42.5 -58.5q-29 -30 -63 -48t-75 -27t-91 -11.5t-110 -2.5h-20z" />
    <glyph glyph-name="c" unicode="c" horiz-adv-x="479" 
d="M459 139l-4 -120l-6 -6q-32 -9 -60.5 -15.5t-68.5 -6.5q-84 0 -139.5 26t-87.5 66t-45 88t-13 91q0 38 11 86.5t41.5 91.5t85.5 72.5t143 29.5q44 0 75.5 -7.5t64.5 -18.5l5 -6q-3 -20 -5 -33.5t-3 -26.5t-2.5 -26.5t-2.5 -33.5l-10 -3q-23 15 -44 25.5t-54 10.5
q-36 0 -61 -14.5t-40 -37t-21.5 -50.5t-6.5 -55q0 -23 5.5 -49.5t20.5 -50t41.5 -39t68.5 -15.5q38 0 61 10t43 22z" />
    <glyph glyph-name="d" unicode="d" 
d="M380 413q-11 2 -18.5 2.5t-15.5 0.5q-42 0 -68 -14.5t-41 -38t-20 -52.5t-5 -58q0 -8 1.5 -31t10.5 -48.5t29 -45t56 -19.5q21 0 37 7.5t31 16.5q1 45 2 76t1 59.5v61.5v83zM545 0h-47.5t-36.5 -0.5t-35 -1t-44 -1.5l-5 6l2 39q-9 -8 -21 -17.5t-27.5 -17.5t-36 -13.5
t-47.5 -5.5q-25 0 -61.5 8.5t-69.5 35.5q-45 37 -62.5 91.5t-17.5 113.5q0 78 23 138.5t76 101.5q28 22 59.5 34t63.5 17t63 5.5t59 -0.5v71.5t-0.5 52.5t-2 49t-3.5 60l5 6l165 26l7 -6q-2 -50 -3 -97.5t-2.5 -105.5t-2 -130.5t-0.5 -171.5q0 -49 0.5 -86.5t1.5 -69.5
t2 -61.5t3 -63.5z" />
    <glyph glyph-name="e" unicode="e" horiz-adv-x="562" 
d="M368 331q0 17 -2 34.5t-13 34.5q-8 14 -23.5 24.5t-40.5 10.5q-11 0 -21 -2.5t-19 -8.5q-14 -9 -23 -21t-14 -25t-7.5 -26t-3.5 -25zM511 145l-7 -113l-6 -8q-20 -8 -37.5 -14.5t-37 -11.5t-43 -7.5t-54.5 -2.5q-27 0 -64 4t-74.5 19t-71.5 44t-56 80q-12 26 -18 61
t-6 70q0 65 18.5 116t53 86.5t82.5 54.5t107 19q17 0 34.5 -2t36.5 -7q13 -3 32.5 -10t40.5 -23.5t40.5 -44.5t32.5 -72q11 -38 13 -75t3 -74l-6 -7l-323 -6q3 -15 7 -30t15 -31q37 -55 125 -55q55 0 91 14t65 29z" />
    <glyph glyph-name="f" unicode="f" horiz-adv-x="354" 
d="M254 1h-48.5t-38.5 -0.5t-37.5 -1.5t-44.5 -2l-6 7q2 67 3.5 113t2 89t0.5 91v119l-76 -2l-6 6l10 106l6 5l65 -1l-1 60q0 19 1 41t6.5 44.5t18 44t35.5 38.5q30 23 67.5 29.5t75.5 6.5q34 0 70 -3l5 -7l-9 -113l-7 -4q-8 1 -15 2t-15 1q-24 0 -37.5 -9.5t-20 -26
t-7.5 -37.5t-1 -44l-1 -23h91l5 -6l-9 -106l-7 -7l-79 4v-112.5t1 -89.5t3 -90.5t6 -115.5z" />
    <glyph glyph-name="g" unicode="g" horiz-adv-x="542" 
d="M202 -14q-9 -11 -19 -26t-10 -40q0 -13 5 -26.5t16.5 -25t30.5 -18.5t47 -7q49 0 70 19t21 42q0 16 -6 25t-14 14q-5 4 -8.5 6.5t-13.5 5.5t-28.5 7.5t-51.5 13.5zM326 349q1 33 -15.5 60.5t-50.5 27.5q-28 0 -47.5 -22t-19.5 -60q0 -5 1 -20.5t8 -31.5q6 -15 15 -23.5
t18 -12.5t16.5 -5t10.5 -1q5 0 15.5 2.5t21 11.5t19 26.5t8.5 47.5zM228 134q15 -5 25 -8.5t20.5 -6t23 -5t30.5 -5.5l24 -4q24 -6 54.5 -14.5t57.5 -26.5t45 -47.5t18 -76.5q0 -36 -16 -70.5t-49 -60.5t-83 -42t-119 -16q-15 0 -35.5 1t-43.5 5t-47 12.5t-45 23.5
q-28 20 -45 49t-17 64q0 24 8 43.5t19.5 35t25 27t24.5 20.5l-42 30v9q9 15 16.5 28.5t15 27.5t15.5 30t19 36q-19 11 -34.5 22t-32.5 34q-14 19 -21.5 43t-7.5 54q0 28 7 50.5t17 39t21 28t19 17.5q24 20 53.5 30.5t60 15t60.5 5t57 -0.5l46 -1h41h34t37 1t49 2l6 -5
l-7 -100l-6 -5l-69 4q10 -14 18.5 -32.5t8.5 -54.5t-12.5 -63t-32 -45.5t-42 -30.5t-41.5 -19q-36 -12 -62 -13t-50 0z" />
    <glyph glyph-name="h" unicode="h" 
d="M544 1h-48t-36 -0.5t-35.5 -1.5t-45.5 -2l-5 7q0 25 0.5 49t0.5 49v44t-0.5 63t-1 62t-1.5 41q-2 15 -4 32t-8.5 31.5t-18 24t-32.5 9.5q-26 0 -44.5 -10t-32.5 -20q0 -66 0.5 -111.5t1.5 -84.5t2.5 -79.5t4.5 -96.5l-6 -6h-50t-37.5 -0.5t-36 -1.5t-46.5 -2l-5 7
q1 37 1.5 67.5t1 60t1 60.5t0.5 68q0 121 -3 243q-1 48 -1.5 81.5t-2 61.5t-4 55.5t-5.5 63.5l5 6l171 27l6 -7l-3 -308q15 9 33 19.5t39.5 19t46 14.5t51.5 6q33 0 63 -11.5t52 -42.5q11 -16 17 -34.5t9 -41.5t4 -51.5t1 -64.5v-75q1 -39 1.5 -66t1 -49.5t1.5 -45t3 -53.5z
" />
    <glyph glyph-name="i" unicode="i" horiz-adv-x="292" 
d="M220 634q-27 -3 -45.5 -5.5t-35 -5t-34.5 -5.5t-43 -7l-7 6q1 14 1 29v29q0 18 -0.5 36t-2.5 45l6 7l163 20l6 -6l-3 -136zM234 0h-51h-39t-37 -1t-46 -2l-6 7q1 31 2 59t2 57t1.5 62t0.5 74q0 53 -0.5 88.5t-2 62.5t-3.5 50t-5 52l6 6l172 30l7 -8l-2 -128t-1 -128
q0 -52 0.5 -90.5t2 -69.5t3 -58t3.5 -56z" />
    <glyph glyph-name="j" unicode="j" horiz-adv-x="292" 
d="M223 633q-24 -3 -41 -5l-34 -4t-36.5 -4.5t-47.5 -6.5l-7 5l-3 137l7 7l162 20l6 -7v-137zM233 536q-1 -58 -2 -113.5t-1 -112.5q0 -98 3 -195l1 -70q1 -30 0.5 -55.5t-4.5 -49t-12.5 -44.5t-23.5 -42q-22 -29 -49.5 -48t-54.5 -30.5t-51 -17.5t-38 -9l-7 4l-26 104l5 8
q31 6 49 18t27.5 30t12.5 42t3 54q0 11 -0.5 36t-1 53t-1 53.5t-0.5 38.5q0 32 -1 71.5t-2.5 81.5t-4 84.5t-5.5 81.5l6 6q30 4 50 7.5t37.5 6.5t36 6.5t46.5 9.5z" />
    <glyph glyph-name="k" unicode="k" horiz-adv-x="562" 
d="M567 4l-180 -7l-9 6q-19 40 -32.5 67.5t-28.5 56.5t-35 66.5t-53 97.5l1 -115l6 -169l-6 -7h-48t-36 -0.5t-35 -1t-43 -1.5l-7 7q1 122 1 243t-2 243q-1 49 -2 84.5t-2.5 65.5t-3 59.5t-4.5 65.5l6 7l174 26l8 -6q-2 -57 -3 -96.5l-2 -79t-1.5 -86t-0.5 -116.5v-111
q17 26 29 44.5t25.5 40.5t32 53t47.5 82l10 7l163 2l5 -10q-27 -34 -43.5 -55.5t-31 -41t-30.5 -41.5t-42 -57q28 -51 46.5 -84.5t36.5 -64.5t40 -68t57 -97z" />
    <glyph glyph-name="l" unicode="l" horiz-adv-x="292" 
d="M230 0h-47.5h-38.5t-37 -1t-44 -2l-6 7q1 37 2.5 68t2 62t1 63.5t0.5 73.5v88.5t-1 88.5q-1 61 -1.5 101t-2 72.5t-3.5 65t-6 78.5l4 6l171 27l7 -7q-2 -41 -2.5 -71t-1.5 -57.5t-1 -55.5v-64q0 -119 1 -201t2.5 -142t3 -105t3.5 -88z" />
    <glyph glyph-name="m" unicode="m" horiz-adv-x="896" 
d="M835 1h-45t-36.5 -0.5t-37.5 -1t-48 -1.5l-6 6q0 11 0.5 41t1 64t1 64.5t0.5 43.5q0 14 0.5 28.5t0.5 28.5q0 32 -2.5 58t-9.5 44t-20 28t-34 10q-23 0 -39.5 -8.5t-29.5 -16.5l1 -101v-37q0 -45 0.5 -75.5t1.5 -56t2.5 -51t3.5 -61.5l-6 -6h-44.5t-36 -0.5t-37.5 -1.5
t-48 -2l-6 7q1 30 1.5 52.5t1 47.5t0.5 59.5v88.5q0 32 -1.5 60.5t-7.5 50t-19 34t-36 12.5q-19 0 -36 -8.5t-33 -19.5q0 -65 0.5 -110t1.5 -84.5t2.5 -80.5t4.5 -99l-6 -6h-52.5t-39.5 -0.5t-35.5 -1t-41.5 -1.5l-5 6q0 43 0.5 86t0.5 86q0 74 -1 124t-3 86.5t-4.5 64.5
t-5.5 58l6 7q26 4 45 7t37 6t38.5 6.5t49.5 9.5l9 -9v-56q35 24 70 43t85 19q30 0 50.5 -7t34 -17t21.5 -21t13 -20q15 10 33 21.5t39.5 21.5t47.5 16t57 6q6 0 20.5 -1t32.5 -6t37 -17t34 -33q22 -32 25 -76t2 -95v-75v-70.5t1 -53l2 -49t3 -59.5z" />
    <glyph glyph-name="n" unicode="n" 
d="M543 1h-50t-37 -0.5l-34 -1t-42 -1.5l-6 6q0 26 0.5 51.5t0.5 51.5v44t-0.5 62t-1 61t-1.5 41q-1 13 -3.5 30t-8.5 31t-18 24t-33 10q-24 0 -42.5 -10t-34.5 -21q0 -67 0.5 -112t1.5 -83.5t2.5 -78.5t3.5 -98l-6 -6h-49.5t-37 -0.5t-35.5 -1t-45 -1.5l-6 6q1 48 1.5 96
t0.5 96q0 61 -1 105.5t-3 79.5t-4.5 65t-5.5 63l6 7q28 4 47 6.5t36.5 5.5t37 7t48.5 10l10 -7l-2 -55q35 20 74.5 39.5t85.5 19.5q13 0 30 -2t34 -8.5t32.5 -18.5t27.5 -31q9 -15 14.5 -32t8 -38.5t3.5 -49t1 -63.5v-78q1 -37 1.5 -62.5t1 -48t1.5 -46.5t3 -57z" />
    <glyph glyph-name="o" unicode="o" 
d="M396 267q0 41 -5.5 79.5t-23.5 60.5q-10 12 -26.5 21.5t-37.5 9.5q-24 0 -43 -12.5t-30 -32.5q-8 -13 -12 -30.5t-5.5 -35.5t-2 -34.5t-0.5 -27.5q0 -36 3 -61.5t8.5 -42.5t12 -27.5t12.5 -16.5q9 -8 22.5 -15.5t33.5 -7.5q31 0 49.5 15.5t28.5 40t13 55.5t3 62zM569 266
q0 -56 -12 -106.5t-43 -88.5t-83 -60.5t-131 -22.5q-54 0 -91 9t-62 23t-40 30t-25 31q-28 41 -37.5 88t-9.5 95q0 139 70.5 208t201.5 69q20 0 54.5 -3t67.5 -16q35 -14 59 -35.5t39.5 -46.5t24 -52t12.5 -50.5t4.5 -42.5t0.5 -29z" />
    <glyph glyph-name="p" unicode="p" 
d="M228 107q26 1 54.5 4.5t52.5 20.5q30 21 44.5 57.5t14.5 80.5q0 26 -6.5 59.5t-29.5 59.5q-19 21 -39 25.5t-31 4.5q-19 0 -31 -5t-29 -15v-292zM224 495q10 7 23 15.5t29.5 15.5t37 11.5t46.5 4.5q42 0 80 -17.5t66.5 -50.5t45.5 -80t17 -107q0 -26 -4.5 -54t-14 -55.5
t-26 -54.5t-40.5 -49q-30 -29 -63.5 -44.5t-67 -23t-65.5 -9t-59 -1.5l7 -238l-6 -5h-48.5h-37.5t-36.5 -1t-45.5 -2l-6 5q1 42 2 77.5t1.5 70t1 71t0.5 81.5q0 72 -0.5 125.5t-1 93.5t-2 70.5t-3 57t-3.5 51.5t-5 55l6 7q27 3 46 6t36.5 6t37 7t46.5 10l8 -9z" />
    <glyph glyph-name="q" unicode="q" 
d="M375 415q-8 1 -15 1h-14q-42 0 -68.5 -15t-41 -38t-20 -49.5t-5.5 -49.5q0 -10 1.5 -35.5t11.5 -52.5t31.5 -47.5t61.5 -20.5q20 0 33 5.5t28 14.5zM549 525q-1 -33 -2 -61.5t-1.5 -58.5t-1 -64t-0.5 -77q0 -128 1.5 -253t7.5 -253l-5 -5h-48h-36t-35.5 -1t-46.5 -2l-6 5
q1 46 1.5 76.5t1 57.5t0.5 58v78q-21 -13 -48.5 -25t-73.5 -12q-56 0 -98 20.5t-69.5 55.5t-41 81t-13.5 98q0 28 5 61t17.5 65.5t34 62t54.5 50.5q31 19 63.5 29.5t76.5 15t105.5 5t150.5 -0.5z" />
    <glyph glyph-name="r" unicode="r" horiz-adv-x="375" 
d="M340 367q-11 6 -19.5 10t-21.5 4q-26 0 -39.5 -11t-20 -27.5t-7.5 -36t-1 -36.5q0 -26 1 -59t2.5 -68t3 -70.5t3.5 -65.5l-5 -7h-50h-37.5t-36 -1t-46.5 -2l-6 6q3 124 3 247q0 52 -0.5 88.5t-1.5 65t-3 53t-4 52.5l6 6q27 4 46 7t36.5 6t36.5 7t47 10l8 -8l-3 -92
q24 56 56 76.5t63 20.5q5 0 10.5 -0.5t10.5 -0.5l6 -7l-28 -163z" />
    <glyph glyph-name="s" unicode="s" horiz-adv-x="479" 
d="M319 327q21 -8 44 -18.5t42.5 -28t32.5 -45t13 -68.5v-10.5t-1 -11.5q-7 -54 -35 -85t-65 -47t-76.5 -20.5t-67.5 -4.5q-27 0 -49.5 3t-41.5 7.5t-37 10.5t-36 13l-5 9q1 19 2 31.5t2 24t1.5 24.5t1.5 33l9 4q11 -9 19 -15t21 -13q28 -14 56.5 -21t49.5 -7
q42 0 60.5 16.5t18.5 35.5q0 13 -7.5 23t-18 17t-23 12t-22.5 8l-38 14q-18 7 -40.5 17t-42.5 28t-33.5 45t-13.5 67q0 30 8.5 52t18.5 36q19 28 46 44t54.5 23.5t54 9.5t44.5 2q49 0 83.5 -7.5t69.5 -17.5l5 -6l-10 -109l-9 -3q-19 12 -49 27t-76 15q-23 0 -37 -5.5
t-21.5 -12.5t-9.5 -15t-2 -12q0 -21 17.5 -31.5t43.5 -19.5z" />
    <glyph glyph-name="t" unicode="t" horiz-adv-x="354" 
d="M348 111l-10 -103l-7 -7q-26 -5 -51 -8.5t-54 -3.5q-59 0 -91 17t-47 44t-17.5 61t-2.5 69q0 20 0.5 38.5t1.5 37.5l3 159l-63 -2l-6 6l9 107l6 5l54 -2l-1 125l4 7q27 7 45 11.5t34.5 9t34 9.5t43.5 13l7 -6l-3 -168h100l6 -6l-10 -107l-6 -6l-90 4l-2 -141
q0 -15 -0.5 -32t0 -33.5t1 -31t1.5 -24.5q1 -6 2.5 -14t7.5 -15.5t17 -12.5t30 -5q13 0 23 2.5t23 6.5z" />
    <glyph glyph-name="u" unicode="u" 
d="M547 527q-3 -141 -3 -282q0 -49 0.5 -82.5t1 -59.5t2 -48t3.5 -49l-6 -6h-42t-35 -0.5t-36.5 -1t-46.5 -1.5l-7 6l1 45q-27 -21 -61 -40.5t-87 -19.5q-38 0 -72 12.5t-59 40.5q-14 16 -22 33.5t-12 40t-5 52.5t-1 71v70q0 38 -0.5 64t-1 48.5t-2 45.5t-3.5 55l7 6l165 8
l7 -8l-2 -202q-1 -19 -1 -38v-38q0 -22 1 -46t8 -43.5t21.5 -32.5t41.5 -13q20 0 37.5 9.5t37.5 23.5q1 30 1 46.5v38.5v36t-1 72t-2 90.5t-4 90.5l7 6l163 8z" />
    <glyph glyph-name="v" unicode="v" horiz-adv-x="500" 
d="M330 0h-46.5h-37.5t-36.5 -1t-42.5 -2l-7 7q-6 20 -11 39t-12.5 43t-18 57.5t-27 83.5t-40.5 121t-57 169l4 8q28 0 48 0.5t38.5 2t38.5 3.5l50 5l7 -6q5 -25 9 -42.5t8.5 -36t10.5 -41.5t15 -58l19 -77l25 -108l51 197q7 29 12 48t8.5 35.5t7.5 33.5t9 42l7 7l140 3
l5 -7q-11 -31 -23.5 -69t-26 -78t-26.5 -78t-23 -68q-16 -47 -32 -98.5t-40 -126.5z" />
    <glyph glyph-name="w" unicode="w" horiz-adv-x="812" 
d="M672 0h-52h-42t-41 -1t-49 -2l-7 7l-42 217l-15 74l-15 76l-25 -121l-28 -121l-26 -122l-6 -7h-58.5h-43t-39 -1t-45.5 -2l-7 6q-7 31 -13.5 58t-13.5 56t-16.5 64t-22.5 82t-30 108.5t-41 143.5l6 8l162 12l6 -5l34 -166l24 -108l19 -99l19 92l24 110l33 164l7 7l192 3
l6 -7l35 -173l22 -104l17 -89l19 92l28 121l29 150l7 7l130 3l6 -8q-8 -31 -16.5 -62t-17.5 -62q-15 -54 -26 -93t-19.5 -70t-15.5 -56.5t-14 -51.5t-14.5 -55t-17.5 -68z" />
    <glyph glyph-name="x" unicode="x" horiz-adv-x="521" 
d="M508 6q-26 -1 -45.5 -2t-39 -1.5t-41.5 -2t-54 -4.5l-9 5q-11 23 -19 39t-16 31.5t-17.5 33t-23.5 43.5q-11 -19 -17.5 -30.5t-16.5 -32.5q-11 -20 -20.5 -40t-19.5 -39l-8 -6l-151 -1l-4 7q32 46 53 76.5t38.5 57t35.5 55t45 70.5q-40 62 -64 99.5t-40.5 62t-29 43
t-29.5 42.5l6 8q32 1 53 2.5t40 3t38.5 3t48.5 3.5l7 -6q4 -8 11 -22.5t15.5 -31t16.5 -32.5l14 -28q3 -6 6 -11.5t6 -11.5q10 18 17 31.5t13.5 27t15 31t20.5 43.5l8 7h144l4 -9q-14 -21 -33.5 -50t-41 -61.5t-43 -65.5t-39.5 -60l10.5 -17.5t9.5 -15.5t11.5 -18t15.5 -25
q7 -11 24.5 -37.5t37 -57t37 -58t24.5 -39.5z" />
    <glyph glyph-name="y" unicode="y" horiz-adv-x="500" 
d="M511 525q-11 -29 -22 -58.5t-22 -59.5q-33 -87 -58 -154t-44 -121t-34 -98.5t-27.5 -87.5t-24.5 -88t-26 -99l-7 -6q-19 0 -38 0.5t-38 0.5q-20 0 -40 -0.5t-39 -1.5l-5 8q17 37 28 61.5t20.5 47t20 48t25.5 64.5q-23 72 -51 151.5t-54.5 153.5t-49.5 135.5t-36 97.5l5 7
q31 1 51.5 1.5t38.5 1.5t38 2.5t49 3.5l8 -6l40 -152l29 -106l19 -71l22 75l26 86q9 29 15 48.5t10.5 36t9 34t10.5 43.5l8 7l139 3z" />
    <glyph glyph-name="z" unicode="z" horiz-adv-x="479" 
d="M436 0h-413l-4 7q33 65 57.5 113t42.5 83.5t31.5 62.5t25 50.5t22.5 47t25 52.5l-178 -2l-5 6l10 104l5 7h396l5 -9q-23 -46 -50 -99t-53 -104q-19 -38 -32 -65t-24 -50t-20.5 -44.5t-21.5 -47.5l193 7l6 -5l-10 -110z" />
    <glyph glyph-name="braceleft" unicode="{" horiz-adv-x="354" 
d="M35 303q18 5 33 13.5t28 34.5q9 20 11 44.5t2 68.5v92q0 36 1.5 61.5t6 45t12 34t20.5 27.5t27.5 21t37.5 12.5t57 6.5t85 2v-64q-21 -5 -45 -14.5t-41 -36.5q-12 -18 -15 -44.5t-3 -72.5v-32v-44t-1 -44q-2 -38 -9.5 -62.5t-20 -39.5t-29 -23.5t-36.5 -14.5
q20 -6 36.5 -14.5t29 -23.5t20 -39.5t9.5 -62.5q1 -22 1 -44v-44v-32q0 -46 3 -72.5t15 -44.5q17 -27 41 -36.5t45 -14.5v-64q-51 0 -85 2t-57 6.5t-37.5 12.5t-27.5 21t-20.5 27.5t-12 34t-6 45t-1.5 61.5v92q0 44 -2 68.5t-11 44.5q-13 26 -28 34.5t-33 13.5v58z" />
    <glyph glyph-name="bar" unicode="|" horiz-adv-x="229" 
d="M166 -250h-103v1000h103v-1000z" />
    <glyph glyph-name="braceright" unicode="}" horiz-adv-x="354" 
d="M319 245q-18 -5 -33 -13.5t-28 -34.5q-9 -20 -11 -44.5t-2 -68.5v-92q0 -36 -1.5 -61.5t-6 -45t-12 -34t-20.5 -27.5t-27.5 -21t-37.5 -12.5t-57 -6.5t-85 -2v64q21 5 45 14.5t41 36.5q12 18 15 44.5t3 72.5v32v44t1 44q1 38 9 62.5t20.5 39.5t29 23.5t36.5 14.5
q-20 6 -36.5 14.5t-29 23.5t-20.5 39.5t-9 62.5q-1 22 -1 44v44v32q0 46 -3 72.5t-15 44.5q-17 27 -41 36.5t-45 14.5v64q51 0 85 -2t57 -6.5t37.5 -12.5t27.5 -21t20.5 -27.5t12 -34t6 -45t1.5 -61.5v-92q0 -44 2 -68.5t11 -44.5q13 -26 28 -34.5t33 -13.5v-58z" />
    <glyph glyph-name="asciitilde" unicode="~" horiz-adv-x="729" 
d="M616 288q-9 -10 -23 -24t-32.5 -26.5t-41.5 -21.5t-50 -9q-26 0 -49.5 9t-53.5 23l-29 14q-21 10 -39 16.5t-38 6.5q-15 0 -26.5 -3.5t-22 -11.5t-22.5 -21t-28 -32l-48 87q6 8 17 23t29 29.5t42.5 25.5t56.5 11q28 0 51.5 -8.5t55.5 -23.5l34 -16q16 -7 35 -14t38 -7
q31 0 55 19.5t43 42.5z" />
    <glyph glyph-name="exclamdown" unicode="&#xa1;" horiz-adv-x="292" 
d="M63 521l121 5l6 -7q5 -126 10.5 -254t19.5 -246l-6 -7l-176 -15l-7 6q8 128 15.5 256t9.5 253zM41 620v143l5 5l159 3l5 -7v-139l-7 -7h-42t-33.5 -0.5t-35 -1t-45.5 -1.5z" />
    <glyph glyph-name="cent" unicode="&#xa2;" horiz-adv-x="500" 
d="M297 408q-6 0 -15.5 -2t-20.5 -7t-22.5 -15t-21.5 -28q-11 -20 -16.5 -47.5t-5.5 -50.5q0 -25 4 -43.5t10 -32t12 -22t10 -13.5zM446 140q-2 -19 -3 -32t-2 -25t-1.5 -25t-0.5 -32l-7 -8q-32 -14 -66 -20.5t-69 -6.5h-12t-18 1q-3 -13 -5.5 -22t-4 -17.5t-3.5 -17
t-4 -20.5l-6 -6q-11 0 -19 0.5t-15 0.5t-14.5 -0.5t-18.5 -0.5l-5 6q9 29 15 49t11 36q-50 13 -81.5 41t-49.5 63t-25 73.5t-7 73.5q0 72 20.5 126t55.5 90t82.5 54t101.5 18h15.5t18.5 -1q3 12 4.5 20t3 14.5t2.5 13.5t3 19l7 6h21h15t13.5 0.5t16.5 0.5l5 -7
q-4 -11 -6.5 -19.5l-5 -17t-4.5 -17.5t-5 -21q17 -2 25.5 -4t27.5 -7l5 -7q-3 -20 -5 -34.5t-3.5 -27.5t-3 -28t-3.5 -37l-9 -4q-23 11 -34.5 15t-30.5 8l-72 -292q5 -2 11 -3t16 -1q42 0 69 13.5t44 24.5z" />
    <glyph glyph-name="sterling" unicode="&#xa3;" horiz-adv-x="521" 
d="M488 109l-5 -101l-6 -8h-431l-7 10q7 22 15 47.5t14.5 59t11.5 77t7 102.5l-63 -1l-5 6l4 86l7 6l55 -2q-1 19 -2 39t-1 37q0 8 0.5 22t3.5 31.5t8.5 36t16.5 35.5q21 35 53 54t64.5 28t60.5 10.5t41 1.5q47 0 82 -7t73 -17l4 -7l-8 -106l-9 -5q-23 9 -46.5 16t-59.5 7
q-44 0 -68.5 -14t-35.5 -35t-13 -46t-2 -47v-31l180 2l6 -6l-7 -88l-6 -6l-174 2q-1 -32 -2 -54t-3.5 -41.5t-5.5 -40.5t-9 -51h69t56 0.5t57.5 1t74.5 1.5z" />
    <glyph glyph-name="fraction" unicode="&#x2044;" horiz-adv-x="125" 
d="M-47 0l-74 -2l-6 9q17 36 29.5 63.5t24.5 54t25 57t30.5 71.5t41.5 97t57 135q21 51 34 82.5t22 53t15.5 38.5t14.5 40l8 7l73 2l4 -9q-29 -64 -60 -135t-61.5 -142.5t-59 -139t-51 -123t-38.5 -95.5t-22 -57z" />
    <glyph glyph-name="fraction" unicode="&#x2215;" horiz-adv-x="125" 
d="M-47 0l-74 -2l-6 9q17 36 29.5 63.5t24.5 54t25 57t30.5 71.5t41.5 97t57 135q21 51 34 82.5t22 53t15.5 38.5t14.5 40l8 7l73 2l4 -9q-29 -64 -60 -135t-61.5 -142.5t-59 -139t-51 -123t-38.5 -95.5t-22 -57z" />
    <glyph glyph-name="yen" unicode="&#xa5;" horiz-adv-x="583" 
d="M506 148q-10 0 -16 0.5t-11.5 0.5h-11h-14.5h-74q0 -24 0.5 -42.5t1 -35t1.5 -32t2 -33.5l-6 -5h-45.5t-35.5 -0.5t-36 -1t-47 -1.5l-5 5q2 37 3 73t2 73h-53h-44t-34 -1l-6 8q1 13 2 22t2 17.5t1.5 19t0.5 25.5l6 6h24.5t37.5 -0.5t38 -0.5h26v39q-8 14 -11 19.5
t-10 18.5q-30 0 -48 -0.5t-29.5 -0.5h-18.5h-15l-6 7q1 13 2 22t2 17.5t1.5 19t0.5 25.5l6 7h10.5h15.5t15.5 -0.5t10.5 -0.5q-15 28 -26.5 48t-25.5 45t-34.5 61t-54.5 96l3 7q30 1 50 1.5t38 1t38.5 1.5t50.5 3l6 -4q13 -28 27.5 -60t34.5 -72q3 -7 12 -24.5t19.5 -37.5
t19.5 -38t12 -25q17 33 35 71t34.5 72.5t29.5 63t19 42.5l6 6h42t32 0.5t31 1t40 1.5l4 -7q-14 -26 -32 -59t-36 -67.5t-36 -67.5t-32 -60h29q11 0 16 0.5t18 1.5l6 -6q-1 -15 -1.5 -25t-1 -19t-1 -19t-1.5 -24l-6 -6h-15.5t-29 0.5t-34.5 0.5h-31q-2 -4 -9 -17.5t-9 -17.5
v-42h50h33q17 0 27.5 0.5t22.5 1.5l6 -6q-1 -15 -1.5 -25t-1 -19t-1 -18.5t-1.5 -24.5z" />
    <glyph glyph-name="florin" unicode="&#x192;" horiz-adv-x="458" 
d="M122 308h-22t-17 -0.5t-16.5 -1t-20.5 -0.5l-6 6q3 17 4.5 28.5t3 22t3.5 22.5t4 29l7 7q12 -1 28 -1t42 -1l6 55q5 47 9 73.5t12 47.5q18 46 57 70t106 24q39 0 65 -4.5t41 -8.5l5 -9q-3 -17 -5.5 -29t-4.5 -23t-4 -23t-5 -29l-8 -5q-7 2 -18.5 4.5t-25.5 2.5
q-20 0 -31 -6t-17.5 -19.5t-9.5 -34.5t-7 -51l-3 -36q14 0 24.5 0.5t20 0.5t19.5 0.5t25 0.5l5 -8q-3 -15 -4.5 -25.5t-3 -20t-3.5 -22t-5 -32.5l-7 -7q-15 0 -26 0.5t-20 0.5h-17h-18l-29 -288q-6 -50 -10 -76t-11 -45q-20 -50 -61.5 -72t-101.5 -22q-39 0 -64 4.5t-42 8.5
l-5 9q3 17 5.5 29t4.5 23t4 23t5 29l8 5q7 -2 18.5 -4.5t25.5 -2.5q19 0 30 6t17.5 19.5t10 34.5t6.5 50l4 36z" />
    <glyph glyph-name="section" unicode="&#xa7;" horiz-adv-x="542" 
d="M331 197q12 9 29 26t17 44q0 30 -24.5 47t-73.5 40l-28 12l-47 23q-17 -14 -31 -29.5t-14 -39.5q0 -14 5 -24t15.5 -19t26.5 -18t38 -20zM380 463q20 -9 43 -21t42.5 -31t32.5 -45.5t13 -64.5q0 -35 -13 -65q-14 -35 -33 -54.5t-42 -39.5q10 -11 20 -22.5t17.5 -25
t12 -30.5t4.5 -39q0 -37 -15 -69.5t-45 -56.5t-74.5 -38t-104.5 -14q-52 0 -90 9.5t-78 23.5l-5 8l8 110l9 5q31 -14 66.5 -27t80.5 -13q34 0 60 14.5t26 40.5q0 23 -20 36.5t-64 33.5l-37 17q-28 13 -57.5 28t-53.5 36t-39 50t-15 69q0 17 5 43t20 52q16 26 32.5 39.5
t33.5 24.5q-9 9 -18 19t-16 22.5t-11 29t-4 39.5q0 34 14 64.5t40 53.5q21 18 45.5 28t47 14.5t41 5.5t29.5 1q53 0 92 -8.5t78 -19.5l6 -7l-10 -107l-9 -5q-20 8 -57 20.5t-80 12.5q-28 0 -51.5 -12.5t-23.5 -37.5q0 -23 21.5 -36t51.5 -26q11 -5 21.5 -10t21.5 -10z" />
    <glyph glyph-name="currency" unicode="&#xa4;" horiz-adv-x="667" 
d="M508 339q0 41 -14.5 73.5t-39.5 55.5t-56 35.5t-64 12.5q-35 0 -66.5 -12t-56 -35t-39 -56t-14.5 -75q0 -39 14.5 -71.5t38.5 -55.5t55.5 -36t66.5 -13q36 0 68 13t55.5 36.5t37.5 56t14 71.5zM563 492q9 -15 17.5 -30.5t15 -32.5t10.5 -38.5t4 -48.5q0 -32 -4.5 -56
t-12 -42.5t-16 -32.5t-15.5 -26l79 -79l-78 -77l-78 79q-15 -9 -30.5 -17.5t-33 -14.5t-38.5 -10t-49 -4q-31 0 -55 5t-43 12t-32.5 15.5t-23.5 14.5l-79 -78l-77 77l80 78q-10 16 -19 31.5t-15.5 33t-10 39t-3.5 50.5q0 28 3.5 49.5t10 38.5t15 32.5t18.5 31.5l-77 78
l76 76l78 -77q16 9 31.5 17.5t33.5 15t40 10.5t51 4q27 0 48 -4t38.5 -10.5t32.5 -15t31 -17.5l78 77l78 -77z" />
    <glyph glyph-name="quotesingle" unicode="'" horiz-adv-x="208" 
d="M118 421h-27l-47 247q-1 6 -1 11.5v10.5q0 16 6 27t16 18t21 10.5t22 3.5q22 0 34 -9.5t15 -13.5q8 -11 8.5 -23t-0.5 -23z" />
    <glyph glyph-name="quotedblleft" unicode="&#x201c;" horiz-adv-x="479" 
d="M224 510q13 25 24 49t28 62q3 7 11.5 26t18.5 41t18.5 41.5t12.5 27.5l7 6l113 2l4 -7q-14 -42 -22.5 -71t-15.5 -54.5t-13 -52.5t-14 -65l-6 -6l-162 -5zM12 509q13 26 24 50t24 52t28.5 63t36.5 83l7 6l116 1l3 -7q-13 -39 -21.5 -66t-15.5 -52.5t-13.5 -54
t-15.5 -70.5l-5 -6l-164 -5z" />
    <glyph glyph-name="guillemotleft" unicode="&#xab;" horiz-adv-x="521" 
d="M332 475l125 5l5 -8q-3 -6 -12 -22.5t-19 -34.5t-19 -34.5t-13 -23.5q-9 -17 -15 -27t-10 -17.5t-7 -14t-7 -15.5q4 -7 7 -14t7 -14q8 -16 19 -36t22.5 -41t22.5 -40.5t20 -35.5l-4 -10l-116 -5l-8 4q-9 19 -22 43t-27.5 49.5t-28.5 50t-25 44.5v11q23 40 37.5 66
t24.5 45.5t18 35t18 34.5zM139 477l119 3l5 -9q-7 -12 -22.5 -41t-32 -59.5t-29.5 -56t-16 -30.5q12 -23 20 -39t18 -34t24.5 -43t37.5 -65l-5 -11l-116 -5l-8 5q-8 16 -13.5 27.5t-12.5 24t-17.5 29.5t-26.5 45l-33 58v10q18 32 31 55t24 43.5t21.5 40.5t24.5 46z" />
    <glyph glyph-name="guilsinglleft" unicode="&#x2039;" horiz-adv-x="333" 
d="M145 477h34t24.5 0.5t25 1t34.5 1.5l6 -9q-1 -2 -7.5 -13.5t-16 -29t-21 -39t-22.5 -41.5t-20 -37.5t-13 -26.5q9 -17 16 -30.5t17 -31.5t25 -45.5t41 -73.5l-4 -11q-19 -1 -32.5 -1.5t-26 -1t-26 -1t-31.5 -1.5l-8 5q-5 9 -9 17.5t-8.5 17.5t-11 20.5t-15.5 27.5
q-4 6 -13.5 22.5t-19.5 33.5q-12 20 -26 45v10q7 13 20 35.5t27 48.5t28.5 52.5t25.5 48.5z" />
    <glyph glyph-name="guilsinglright" unicode="&#x203a;" horiz-adv-x="333" 
d="M189 90h-34t-25 -0.5t-25.5 -1t-34.5 -1.5l-5 9q1 1 7 13t16 29.5t21 39t22 41.5t19.5 37l13.5 27q-9 18 -16 31.5t-17 31.5t-25.5 45.5t-40.5 72.5l4 11q19 1 33 1.5t26.5 1t25.5 1t31 1.5l8 -5q4 -9 8.5 -17t9.5 -17.5t11.5 -21t15.5 -26.5q3 -7 12.5 -23.5t20.5 -33.5
q12 -20 26 -45v-10q-8 -13 -20.5 -35.5t-27 -48.5t-29 -52.5t-25.5 -48.5z" />
    <glyph glyph-name="fi" unicode="&#xfb01;" horiz-adv-x="646" 
d="M574 634q-24 -3 -41.5 -5t-34.5 -4.5t-36 -5.5t-47 -8l-6 6l1 57q0 20 -0.5 38t-2.5 44l6 6q27 3 44.5 5.5t34 4.5t35.5 4.5t49 6.5l6 -6q-1 -24 -1.5 -39.5t-1 -29t-0.5 -29v-38.5zM588 1h-49.5t-39.5 -0.5t-38.5 -1.5t-45.5 -2l-6 7q2 50 4 108t2 140q0 57 -1 96.5
t-2.5 68.5t-3.5 50l-4 42l6 6q29 5 48.5 8t37 6t37.5 6.5t50 9.5l6 -8q-1 -50 -2 -100.5t-1 -123.5q0 -69 1 -118.5t2 -85t2.5 -60t3.5 -42.5zM254 0h-47.5h-38.5t-37.5 -1t-45.5 -2l-6 7q1 26 2 46t1.5 43t1 54.5t0.5 80.5q0 45 0.5 72.5t0.5 46v33.5v36l-76 -2l-6 6
q2 17 3.5 29t2.5 23.5t2 24t2 29.5l6 6l66 -2l-1 60q0 8 -0.5 17t0.5 18q0 14 3 34.5t13 42.5t30 42.5t55 34.5q24 10 49.5 12.5t51.5 2.5q22 0 36.5 -0.5t34.5 -2.5l5 -7q-2 -20 -3 -33.5t-2 -25t-2 -24t-2 -30.5l-7 -4q-17 2 -21.5 2h-9.5q-7 0 -15.5 -1t-16.5 -5.5
t-15.5 -13.5t-12.5 -24q-2 -5 -2.5 -10t-1 -12.5t-1 -19t-0.5 -30.5v-23q11 0 20 -0.5t19 -0.5t22 0.5t29 0.5l5 -6q-2 -18 -3.5 -30.5t-2.5 -24t-1.5 -23.5t-1.5 -28l-7 -7q-12 1 -20.5 1.5t-16.5 1t-17.5 1t-24.5 0.5q-2 -98 0.5 -201.5t9.5 -206.5z" />
    <glyph glyph-name="fl" unicode="&#xfb02;" horiz-adv-x="646" 
d="M584 1h-43t-35.5 -0.5t-38 -1.5t-50.5 -2l-6 7q1 19 2 41.5t2 53t1.5 71t0.5 94.5q0 87 -0.5 172t-3.5 171q-1 28 -2 50t-2.5 40t-3 34t-2.5 33l5 7q27 4 45.5 6.5t36 5t38 6t51.5 8.5l6 -6q-2 -61 -3.5 -121.5t-1.5 -132.5q0 -49 0.5 -97.5t1.5 -97.5q0 -52 0.5 -95
t1.5 -82.5t2.5 -77.5t3.5 -80zM254 0h-47.5h-38.5t-37.5 -1t-45.5 -2l-6 7q1 26 2 46t1.5 43t1 54.5t0.5 80.5q0 45 0.5 72.5t0.5 46v33.5v36l-76 -2l-6 6q2 17 3.5 29t2.5 23.5t2 24t2 29.5l6 6l65 -2l-1 60v17t1 18q0 14 3 34.5t13 42.5t30 42.5t55 34.5q24 10 49.5 12.5
t51.5 2.5q22 0 36.5 -0.5t34.5 -2.5l5 -7q-2 -20 -3 -33.5t-2 -25t-2 -24t-2 -30.5l-7 -4q-17 2 -21.5 2h-9.5q-7 0 -15.5 -1t-16.5 -5.5t-15.5 -13.5t-12.5 -24q-2 -5 -2.5 -10t-1 -12.5t-1 -19t-0.5 -30.5v-23q11 0 20 -0.5t18.5 -0.5t22 0.5t29.5 0.5l5 -6
q-2 -18 -3.5 -30.5t-2.5 -24t-1.5 -23.5t-1.5 -28l-7 -7q-12 1 -20.5 1.5t-16.5 1t-17.5 1t-24.5 0.5q-2 -98 0.5 -201.5t9.5 -206.5z" />
    <glyph glyph-name="endash" unicode="&#x2013;" horiz-adv-x="583" 
d="M549 340l-10 -116l-6 -7q-79 1 -134 2t-106 1.5t-109.5 0t-144.5 -0.5l-5 7l10 113l7 7q59 -1 118.5 -1.5t117.5 -0.5q65 0 128.5 0.5t127.5 1.5z" />
    <glyph glyph-name="dagger" unicode="&#x2020;" horiz-adv-x="542" 
d="M506 400l-157 2q0 -52 -0.5 -103.5t-0.5 -103.5q0 -51 0.5 -93.5t1 -84.5t2 -87t3.5 -102l-6 -8l-153 -3l-6 7q1 22 1.5 37.5t1 32t1 37t0.5 50.5q1 106 1 211t1 211l-166 -1l-6 7l4 104l7 8l162 -2v69t-0.5 52.5t-1.5 51t-3 64.5l7 8l148 1l5 -8q-2 -38 -2.5 -64t-1 -51
t0 -53.5t0.5 -70.5l163 2l6 -8l-5 -105z" />
    <glyph glyph-name="daggerdbl" unicode="&#x2021;" horiz-adv-x="542" 
d="M505 430q-33 0 -53.5 0.5t-36.5 0.5h-30.5h-35.5q0 -8 -0.5 -16t-0.5 -16q0 -23 -0.5 -46.5t-0.5 -46.5v-25.5t0.5 -39t0.5 -39v-25.5h41h36t38 0.5t49 0.5l5 -7q-2 -26 -2.5 -48.5t-2.5 -57.5l-7 -6q-33 0 -53.5 0.5t-36.5 0.5h-30.5h-36.5q0 -56 1 -112t5 -119l-6 -8
q-28 0 -46 -0.5t-33 -0.5t-31.5 -0.5t-42.5 -1.5l-6 7q4 60 5.5 118t1.5 118h-49.5h-36.5t-35 -0.5t-46 -0.5l-6 7q0 6 1 20.5t1.5 31t1.5 31.5t1 21l6 8q28 0 45.5 -0.5t33.5 -1t35 -0.5h49v98v30t-0.5 47t-0.5 48v32h-49.5h-36t-35 -0.5t-45.5 -0.5l-6 7q0 6 0.5 20.5
t1 31t1.5 32t1 21.5l7 7q27 0 44.5 -0.5t33.5 -0.5t35 -0.5t49 -0.5q0 7 0.5 28t0 49.5t-2 62.5t-3.5 67l7 9q24 0 40.5 -0.5t31.5 -0.5t32.5 0.5t43.5 1.5l6 -8q-2 -27 -3 -60.5t-1.5 -64.5t0 -54t0.5 -30h40.5h35.5t38.5 0.5t48.5 0.5l5 -7q-1 -26 -2 -48.5t-3 -57.5z" />
    <glyph glyph-name="periodcentered" unicode="&#xb7;" horiz-adv-x="250" 
d="M209 355l2 -141l-5 -5l-160 -5l-5 7l-2 140l5 7l160 3z" />
    <glyph glyph-name="periodcentered" unicode="&#x2219;" horiz-adv-x="250" 
d="M209 355l2 -141l-5 -5l-160 -5l-5 7l-2 140l5 7l160 3z" />
    <glyph glyph-name="paragraph" unicode="&#xb6;" horiz-adv-x="667" 
d="M549 706v-66h-35v-807h-71v807h-131v-807h-71v473q-28 7 -56.5 18t-55.5 43q-23 27 -33.5 61.5t-10.5 70.5q0 55 16.5 87.5t28.5 46.5q21 27 45 41.5t48 21.5t46 8.5t40 1.5h240z" />
    <glyph glyph-name="bullet" unicode="&#x2022;" horiz-adv-x="333" 
d="M309 353q0 -29 -9.5 -55t-27.5 -45.5t-44 -31t-58 -11.5q-33 0 -60 12t-46 32t-29.5 45.5t-10.5 53.5q0 29 11 54.5t30.5 45t46 31t56.5 11.5q31 0 57 -11t45 -30.5t29 -45t10 -55.5z" />
    <glyph glyph-name="quotesinglbase" unicode="&#x201a;" horiz-adv-x="250" 
d="M231 148l-14 -28t-12 -24.5t-13.5 -28.5t-17.5 -39q-14 -31 -28.5 -62.5t-28.5 -63.5l-6 -6l-113 -2l-4 6q14 44 23 73t15.5 54.5t12.5 51.5t14 64l6 7l162 5z" />
    <glyph glyph-name="quotedblbase" unicode="&#x201e;" horiz-adv-x="479" 
d="M255 149q-12 -24 -20.5 -42t-15.5 -32.5t-12.5 -27.5t-12.5 -28q-7 -16 -15 -33.5t-15 -34t-13 -29.5t-9 -20l-7 -6l-113 -2l-4 7q15 45 24 75.5t16 56t12.5 51t13.5 60.5l5 6l162 5zM467 149q-11 -23 -19.5 -41t-20 -43t-28.5 -63t-45 -101l-6 -5l-116 -2l-4 7
q13 41 22 69t15.5 53.5t13 53t15.5 67.5l5 6l164 5z" />
    <glyph glyph-name="quotedblright" unicode="&#x201d;" horiz-adv-x="479" 
d="M255 758q-12 -24 -20.5 -42t-15.5 -32t-12.5 -27t-12.5 -28q-15 -33 -23.5 -52.5t-14 -31.5t-8.5 -19t-6 -15l-7 -5l-113 -3l-4 7q15 45 24 75.5t16 56t12.5 51t13.5 60.5l5 6l162 6zM467 759q-11 -23 -19.5 -40.5t-19.5 -42.5t-28.5 -63.5t-45.5 -101.5l-6 -5l-116 -2
l-4 7q13 41 22 69t15.5 53.5t13 53t15.5 67.5l5 6l164 5z" />
    <glyph glyph-name="guillemotright" unicode="&#xbb;" horiz-adv-x="521" 
d="M189 92l-125 -5l-5 9q9 16 24 43t30.5 55.5t28.5 53t18 35.5q-6 15 -12 27t-16 30.5t-26 47.5t-43 77l4 10l116 5l7 -4q8 -15 14.5 -27.5t17 -31.5t27.5 -49t45 -79v-11q-24 -42 -39.5 -70t-26 -47.5t-18 -34t-14.5 -29.5zM382 90l-119 -3l-5 9q5 9 19 34.5t29.5 55
t30 57t20.5 40.5q-11 22 -25 48.5t-28 51.5t-26 46.5t-20 34.5l5 11l116 5l7 -5q11 -21 21.5 -40.5t21.5 -39.5q3 -6 12 -20.5t18.5 -31t18.5 -31.5t12 -21v-10q-11 -19 -25 -44t-28 -50.5t-27 -49.5t-21 -41z" />
    <glyph glyph-name="ellipsis" unicode="&#x2026;" horiz-adv-x="1000" 
d="M235 63q0 -29 -19 -49t-48 -20q-12 0 -24 4t-22 12.5t-16.5 21.5t-6.5 30q0 31 20.5 49.5t46.5 18.5q29 0 48.5 -18.5t20.5 -48.5zM568 63q0 -25 -17.5 -47t-50.5 -22q-24 0 -46 17.5t-22 49.5q0 31 20 50t49 19q26 0 46 -18t21 -49zM901 63q0 -25 -17.5 -47t-50.5 -22
q-24 0 -46 17.5t-22 49.5q0 31 20 50t49 19q26 0 46 -18t21 -49z" />
    <glyph glyph-name="perthousand" unicode="&#x2030;" horiz-adv-x="1312" 
d="M368 0h-26.5h-20t-22 -0.5t-31.5 -0.5l-6 8q37 80 72 160t70 161q36 86 71.5 170.5t68.5 171.5l8 7q20 0 32.5 0.5t22 0.5t19.5 0.5t25 0.5l4 -9q-20 -45 -45.5 -101t-58.5 -133.5t-76.5 -182t-99.5 -246.5zM1174 234q0 23 -2 47.5t-7.5 44.5t-17 33t-30.5 13
q-14 0 -24.5 -7.5t-17.5 -19.5q-7 -13 -11 -32.5t-5.5 -38t-2 -34t-0.5 -19.5q0 -83 15.5 -117t45.5 -34q12 0 22.5 6t18.5 23.5t12.5 49.5t3.5 85zM1291 229q0 -22 -1 -47.5t-7 -52t-17.5 -51t-31.5 -44t-49.5 -31t-72.5 -11.5q-42 0 -70.5 12t-48 31t-30.5 43t-16 49
t-6.5 48t-1.5 40q0 34 4 71.5t21 71.5q15 31 36 49.5t43 28t42.5 12t33.5 2.5q42 0 71.5 -12.5t48.5 -32t29.5 -44t15.5 -49t6 -47t1 -36.5zM778 234q0 23 -2 47.5t-7.5 44.5t-17 33t-30.5 13q-14 0 -24.5 -7.5t-17.5 -19.5q-7 -13 -11 -32.5t-5.5 -38t-2 -34t-0.5 -19.5
q0 -83 16 -117t45 -34q12 0 22.5 6t18.5 23.5t12.5 49.5t3.5 85zM895 229q0 -22 -1 -47.5t-7 -52t-17.5 -51t-31.5 -44t-50 -31t-72 -11.5t-70.5 12t-48 31t-30.5 43t-16 49t-6.5 48t-1.5 40q0 34 4 71.5t21 71.5q15 31 36 49.5t43 28t42.5 12t33.5 2.5q42 0 71.5 -12.5
t48.5 -32t29.5 -44t15.5 -49t6 -47t1 -36.5zM257 470q0 23 -2 47.5t-7.5 44.5t-17 33t-30.5 13q-14 0 -24.5 -7.5t-17.5 -19.5q-7 -13 -11 -32.5t-5.5 -38t-2 -34t-0.5 -19.5q0 -83 16 -117.5t45 -34.5q12 0 22.5 6t18.5 23.5t12.5 50t3.5 85.5zM374 464q0 -32 -3.5 -72.5
t-21.5 -77.5t-54 -62t-100 -25q-42 0 -70.5 12t-48 31t-30.5 43.5t-16 49.5t-6.5 48t-1.5 39q0 35 4 72.5t21 71.5q15 31 36 49.5t43 28t42.5 12t33.5 2.5q42 0 71.5 -12.5t48.5 -32.5t29.5 -44.5t15.5 -49t6 -47t1 -36.5z" />
    <glyph glyph-name="questiondown" unicode="&#xbf;" horiz-adv-x="458" 
d="M184 532q25 0 41.5 0.5t31.5 1t31 1t39 2.5l5 -7q-2 -17 -4.5 -30t-7.5 -25.5t-14 -27t-22 -33.5l-35 -50q-17 -26 -34 -59t-17 -77q0 -32 10.5 -52.5t26 -32.5t33.5 -17t33 -5q47 0 77 16t51 32l9 -6l-5 -126l-6 -8q-21 -7 -40.5 -12.5t-39 -10t-41 -7t-48.5 -2.5
q-35 0 -64.5 5t-54.5 16q-32 15 -53 37t-33.5 46t-17.5 48.5t-5 45.5q0 30 6.5 56t16 48.5t21 41.5t22.5 35l36 53q12 17 19 27.5t11.5 20t8 20t7.5 27.5zM175 620l-2 141l5 6l160 4l5 -6l3 -140l-5 -7l-161 -3z" />
    <glyph glyph-name="grave" unicode="`" horiz-adv-x="292" 
d="M198 767q7 -25 12.5 -43t11.5 -35.5t14 -37.5t21 -50l-5 -7h-108l-7 4q-16 27 -27.5 46t-22 36.5t-23 36.5t-30.5 46l4 8h154z" />
    <glyph glyph-name="acute" unicode="&#xb4;" horiz-adv-x="292" 
d="M259 765q-12 -18 -26 -39.5t-28.5 -44t-28 -44.5t-25.5 -41l-7 -4h-108l-4 6q11 26 19 44.5t14.5 36t12.5 37.5t15 49l5 5l158 2z" />
    <glyph glyph-name="circumflex" unicode="&#x2c6;" horiz-adv-x="292" 
d="M246 767q12 -27 20 -45.5t16 -35.5t17 -36t24 -48l-3 -6l-135 -4l-6 5l-42 105l-44 -103l-6 -5h-114l-3 6q16 31 27 51.5t19.5 38t16.5 35.5t19 42l6 5h182z" />
    <glyph glyph-name="tilde" unicode="&#x2dc;" horiz-adv-x="292" 
d="M318 755v-112l-4 -8q-17 -14 -39 -26.5t-55 -12.5q-17 0 -29.5 4t-27.5 9l-30 11q-17 6 -34 11t-34 5q-26 0 -47 -11.5t-38 -22.5l-6 3l1 105l4 8q17 13 35 23.5t53 10.5q15 0 27 -2.5t26 -7.5l39 -14q17 -5 32.5 -10t32.5 -5q27 0 48.5 15.5t38.5 29.5z" />
    <glyph glyph-name="macron" unicode="&#xaf;" horiz-adv-x="292" 
d="M323 709q-2 -15 -2.5 -24.5t-1.5 -18.5t-1.5 -19t-1.5 -25l-6 -7q-20 0 -34 0.5t-36 0.5h-57.5h-97.5h-48t-63 -1l-5 6q3 30 4 46.5t3 40.5l6 6q53 -1 104.5 -1h104.5q45 0 73 0.5t54 1.5z" />
    <glyph glyph-name="macron" unicode="&#x2c9;" horiz-adv-x="292" 
d="M323 709q-2 -15 -2.5 -24.5t-1.5 -18.5t-1.5 -19t-1.5 -25l-6 -7q-20 0 -34 0.5t-36 0.5h-57.5h-97.5h-48t-63 -1l-5 6q3 30 4 46.5t3 40.5l6 6q53 -1 104.5 -1h104.5q45 0 73 0.5t54 1.5z" />
    <glyph glyph-name="breve" unicode="&#x2d8;" horiz-adv-x="292" 
d="M311 758q-2 -18 -6.5 -43t-21.5 -52q-16 -24 -35 -37.5t-39 -19.5t-38.5 -7.5t-33.5 -1.5q-57 0 -88.5 19t-46.5 44t-18 50.5t-3 38.5l5 7q19 0 32 1t24 1.5t22 1.5t27 3l6 -4q0 -8 1 -18t6 -19t14.5 -15.5t27.5 -6.5t28 6.5t15 15.5t7 17.5t2 12.5l6 5q18 0 31 0.5
t23.5 1t21.5 1.5t26 2z" />
    <glyph glyph-name="dotaccent" unicode="&#x2d9;" horiz-adv-x="292" 
d="M220 740v-38.5v-29.5t0.5 -30.5t0.5 -40.5l-5 -6q-24 -1 -40 -1.5t-30 -1.5t-29 -2t-38 -2l-6 6v39v28.5t-0.5 29t-1.5 39.5l5 6q25 1 40.5 2t29 1.5t29 1.5t40.5 3z" />
    <glyph glyph-name="dieresis" unicode="&#xa8;" horiz-adv-x="292" 
d="M111 737v-135l-6 -6l-137 -8l-5 6l-3 136l5 6l141 7zM333 739v-138l-5 -6l-136 -8l-6 6l-2 137l5 6l139 8z" />
    <glyph glyph-name="ring" unicode="&#x2da;" horiz-adv-x="292" 
d="M183 698q-1 21 -6 32t-11.5 16t-12.5 6t-8 1q-5 0 -12 -2.5t-13 -9t-10.5 -18t-4.5 -30.5q0 -32 13 -46.5t27 -14.5q16 0 28 16t10 50zM273 698q2 -59 -35 -91t-97 -32q-30 0 -53 9t-38.5 24.5t-23.5 36.5t-8 44q0 22 7.5 44t23 39.5t40 28.5t59.5 11q36 0 59.5 -11
t38 -27.5t20.5 -36.5t7 -39z" />
    <glyph glyph-name="cedilla" unicode="&#xb8;" horiz-adv-x="292" 
d="M237 -41l-12 -36t-9.5 -29.5t-9.5 -31.5t-12 -42l-6 -5h-130l-3 5l66 141l5 4h108z" />
    <glyph glyph-name="hungarumlaut" unicode="&#x2dd;" horiz-adv-x="292" 
d="M363 765q-17 -26 -29 -44.5t-23.5 -36.5t-24.5 -38.5t-31 -49.5l-7 -4h-108l-4 6q19 41 33.5 82.5t26.5 84.5l6 5h47.5h34.5t32.5 0.5t42.5 1.5zM157 765q-17 -26 -29 -44.5t-23.5 -36.5t-24.5 -38.5t-31 -49.5l-7 -4h-108l-4 6q19 41 33.5 82.5t26.5 84.5l6 5h47.5h34.5
t32.5 0.5t42.5 1.5z" />
    <glyph glyph-name="ogonek" unicode="&#x2db;" horiz-adv-x="292" 
d="M224 -1q-13 -3 -26 -7t-27 -13q-19 -11 -26 -24.5t-7 -24.5q0 -16 12 -27t33 -11q20 0 36 7.5t30 15.5l7 -4q-2 -20 -2.5 -32.5t-2.5 -38.5l-5 -7q-29 -14 -54 -19t-45 -5q-54 0 -83 26t-29 64q0 24 12 46.5t32 36.5q15 11 39 19.5t63 20.5z" />
    <glyph glyph-name="caron" unicode="&#x2c7;" horiz-adv-x="292" 
d="M47 598q-13 29 -21.5 48t-16.5 36t-17 35.5t-22 45.5l3 6l135 4l5 -5l43 -105l44 103l6 5h114l3 -5q-18 -34 -29.5 -56.5t-20 -40t-16 -34t-16.5 -37.5l-7 -5h-182z" />
    <glyph glyph-name="emdash" unicode="&#x2014;" horiz-adv-x="771" 
d="M737 342l-3.5 -35t-2.5 -28t-2 -25t-2 -27l-6 -7q-80 1 -161 1h-178h-341l-6 7q2 18 3 31t2 25t2 25.5t3 31.5l8 7q37 -1 70 -1.5t75 -1t100 -0.5h144q63 0 106 0.5t74.5 1t55.5 1t51 1.5z" />
    <glyph glyph-name="AE" unicode="&#xc6;" horiz-adv-x="917" 
d="M435 317q1 46 2 76t1.5 56.5t0.5 55.5v72h-50l-97 -260h143zM872 6l-7 -6h-430l-6 5q1 32 2 54t1.5 42t1 41.5t0.5 52.5h-186q-11 -30 -18 -50.5t-13 -40t-13.5 -42t-17.5 -56.5l-7 -6l-173 -3l-4 8q15 36 36 88t44.5 110t47 116.5t43.5 106.5q20 50 34 84.5t25.5 64.5
t22.5 60t26 70l8 4q42 0 92.5 -0.5t102.5 -1.5q51 0 98.5 -0.5t82.5 -0.5h55.5t47 0.5t46 1t52.5 1.5l5 -6l-7 -122l-6 -6l-252 2l-2 -156h72.5t55 1t50 1.5t57.5 2.5l6 -6l-7 -114l-7 -6q-39 1 -65.5 1.5t-50 0.5t-49 -0.5t-63.5 -0.5l2 -174q52 1 85.5 1.5t61 1.5t54.5 2
t67 3l6 -6z" />
    <glyph glyph-name="ordfeminine" unicode="&#xaa;" horiz-adv-x="375" 
d="M223 526q-49 -5 -69.5 -17.5t-20.5 -35.5q0 -19 11.5 -28t28.5 -9q14 0 26.5 5t23.5 11v74zM333 505q0 -28 0.5 -54t2.5 -62q0 -3 1 -13.5t1 -11.5l-5 -5h-27h-27q-3 0 -10 -0.5t-15 -1t-15 -0.5h-10l-5 5v20q-11 -8 -32 -19.5t-55 -11.5q-54 0 -85 33t-31 81q0 38 18 62
t46.5 38.5t64 21.5t71.5 11q0 6 -1 12t-5.5 11t-13.5 8.5t-26 3.5q-22 0 -46 -5t-44 -13q-2 -1 -4.5 -1.5t-6.5 -2.5t-9 -4l-7 4q0 4 0.5 14t1 22t1 22.5t0.5 14.5l5 5q19 7 51 15t79 8q53 0 81.5 -14t41.5 -36.5t14.5 -51t0.5 -57.5z" />
    <glyph glyph-name="Oslash" unicode="&#xd8;" horiz-adv-x="750" 
d="M488 546q-16 23 -42.5 40t-70.5 17q-30 0 -53.5 -10t-37.5 -23q-19 -18 -31 -43.5t-18.5 -54t-9 -58t-2.5 -54.5q0 -21 1.5 -40t3.5 -42zM252 182q6 -9 15 -21t23 -23t35 -19t50 -8q46 0 73.5 20.5t42.5 47.5t20 54.5t7 42.5q2 21 3.5 42t1.5 43q0 26 -2 47.5t-4 46.5z
M733 673q-5 -4 -16 -15l-24 -24l-24.5 -24.5t-16.5 -15.5q8 -14 17.5 -33t18 -45.5t14 -61.5t5.5 -80q0 -14 -0.5 -29t-1.5 -29q-2 -20 -6 -45.5t-11.5 -53.5t-20.5 -57t-32 -56q-15 -21 -36 -42t-52 -38.5t-72.5 -28.5t-96.5 -11q-7 0 -26 1t-44 4.5t-53 11t-53 21.5
q-20 11 -33.5 21.5t-25.5 21.5q-10 -11 -27 -29.5t-46 -51.5h-8l-61 59v8q23 24 46.5 46.5t40.5 38.5q-7 13 -15.5 29.5t-15.5 41t-11.5 58.5t-4.5 81q0 54 7.5 97t20 77.5t30.5 61.5t39 49q33 33 69.5 51.5t70 27t60 10t38.5 1.5q49 0 84.5 -7t60.5 -17t42 -21t28 -20
q4 4 14.5 15.5t22 24.5t22 24.5t14.5 16.5l7 1l62 -58v-7z" />
    <glyph glyph-name="OE" unicode="&#x152;" horiz-adv-x="958" 
d="M247 238q15 -40 39 -61.5t49.5 -31.5t49.5 -12t38 -2q11 0 21.5 0.5t21.5 0.5q1 49 2.5 86.5t2 69.5t1 62t0.5 63t-0.5 73t-0.5 92q-11 1 -21.5 1.5t-22.5 0.5q-18 0 -42.5 -2.5t-49.5 -13.5t-48 -33t-38 -62q-8 -19 -13.5 -50.5t-5.5 -73.5q0 -27 3.5 -54t13.5 -53z
M879 307l-7 -5h-228l2 -172q51 0 84 0.5t61 1.5t56 2.5t69 3.5l5 -6l-8 -126l-5 -6h-235l-221 -4q-75 0 -140 6.5t-119 36.5q-30 17 -61.5 47.5t-53.5 75.5q-21 44 -28.5 93.5t-7.5 87.5q0 33 4 69t14.5 71.5t27.5 68.5t43 60q30 32 61.5 51t64 29t66 13t67.5 3
q19 0 37 -0.5t37 -1.5h171l272 3l6 -6l-8 -122l-6 -5l-255 2v-154l237 5l5 -5z" />
    <glyph glyph-name="ordmasculine" unicode="&#xba;" horiz-adv-x="396" 
d="M256 533q0 16 -1.5 34.5t-7 34.5t-17 27t-31.5 11q-22 0 -34 -11.5t-17.5 -28t-6.5 -35t-1 -33.5q0 -19 1.5 -38.5t7.5 -35t17.5 -25.5t31.5 -10q35 0 46.5 31.5t11.5 78.5zM372 531q1 -83 -40.5 -132t-134.5 -49q-17 0 -48.5 3.5t-59.5 21.5q-37 24 -51.5 66t-14.5 87
q0 53 14.5 88.5t39 56.5t57 30t69.5 9q48 0 80 -14t52 -38.5t28.5 -57.5t8.5 -71z" />
    <glyph glyph-name="ae" unicode="&#xe6;" horiz-adv-x="854" 
d="M349 151q-4 12 -6.5 21t-4 17t-2.5 17.5t-2 23.5h-29t-22 -1q-8 0 -24.5 -1.5t-32.5 -7.5t-28 -18.5t-12 -34.5q0 -9 3.5 -18.5t11.5 -18t21.5 -14t33.5 -5.5q35 0 55.5 12.5t37.5 27.5zM666 333q-2 15 -4 33t-13 33q-1 2 -5.5 7.5t-13 11.5t-21 11t-29.5 5q-18 0 -33 -7
q-18 -8 -28.5 -19.5t-16 -24.5t-8 -26.5t-3.5 -25.5zM777 17q-20 -5 -40.5 -10t-40.5 -9q-48 -9 -97 -9q-38 0 -76 6.5t-72 25.5q-17 10 -27 18.5t-21 19.5q-12 -11 -28 -23t-38 -23t-50 -18t-65 -7q-59 0 -96.5 19t-58.5 46t-29 56t-8 49q0 28 6.5 48.5t15.5 35.5
t18.5 24.5t15.5 14.5q23 19 54.5 29.5t65.5 15t67 5.5t60 1q0 19 -1.5 38t-10 33t-26.5 23t-51 9q-21 0 -46 -5q-20 -3 -35.5 -7t-29 -8.5t-26 -10t-26.5 -11.5l-7 4l6 102l6 6q32 11 79 24t113 13q31 0 53 -4t38.5 -11.5t30 -18t28.5 -23.5q14 11 29 21t33.5 18t43 13
t57.5 5q32 0 67.5 -8t64.5 -27q33 -21 52 -51t29 -65.5t12.5 -74.5t3.5 -79l-7 -7h-320q4 -27 13.5 -54.5t41.5 -49.5q25 -16 51.5 -19t37.5 -3q50 0 84 12t66 26l7 -5l-6 -59l-5 -54z" />
    <glyph glyph-name="dotlessi" unicode="&#x131;" horiz-adv-x="292" 
d="M234 0h-51h-39t-37 -1t-46 -2l-6 7q1 31 2 59t2 57t1.5 62t0.5 74q0 53 -0.5 88.5t-2 62.5t-3.5 50t-5 52l6 6l172 30l7 -8l-2 -128t-1 -128q0 -52 0.5 -90.5t2 -69.5t3 -58t3.5 -56z" />
    <glyph glyph-name="oslash" unicode="&#xf8;" 
d="M379 383q-2 6 -7 15t-13 17.5t-21 15t-32 6.5q-38 0 -58 -20.5t-28.5 -51t-9 -67t0.5 -69.5zM223 158q11 -30 30.5 -47t49.5 -17q33 0 51.5 18t27.5 44t11 54.5t2 48.5q0 14 -0.5 27.5t-1.5 27.5zM68 103q-8 17 -14 32t-10.5 32.5t-6.5 39t-2 51.5q0 21 2 48.5t9.5 57.5
t23 59.5t43.5 54.5q9 8 25 19t40 20.5t56 16.5t73 7t70.5 -5.5t50.5 -13.5t36 -18t27 -19l13.5 13.5l11.5 11.5l14 14t22 21h7l39 -43v-7l-68 -61q6 -10 12.5 -24t12.5 -34t10 -48t4 -65q0 -21 -2 -48t-9.5 -56.5t-23 -58.5t-42.5 -54q-34 -31 -82 -44.5t-108 -13.5
q-45 0 -76.5 5.5t-53.5 14.5t-37.5 20t-28.5 22l-63 -58h-8l-38 42v8z" />
    <glyph glyph-name="oe" unicode="&#x153;" horiz-adv-x="917" 
d="M392 267v23.5t-2 32t-6.5 35.5t-12.5 33q-11 21 -29.5 33t-41.5 12q-11 0 -21 -3q-14 -4 -26.5 -13t-23 -26.5t-16.5 -45.5t-6 -70q0 -20 2 -50.5t11 -60t28 -50.5t53 -21q24 0 39.5 11.5t22.5 19.5q12 16 20 47t9 93zM724 332q-1 12 -2.5 25t-6 25.5t-13 24t-23.5 19.5
q-18 9 -39 9q-26 0 -46 -13q-27 -18 -34 -42.5t-9 -47.5h173zM858 140l-10 -110l-7 -7q-39 -18 -80.5 -26.5t-84.5 -8.5q-46 0 -78 6t-54.5 16t-38 22.5t-30.5 25.5q-10 -10 -24.5 -22t-36 -22.5t-51.5 -18t-72 -7.5q-66 0 -114 19.5t-79.5 55t-47 84.5t-15.5 108
q0 47 9 92.5t28 77.5q19 33 45.5 55.5t57 36t63.5 19t66 5.5q40 0 68.5 -7t49 -17.5t33 -21.5t21.5 -20q12 11 26.5 23t34 21.5t45.5 16t61 6.5q45 0 88.5 -12.5t75.5 -43.5q25 -24 40 -53t22.5 -61.5t10 -67t3.5 -69.5l-6 -5l-328 -3q3 -17 9.5 -37.5t22 -39t44.5 -31
t79 -12.5q49 0 82 11.5t66 26.5z" />
    <glyph glyph-name="germandbls" unicode="&#xdf;" horiz-adv-x="625" 
d="M230 0h-50t-37 -0.5t-35 -1t-43 -1.5l-6 6q1 62 1.5 106.5t1 84.5t0.5 82.5v101.5l-2 117q0 46 2.5 93t18.5 84q15 33 41 55.5t58 37t69 20.5t74 6q39 0 66 -4.5t45 -10.5t29 -13t17 -11q21 -15 33.5 -33t19 -35.5t9 -33.5t2.5 -27q0 -40 -15.5 -69.5t-35.5 -60.5
l-17 -24q-8 -10 -14.5 -19.5t-6.5 -20.5t9 -24.5t34 -39.5l29 -29q11 -11 24.5 -26.5t25 -35t19.5 -44t8 -54.5q0 -35 -14.5 -67.5t-43 -58.5t-70 -41.5t-94.5 -15.5q-25 0 -44.5 3t-40.5 8l-8 7v104l10 6q11 -6 23 -11t29 -5q20 0 35 6.5t25 16t15 21.5t5 23q0 13 -6 26
t-15 25.5t-20 24t-21 21.5l-26 28q-17 17 -34 38.5t-17 46.5q0 20 9.5 35.5t20.5 29.5l22 27q19 26 32.5 51t13.5 63q0 26 -6.5 44.5t-17.5 30t-24.5 16.5t-26.5 5q-18 0 -30.5 -6.5t-21.5 -16.5t-14.5 -20.5t-7.5 -17.5q-4 -12 -7 -37.5t-3 -66.5q0 -130 1.5 -256.5
t4.5 -256.5z" />
    <glyph glyph-name="logicalnot" unicode="&#xac;" horiz-adv-x="667" 
d="M564 242h-564v103h564h103v-345h-103v242z" />
    <glyph glyph-name="mu" unicode="&#xb5;" 
d="M232 527q0 -39 -0.5 -78.5t-1.5 -78.5q0 -30 -0.5 -47.5t-1 -28t-0.5 -17v-12.5q0 -28 1 -54.5t8 -47t22 -33t43 -12.5t43.5 10.5t22.5 26t8 32t1 28.5q0 32 -0.5 72t-1 81.5t-2 81.5t-3.5 71l6 7q30 1 49.5 2t36.5 1.5t34.5 1.5t42.5 3l7 -9q0 -31 -0.5 -58t-1 -55.5
t-1 -61t-0.5 -73.5q0 -56 0.5 -97.5t1.5 -73t2 -55.5t3 -46l-6 -7h-47.5t-35 -0.5t-34 -1t-43.5 -1.5l-7 6l1 38q-3 -5 -8.5 -12t-14.5 -13.5t-22 -11t-32 -4.5q-51 0 -73 41l2 -90q0 -24 0.5 -43t1.5 -40t1.5 -47t2.5 -63l-6 -6q-29 0 -48 0.5t-36.5 0t-36 -1t-45.5 -1.5
l-6 5q2 62 3 111t1.5 95t0 94t-0.5 108v145q-1 52 -1.5 84t-1 53.5t-1.5 38t-3 37.5l6 7q29 1 48.5 1.5t36 1.5t34.5 2t44 3z" />
    <glyph glyph-name="mu" unicode="&#x3bc;" 
d="M232 527q0 -39 -0.5 -78.5t-1.5 -78.5q0 -30 -0.5 -47.5t-1 -28t-0.5 -17v-12.5q0 -28 1 -54.5t8 -47t22 -33t43 -12.5t43.5 10.5t22.5 26t8 32t1 28.5q0 32 -0.5 72t-1 81.5t-2 81.5t-3.5 71l6 7q30 1 49.5 2t36.5 1.5t34.5 1.5t42.5 3l7 -9q0 -31 -0.5 -58t-1 -55.5
t-1 -61t-0.5 -73.5q0 -56 0.5 -97.5t1.5 -73t2 -55.5t3 -46l-6 -7h-47.5t-35 -0.5t-34 -1t-43.5 -1.5l-7 6l1 38q-3 -5 -8.5 -12t-14.5 -13.5t-22 -11t-32 -4.5q-51 0 -73 41l2 -90q0 -24 0.5 -43t1.5 -40t1.5 -47t2.5 -63l-6 -6q-29 0 -48 0.5t-36.5 0t-36 -1t-45.5 -1.5
l-6 5q2 62 3 111t1.5 95t0 94t-0.5 108v145q-1 52 -1.5 84t-1 53.5t-1.5 38t-3 37.5l6 7q29 1 48.5 1.5t36 1.5t34.5 2t44 3z" />
    <glyph glyph-name="trademark" unicode="&#x2122;" horiz-adv-x="687" 
d="M184 374h-71v274h-105v58h278v-58h-102v-274zM655 374h-69l3 191l4 68l-15 -55l-62 -204h-63l-64 205l-15 53l5 -67l4 -191h-69v332h92l80 -251l76 251h93v-332z" />
    <glyph glyph-name="plusminus" unicode="&#xb1;" horiz-adv-x="667" 
d="M625 0h-584v103h584v-103zM386 148h-103v226h-242v103h242v225h103v-225h239v-103h-239v-226z" />
    <glyph glyph-name="divide" unicode="&#xf7;" horiz-adv-x="667" 
d="M666 239h-666v103h666v-103zM402 451q0 -24 -17.5 -45.5t-51.5 -21.5q-27 0 -47.5 19t-20.5 49q0 11 4 23t12.5 22t21.5 16.5t31 6.5q31 0 49.5 -21t18.5 -48zM402 128q0 -12 -4.5 -23.5t-13 -21.5t-21 -16t-29.5 -6q-29 0 -49 19t-20 48q0 24 17.5 46.5t50.5 22.5
q31 0 50 -20.5t19 -48.5z" />
    <glyph glyph-name="degree" unicode="&#xb0;" horiz-adv-x="354" 
d="M106 583q0 -29 21 -50t50 -21t50 21t21 50t-21 50t-50 21t-50 -21t-21 -50zM5 583q0 36 13.5 67t37 54.5t54.5 37t67 13.5t67 -13.5t54.5 -37t37 -54.5t13.5 -67t-13.5 -67t-37 -54.5t-54.5 -37t-67 -13.5t-67 13.5t-54.5 37t-37 54.5t-13.5 67z" />
    <glyph glyph-name="registered" unicode="&#xae;" horiz-adv-x="833" 
d="M741 352q0 66 -24 125.5t-67.5 103.5t-103 70t-128.5 26t-128 -25.5t-103 -69.5t-69 -103t-25 -126q0 -68 25.5 -127.5t69.5 -103t103 -68.5t126 -25q69 0 128 25.5t102.5 69t68.5 102.5t25 126zM773 351q0 -74 -28 -138.5t-76 -112.5t-113 -75.5t-140 -27.5
q-70 0 -134 26t-113 73t-78.5 112.5t-29.5 144.5q0 77 28.5 142t77 112.5t113 74.5t136.5 27q78 0 143.5 -28.5t113 -77.5t74 -114t26.5 -138zM353 402h57q13 0 29 0.5t29.5 6t23 17t9.5 32.5q0 10 -5.5 24t-22.5 22l-10.5 3.5t-12.5 2t-20.5 0.5h-33.5h-43v-108zM413 583
q35 -1 59.5 -2t46.5 -9q42 -14 59.5 -45.5t17.5 -62.5q0 -30 -11 -49.5t-26 -31.5t-29 -18t-20 -8q10 -5 19 -10.5t16 -15t12.5 -24.5t9.5 -39q7 -42 13.5 -75t23.5 -63h-109q-11 21 -15.5 46t-8.5 52q-5 31 -9 50t-13.5 29.5t-26.5 14t-46 4.5h-23v-196h-95v453h155z" />
    <glyph glyph-name="copyright" unicode="&#xa9;" horiz-adv-x="833" 
d="M617 199q-10 -11 -25.5 -25.5t-38.5 -28.5t-54.5 -23.5t-73.5 -9.5q-57 0 -102.5 19t-76.5 52t-47.5 77t-16.5 94q0 51 17.5 95.5t49.5 77.5t76.5 52t99.5 19q40 0 71 -9t54 -22.5t39 -29t28 -27.5l-71 -68q-8 8 -19 18.5t-25.5 19.5t-34 15t-43.5 6q-32 0 -58 -11
t-45 -30.5t-29 -46.5t-10 -58q0 -34 11.5 -61t31 -46t46 -29t55.5 -10q25 0 44.5 6t33.5 14.5t24.5 18t17.5 17.5zM741 352q0 66 -23.5 125t-66.5 103.5t-102.5 70.5t-129.5 26q-68 0 -127.5 -25t-103.5 -69t-69.5 -103t-25.5 -128q0 -66 25 -124.5t68.5 -102.5t103 -70
t128.5 -26q64 0 122.5 23.5t102.5 66.5t70.5 102.5t27.5 130.5zM773 352q0 -53 -15.5 -103.5t-41.5 -92.5q-21 -33 -52 -62t-69.5 -50.5t-83.5 -34t-95 -12.5q-69 0 -133 26t-113.5 73t-79 112.5t-29.5 144.5q0 75 28 140t76 113t113 75.5t140 27.5q74 0 139 -27t113 -75
t75.5 -113.5t27.5 -141.5z" />
    <glyph glyph-name="Aacute" unicode="&#xc1;" horiz-adv-x="667" 
d="M491 901q-13 -17 -25 -32.5t-25.5 -33t-29 -38t-35.5 -46.5l-6 -4h-101l-4 6q12 28 19 46.5t12.5 34t10.5 31t11 37.5l5 5h166zM405 309l-37 156l-30 130l-35 -117l-50 -169h152zM471 703q14 -55 25.5 -98t22.5 -84.5t24 -87t29.5 -104l38.5 -136.5t52 -185l-5 -8h-51
h-39t-37.5 -1t-46.5 -2l-7 6l-43 185h-216l-49 -182l-7 -6h-156l-4 7q37 105 64.5 186t49 143.5t37.5 111.5t29.5 90.5t26 80.5t25.5 81l7 6h66.5t49 0.5t47 1t60.5 1.5z" />
    <glyph glyph-name="Acircumflex" unicode="&#xc2;" horiz-adv-x="667" 
d="M431 902q10 -20 18.5 -36.5t17.5 -32.5t20 -34t26 -42l-4 -8l-135 -3l-6 6l-42 81q-11 -19 -21.5 -35.5t-26.5 -44.5l-6 -6h-118l-4 7q15 24 25.5 40.5t19 31.5t17.5 32t21 43l7 6h186zM405 309l-37 156l-30 130l-35 -117l-50 -169h152zM471 703q14 -55 25.5 -98
t22.5 -84.5t24 -87t29.5 -104l38.5 -136.5t52 -185l-5 -8h-51h-39t-37.5 -1t-46.5 -2l-7 6l-43 185h-216l-49 -182l-7 -6h-156l-4 7q37 105 64.5 186t49 143.5t37.5 111.5t29.5 90.5t26 80.5t25.5 81l7 6h66.5t49 0.5t47 1t60.5 1.5z" />
    <glyph glyph-name="Adieresis" unicode="&#xc4;" horiz-adv-x="667" 
d="M304 890l-2 -127l-6 -7l-140 -2l-5 6v127l6 7l142 2zM547 890l-2 -129l-5 -6l-138 -3l-6 6v128l5 7l140 3zM405 309l-37 156l-30 130l-35 -117l-50 -169h152zM471 703q14 -55 25.5 -98t22.5 -84.5t24 -87t29.5 -104l38.5 -136.5t52 -185l-5 -8h-51h-39t-37.5 -1t-46.5 -2
l-7 6l-43 185h-216l-49 -182l-7 -6h-156l-4 7q37 105 64.5 186t49 143.5t37.5 111.5t29.5 90.5t26 80.5t25.5 81l7 6h66.5t49 0.5t47 1t60.5 1.5z" />
    <glyph glyph-name="Agrave" unicode="&#xc0;" horiz-adv-x="667" 
d="M357 903q6 -23 10.5 -39.5t9.5 -32.5t11.5 -33.5t16.5 -43.5l-4 -6l-102 -1l-7 5l-111 148l4 7h166zM405 309l-37 156l-30 130l-35 -117l-50 -169h152zM471 703q14 -55 25.5 -98t22.5 -84.5t24 -87t29.5 -104l38.5 -136.5t52 -185l-5 -8h-51h-39t-37.5 -1t-46.5 -2l-7 6
l-43 185h-216l-49 -182l-7 -6h-156l-4 7q37 105 64.5 186t49 143.5t37.5 111.5t29.5 90.5t26 80.5t25.5 81l7 6h66.5t49 0.5t47 1t60.5 1.5z" />
    <glyph glyph-name="Aring" unicode="&#xc5;" horiz-adv-x="667" 
d="M387 853q-1 21 -6 32t-11.5 16t-12.5 6t-8 1q-5 0 -12 -2.5t-13 -9t-10.5 -18t-4.5 -30.5q0 -32 13 -46.5t27 -14.5q16 0 28 16t10 50zM477 853q2 -59 -35 -91t-97 -32q-30 0 -53 9t-38.5 24.5t-23.5 36.5t-8 44q0 22 7.5 44t23 39.5t40 28.5t59.5 11q36 0 59.5 -11
t38 -27.5t20.5 -36.5t7 -39zM405 309l-37 156l-30 130l-35 -117l-50 -169h152zM471 703q14 -55 25.5 -98t22.5 -84.5t24 -87t29.5 -104l38.5 -136.5t52 -185l-5 -8h-51h-39t-37.5 -1t-46.5 -2l-7 6l-43 185h-216l-49 -182l-7 -6h-156l-4 7q37 105 64.5 186t49 143.5
t37.5 111.5t29.5 90.5t26 80.5t25.5 81l7 6h66.5t49 0.5t47 1t60.5 1.5z" />
    <glyph glyph-name="Atilde" unicode="&#xc3;" horiz-adv-x="667" 
d="M502 909v-112l-4 -8q-17 -14 -39 -26.5t-55 -12.5q-17 0 -29.5 4t-27.5 9l-30 11l-34 10t-34 5q-26 0 -47 -11t-38 -22l-6 2l1 106l4 7q17 13 35 23.5t53 10.5q15 0 27 -2.5t26 -7.5l39 -13q17 -6 32.5 -10.5t32.5 -4.5q27 0 48.5 15.5t38.5 29.5zM405 309l-37 156
l-30 130l-35 -117l-50 -169h152zM471 703q14 -55 25.5 -98t22.5 -84.5t24 -87t29.5 -104l38.5 -136.5t52 -185l-5 -8h-51h-39t-37.5 -1t-46.5 -2l-7 6l-43 185h-216l-49 -182l-7 -6h-156l-4 7q37 105 64.5 186t49 143.5t37.5 111.5t29.5 90.5t26 80.5t25.5 81l7 6h66.5
t49 0.5t47 1t60.5 1.5z" />
    <glyph glyph-name="Ccedilla" unicode="&#xc7;" 
d="M586 174q-2 -26 -2.5 -42t-1.5 -31t-1.5 -31.5t-1.5 -43.5l-5 -7q-24 -10 -65.5 -22t-107.5 -12q-80 0 -146 24.5t-113.5 71t-73.5 113.5t-26 151q0 71 19.5 139t61.5 120.5t108 84.5t159 32q69 0 115.5 -13t70.5 -23l5 -6q-2 -25 -3.5 -41t-2.5 -29.5t-2 -28.5t-2 -38
l-8 -3q-7 5 -19 13.5t-29.5 16.5t-40.5 13.5t-52 5.5q-57 0 -94 -22t-59.5 -56.5t-31.5 -76.5t-9 -82q0 -54 14.5 -97t40.5 -72t61.5 -44.5t77.5 -15.5q32 0 58 7t46 16.5t33.5 19t19.5 14.5zM433 -42q-7 -21 -12 -35.5t-9.5 -28.5t-10 -31.5t-12.5 -42.5l-6 -6
q-43 1 -72.5 0.5t-57.5 -0.5l-3 6q12 25 20 42t15 31.5t14 30t17 36.5l6 5q20 0 33 -0.5t23.5 -0.5h22h29.5z" />
    <glyph glyph-name="Eacute" unicode="&#xc9;" horiz-adv-x="562" 
d="M439 901q-13 -17 -25 -32.5t-25.5 -33t-29 -38t-35.5 -46.5l-6 -4h-101l-4 6q12 28 19 46.5t12.5 34t10.5 31t11 37.5l5 5h166zM525 128l-7 -122l-8 -6h-440l-5 4q1 39 2 72.5t1.5 67t1 70.5t0.5 84q0 100 -0.5 162t-1.5 103t-2.5 71t-3.5 66l6 6h439l5 -4l-7 -116l-5 -6
q-45 1 -75 1.5t-56.5 1t-55 0.5h-70.5v-159l242 4l5 -6l-6 -113l-7 -6h-234l2 -175h80t60.5 1t59 2.5t74.5 3.5z" />
    <glyph glyph-name="Ecircumflex" unicode="&#xca;" horiz-adv-x="562" 
d="M379 902q10 -20 18.5 -36.5t17.5 -32.5t20 -34t26 -42l-4 -8l-135 -3l-6 6l-42 81q-11 -19 -21.5 -35.5t-26.5 -44.5l-6 -6h-118l-4 7q15 24 25.5 40.5t19 31.5t17.5 32t21 43l7 6h186zM525 128l-7 -122l-8 -6h-440l-5 4q1 39 2 72.5t1.5 67t1 70.5t0.5 84
q0 100 -0.5 162t-1.5 103t-2.5 71t-3.5 66l6 6h439l5 -4l-7 -116l-5 -6q-45 1 -75 1.5t-56.5 1t-55 0.5h-70.5v-159l242 4l5 -6l-6 -113l-7 -6h-234l2 -175h80t60.5 1t59 2.5t74.5 3.5z" />
    <glyph glyph-name="Edieresis" unicode="&#xcb;" horiz-adv-x="562" 
d="M239 890l-2 -127l-6 -7l-140 -2l-5 6v127l6 7l142 2zM482 890l-2 -129l-5 -6l-138 -3l-6 6v128l5 7l140 3zM525 128l-7 -122l-8 -6h-440l-5 4q1 39 2 72.5t1.5 67t1 70.5t0.5 84q0 100 -0.5 162t-1.5 103t-2.5 71t-3.5 66l6 6h439l5 -4l-7 -116l-5 -6q-45 1 -75 1.5
t-56.5 1t-55 0.5h-70.5v-159l242 4l5 -6l-6 -113l-7 -6h-234l2 -175h80t60.5 1t59 2.5t74.5 3.5z" />
    <glyph glyph-name="Egrave" unicode="&#xc8;" horiz-adv-x="562" 
d="M305 903q6 -23 10.5 -39.5t9.5 -32.5t11.5 -33.5t16.5 -43.5l-4 -6l-102 -1l-7 5l-111 148l4 7h166zM525 128l-7 -122l-8 -6h-440l-5 4q1 39 2 72.5t1.5 67t1 70.5t0.5 84q0 100 -0.5 162t-1.5 103t-2.5 71t-3.5 66l6 6h439l5 -4l-7 -116l-5 -6q-45 1 -75 1.5t-56.5 1
t-55 0.5h-70.5v-159l242 4l5 -6l-6 -113l-7 -6h-234l2 -175h80t60.5 1t59 2.5t74.5 3.5z" />
    <glyph glyph-name="Iacute" unicode="&#xcd;" horiz-adv-x="313" 
d="M314 901q-13 -17 -25 -32.5t-25.5 -33t-29 -38t-35.5 -46.5l-6 -4h-101l-4 6q12 28 19 46.5t12.5 34t10.5 31t11 37.5l5 5h166zM250 703q-2 -104 -3.5 -207t-1.5 -207q0 -54 0.5 -92.5t1 -69t2 -59t3.5 -62.5l-6 -6h-52t-40 -0.5t-38.5 -1t-47.5 -1.5l-5 6q1 39 2.5 71.5
t2 64.5t1 67.5t0.5 79.5q0 64 -0.5 112t-0.5 85t-1 65.5t-2 53t-2.5 48t-2.5 50.5l4 6q27 0 46.5 -0.5t38.5 0t41.5 1t54.5 2.5z" />
    <glyph glyph-name="Icircumflex" unicode="&#xce;" horiz-adv-x="313" 
d="M254 902q10 -20 18.5 -36.5t17.5 -32.5t20 -34t26 -42l-4 -8l-135 -3l-6 6l-42 81q-11 -19 -21.5 -35.5t-26.5 -44.5l-6 -6h-118l-4 7q15 24 25.5 40.5t19 31.5t17.5 32t21 43l7 6h186zM250 703q-2 -104 -3.5 -207t-1.5 -207q0 -54 0.5 -92.5t1 -69t2 -59t3.5 -62.5
l-6 -6h-52t-40 -0.5t-38.5 -1t-47.5 -1.5l-5 6q1 39 2.5 71.5t2 64.5t1 67.5t0.5 79.5q0 64 -0.5 112t-0.5 85t-1 65.5t-2 53t-2.5 48t-2.5 50.5l4 6q27 0 46.5 -0.5t38.5 0t41.5 1t54.5 2.5z" />
    <glyph glyph-name="Idieresis" unicode="&#xcf;" horiz-adv-x="313" 
d="M114 890l-2 -127l-6 -7l-140 -2l-5 6v127l6 7l142 2zM357 890l-2 -129l-5 -6l-138 -3l-6 6v128l5 7l140 3zM250 703q-2 -104 -3.5 -207t-1.5 -207q0 -54 0.5 -92.5t1 -69t2 -59t3.5 -62.5l-6 -6h-52t-40 -0.5t-38.5 -1t-47.5 -1.5l-5 6q1 39 2.5 71.5t2 64.5t1 67.5
t0.5 79.5q0 64 -0.5 112t-0.5 85t-1 65.5t-2 53t-2.5 48t-2.5 50.5l4 6q27 0 46.5 -0.5t38.5 0t41.5 1t54.5 2.5z" />
    <glyph glyph-name="Igrave" unicode="&#xcc;" horiz-adv-x="313" 
d="M180 903q6 -23 10.5 -39.5t9.5 -32.5t11.5 -33.5t16.5 -43.5l-4 -6l-102 -1l-7 5l-111 148l4 7h166zM250 703q-2 -104 -3.5 -207t-1.5 -207q0 -54 0.5 -92.5t1 -69t2 -59t3.5 -62.5l-6 -6h-52t-40 -0.5t-38.5 -1t-47.5 -1.5l-5 6q1 39 2.5 71.5t2 64.5t1 67.5t0.5 79.5
q0 64 -0.5 112t-0.5 85t-1 65.5t-2 53t-2.5 48t-2.5 50.5l4 6q27 0 46.5 -0.5t38.5 0t41.5 1t54.5 2.5z" />
    <glyph glyph-name="Ntilde" unicode="&#xd1;" horiz-adv-x="729" 
d="M534 909v-112l-4 -8q-17 -14 -39 -26.5t-55 -12.5q-17 0 -29.5 4t-27.5 9l-30 11l-34 10t-34 5q-26 0 -47 -11t-38 -22l-6 2l1 106l4 7q17 13 35 23.5t53 10.5q15 0 27 -2.5t26 -7.5l39 -13q17 -6 32.5 -10.5t32.5 -4.5q27 0 48.5 15.5t38.5 29.5zM667 703
q-1 -85 -1.5 -167.5t-0.5 -167.5v-87t0.5 -85t1 -90t0.5 -101l-5 -5h-34.5t-28.5 -0.5t-30 -1t-39 -1.5l-7 5l-89 130l-100 147q-26 37 -43 62.5t-30.5 47t-26.5 43t-31 50.5l6 -134l3 -123l10 -219l-5 -6h-38t-31.5 -0.5t-33.5 -1t-43 -1.5l-5 6l2 146t1 147
q0 50 -0.5 97.5t-1.5 96.5t-2.5 100.5t-3.5 109.5l5 6q27 0 45.5 -0.5t35 0t35.5 1t49 2.5l7 -5q9 -15 18 -28.5t21 -32t30 -45.5t46 -70l91 -133q19 -29 30.5 -46t20 -30.5t16 -26t18.5 -30.5l-4 165l-4 138l-7 135l5 6h39.5h31.5t31 1t40 2z" />
    <glyph glyph-name="Oacute" unicode="&#xd3;" horiz-adv-x="750" 
d="M533 901q-13 -17 -25 -32.5t-25.5 -33t-29 -38t-35.5 -46.5l-6 -4h-101l-4 6q12 28 19 46.5t12.5 34t10.5 31t11 37.5l5 5h166zM475 550q-18 22 -43 34t-54 12q-14 0 -33.5 -4t-39.5 -16q-35 -23 -55.5 -72.5t-20.5 -139.5q0 -34 3.5 -77.5t18.5 -82.5t44.5 -65.5
t81.5 -26.5q43 0 71.5 19t45 53.5t22.5 82t5 103.5q-1 19 -3 44.5t-8 54.5q-5 22 -12.5 43t-22.5 38zM633 614q9 -12 22 -31.5t25 -50.5t20 -74.5t8 -102.5q0 -32 -4.5 -71.5t-17.5 -81t-36.5 -80.5t-60.5 -70q-45 -37 -100.5 -52t-113.5 -15q-19 0 -47 2.5t-59.5 11
t-64 24.5t-60.5 43q-35 33 -55.5 71.5t-31 77t-13 73.5t-2.5 61q0 51 9 102q3 16 10 43.5t23.5 60t44.5 65.5t74 59q41 23 86.5 32.5t92.5 9.5q53 0 103 -12.5t88 -38.5q34 -22 60 -56z" />
    <glyph glyph-name="Ocircumflex" unicode="&#xd4;" horiz-adv-x="750" 
d="M473 902q10 -20 18.5 -36.5t17.5 -32.5t20 -34t26 -42l-4 -8l-135 -3l-6 6l-42 81q-11 -19 -21.5 -35.5t-26.5 -44.5l-6 -6h-118l-4 7q15 24 25.5 40.5t19 31.5t17.5 32t21 43l7 6h186zM475 550q-18 22 -43 34t-54 12q-14 0 -33.5 -4t-39.5 -16q-35 -23 -55.5 -72.5
t-20.5 -139.5q0 -34 3.5 -77.5t18.5 -82.5t44.5 -65.5t81.5 -26.5q43 0 71.5 19t45 53.5t22.5 82t5 103.5q-1 19 -3 44.5t-8 54.5q-5 22 -12.5 43t-22.5 38zM633 614q9 -12 22 -31.5t25 -50.5t20 -74.5t8 -102.5q0 -32 -4.5 -71.5t-17.5 -81t-36.5 -80.5t-60.5 -70
q-45 -37 -100.5 -52t-113.5 -15q-19 0 -47 2.5t-59.5 11t-64 24.5t-60.5 43q-35 33 -55.5 71.5t-31 77t-13 73.5t-2.5 61q0 51 9 102q3 16 10 43.5t23.5 60t44.5 65.5t74 59q41 23 86.5 32.5t92.5 9.5q53 0 103 -12.5t88 -38.5q34 -22 60 -56z" />
    <glyph glyph-name="Odieresis" unicode="&#xd6;" horiz-adv-x="750" 
d="M337 890l-2 -127l-6 -7l-140 -2l-5 6v127l6 7l142 2zM580 890l-2 -129l-5 -6l-138 -3l-6 6v128l5 7l140 3zM475 550q-18 22 -43 34t-54 12q-14 0 -33.5 -4t-39.5 -16q-35 -23 -55.5 -72.5t-20.5 -139.5q0 -34 3.5 -77.5t18.5 -82.5t44.5 -65.5t81.5 -26.5q43 0 71.5 19
t45 53.5t22.5 82t5 103.5q-1 19 -3 44.5t-8 54.5q-5 22 -12.5 43t-22.5 38zM633 614q9 -12 22 -31.5t25 -50.5t20 -74.5t8 -102.5q0 -32 -4.5 -71.5t-17.5 -81t-36.5 -80.5t-60.5 -70q-45 -37 -100.5 -52t-113.5 -15q-19 0 -47 2.5t-59.5 11t-64 24.5t-60.5 43
q-35 33 -55.5 71.5t-31 77t-13 73.5t-2.5 61q0 51 9 102q3 16 10 43.5t23.5 60t44.5 65.5t74 59q41 23 86.5 32.5t92.5 9.5q53 0 103 -12.5t88 -38.5q34 -22 60 -56z" />
    <glyph glyph-name="Ograve" unicode="&#xd2;" horiz-adv-x="750" 
d="M399 903q6 -23 10.5 -39.5t9.5 -32.5t11.5 -33.5t16.5 -43.5l-4 -6l-102 -1l-7 5l-111 148l4 7h166zM475 550q-18 22 -43 34t-54 12q-14 0 -33.5 -4t-39.5 -16q-35 -23 -55.5 -72.5t-20.5 -139.5q0 -34 3.5 -77.5t18.5 -82.5t44.5 -65.5t81.5 -26.5q43 0 71.5 19t45 53.5
t22.5 82t5 103.5q-1 19 -3 44.5t-8 54.5q-5 22 -12.5 43t-22.5 38zM633 614q9 -12 22 -31.5t25 -50.5t20 -74.5t8 -102.5q0 -32 -4.5 -71.5t-17.5 -81t-36.5 -80.5t-60.5 -70q-45 -37 -100.5 -52t-113.5 -15q-19 0 -47 2.5t-59.5 11t-64 24.5t-60.5 43q-35 33 -55.5 71.5
t-31 77t-13 73.5t-2.5 61q0 51 9 102q3 16 10 43.5t23.5 60t44.5 65.5t74 59q41 23 86.5 32.5t92.5 9.5q53 0 103 -12.5t88 -38.5q34 -22 60 -56z" />
    <glyph glyph-name="Otilde" unicode="&#xd5;" horiz-adv-x="750" 
d="M544 909v-112l-4 -8q-17 -14 -39 -26.5t-55 -12.5q-17 0 -29.5 4t-27.5 9l-30 11l-34 10t-34 5q-26 0 -47 -11t-38 -22l-6 2l1 106l4 7q17 13 35 23.5t53 10.5q15 0 27 -2.5t26 -7.5l39 -13q17 -6 32.5 -10.5t32.5 -4.5q27 0 48.5 15.5t38.5 29.5zM475 550q-18 22 -43 34
t-54 12q-14 0 -33.5 -4t-39.5 -16q-35 -23 -55.5 -72.5t-20.5 -139.5q0 -34 3.5 -77.5t18.5 -82.5t44.5 -65.5t81.5 -26.5q43 0 71.5 19t45 53.5t22.5 82t5 103.5q-1 19 -3 44.5t-8 54.5q-5 22 -12.5 43t-22.5 38zM633 614q9 -12 22 -31.5t25 -50.5t20 -74.5t8 -102.5
q0 -32 -4.5 -71.5t-17.5 -81t-36.5 -80.5t-60.5 -70q-45 -37 -100.5 -52t-113.5 -15q-19 0 -47 2.5t-59.5 11t-64 24.5t-60.5 43q-35 33 -55.5 71.5t-31 77t-13 73.5t-2.5 61q0 51 9 102q3 16 10 43.5t23.5 60t44.5 65.5t74 59q41 23 86.5 32.5t92.5 9.5q53 0 103 -12.5
t88 -38.5q34 -22 60 -56z" />
    <glyph glyph-name="Uacute" unicode="&#xda;" horiz-adv-x="688" 
d="M502 901q-13 -17 -25 -32.5t-25.5 -33t-29 -38t-35.5 -46.5l-6 -4h-101l-4 6q12 28 19 46.5t12.5 34t10.5 31t11 37.5l5 5h166zM635 703l-3 -297v-102q-1 -48 -2.5 -83.5t-7.5 -63.5t-17.5 -50.5t-31.5 -43.5q-28 -29 -60.5 -45t-63.5 -23.5t-57 -8.5t-39 -1
q-50 0 -90 8.5t-70.5 23t-52.5 33.5t-36 39q-13 18 -21 38t-13 44.5t-7 55.5t-3 72v74q0 58 -0.5 96.5t-1 72t-1.5 69t-2 89.5l6 6q25 0 44 -0.5t37.5 0t40.5 1t54 2.5l5 -6q-2 -75 -2.5 -135.5t-0.5 -121.5v-79.5t2 -79.5q2 -48 7 -76t16 -48q17 -26 44 -39.5t58 -13.5
q25 0 48 8.5t40 27.5q10 12 16 27.5t9 37.5t4 51.5t1 68.5q0 93 -3 184.5t-7 184.5l6 6q21 0 37 -0.5t32 0t35 1t46 2.5z" />
    <glyph glyph-name="Ucircumflex" unicode="&#xdb;" horiz-adv-x="688" 
d="M442 902q10 -20 18.5 -36.5t17.5 -32.5t20 -34t26 -42l-4 -8l-135 -3l-6 6l-42 81q-11 -19 -21.5 -35.5t-26.5 -44.5l-6 -6h-118l-4 7q15 24 25.5 40.5t19 31.5t17.5 32t21 43l7 6h186zM635 703l-3 -297v-102q-1 -48 -2.5 -83.5t-7.5 -63.5t-17.5 -50.5t-31.5 -43.5
q-28 -29 -60.5 -45t-63.5 -23.5t-57 -8.5t-39 -1q-50 0 -90 8.5t-70.5 23t-52.5 33.5t-36 39q-13 18 -21 38t-13 44.5t-7 55.5t-3 72v74q0 58 -0.5 96.5t-1 72t-1.5 69t-2 89.5l6 6q25 0 44 -0.5t37.5 0t40.5 1t54 2.5l5 -6q-2 -75 -2.5 -135.5t-0.5 -121.5v-79.5t2 -79.5
q2 -48 7 -76t16 -48q17 -26 44 -39.5t58 -13.5q25 0 48 8.5t40 27.5q10 12 16 27.5t9 37.5t4 51.5t1 68.5q0 93 -3 184.5t-7 184.5l6 6q21 0 37 -0.5t32 0t35 1t46 2.5z" />
    <glyph glyph-name="Udieresis" unicode="&#xdc;" horiz-adv-x="688" 
d="M314 890l-2 -127l-6 -7l-140 -2l-5 6v127l6 7l142 2zM557 890l-2 -129l-5 -6l-138 -3l-6 6v128l5 7l140 3zM635 703l-3 -297v-102q-1 -48 -2.5 -83.5t-7.5 -63.5t-17.5 -50.5t-31.5 -43.5q-28 -29 -60.5 -45t-63.5 -23.5t-57 -8.5t-39 -1q-50 0 -90 8.5t-70.5 23
t-52.5 33.5t-36 39q-13 18 -21 38t-13 44.5t-7 55.5t-3 72v74q0 58 -0.5 96.5t-1 72t-1.5 69t-2 89.5l6 6q25 0 44 -0.5t37.5 0t40.5 1t54 2.5l5 -6q-2 -75 -2.5 -135.5t-0.5 -121.5v-79.5t2 -79.5q2 -48 7 -76t16 -48q17 -26 44 -39.5t58 -13.5q25 0 48 8.5t40 27.5
q10 12 16 27.5t9 37.5t4 51.5t1 68.5q0 93 -3 184.5t-7 184.5l6 6q21 0 37 -0.5t32 0t35 1t46 2.5z" />
    <glyph glyph-name="Ugrave" unicode="&#xd9;" horiz-adv-x="688" 
d="M368 903q6 -23 10.5 -39.5t9.5 -32.5t11.5 -33.5t16.5 -43.5l-4 -6l-102 -1l-7 5l-111 148l4 7h166zM635 703l-3 -297v-102q-1 -48 -2.5 -83.5t-7.5 -63.5t-17.5 -50.5t-31.5 -43.5q-28 -29 -60.5 -45t-63.5 -23.5t-57 -8.5t-39 -1q-50 0 -90 8.5t-70.5 23t-52.5 33.5
t-36 39q-13 18 -21 38t-13 44.5t-7 55.5t-3 72v74q0 58 -0.5 96.5t-1 72t-1.5 69t-2 89.5l6 6q25 0 44 -0.5t37.5 0t40.5 1t54 2.5l5 -6q-2 -75 -2.5 -135.5t-0.5 -121.5v-79.5t2 -79.5q2 -48 7 -76t16 -48q17 -26 44 -39.5t58 -13.5q25 0 48 8.5t40 27.5q10 12 16 27.5
t9 37.5t4 51.5t1 68.5q0 93 -3 184.5t-7 184.5l6 6q21 0 37 -0.5t32 0t35 1t46 2.5z" />
    <glyph glyph-name="Ydieresis" unicode="&#x178;" 
d="M260 890l-2 -127l-6 -7l-140 -2l-5 6v127l6 7l142 2zM503 890l-2 -129l-5 -6l-138 -3l-6 6v128l5 7l140 3zM395 0h-46t-37.5 -0.5t-40.5 -1t-53 -1.5l-5 6q2 44 3.5 76.5t2 61t1 57.5t0.5 66v32q-11 20 -21.5 39t-21.5 39q-7 11 -21 36t-32.5 57t-39 67t-39.5 67t-34 58
t-22 39l3 8q31 0 53 0.5t41.5 1.5t41.5 2t54 3l7 -5q11 -24 19.5 -42.5t16 -33.5t13.5 -28t13 -26q4 -7 14 -26.5t21.5 -41.5t22 -42t14.5 -28q16 31 29.5 58l28 56t31 64t38.5 82l6 6h39.5t33 0.5t36 1t47.5 1.5l4 -7l-221 -402v-81.5t1 -64.5t2 -65t3 -83z" />
    <glyph glyph-name="aacute" unicode="&#xe1;" horiz-adv-x="562" 
d="M437 765q-12 -18 -26 -39.5t-28.5 -44t-28 -44.5t-25.5 -41l-7 -4h-108l-4 6q11 26 19 44.5t14.5 36t12.5 37.5t15 49l5 5l158 2zM340 260q-26 -3 -52 -8t-47 -14t-34.5 -24t-13.5 -40q0 -32 19.5 -46.5t46.5 -14.5q25 0 45 8.5t36 17.5v121zM504 224v-59.5t1 -47.5
t2 -48t4 -62l-5 -7h-42h-35t-36 -1t-46 -2l-6 7v37q-8 -6 -20 -15.5t-29 -17.5t-39.5 -14t-50.5 -6q-37 0 -69 12.5t-55.5 35.5t-37 55.5t-13.5 72.5q0 17 4 35.5t12.5 36.5t23 35t35.5 30q22 14 45 23.5t50.5 16.5t61.5 12.5t79 11.5q0 11 -2.5 23t-10.5 20
q-10 10 -23.5 14.5t-41.5 4.5q-25 0 -49.5 -4.5t-46 -10.5t-40 -13t-31.5 -12l-8 4l5 109l6 8q21 6 42.5 12t44.5 10.5t50 7.5t59 3q48 0 80.5 -7t54 -17.5t33.5 -23t20 -24.5q10 -16 15 -32t7.5 -35.5t2.5 -44.5v-59z" />
    <glyph glyph-name="acircumflex" unicode="&#xe2;" horiz-adv-x="562" 
d="M387 767q12 -27 20 -45.5t16 -35.5t17 -36t24 -48l-3 -6l-135 -4l-6 5l-42 105l-44 -103l-6 -5h-114l-3 6q16 31 27 51.5t19.5 38t16.5 35.5t19 42l6 5h182zM340 260q-26 -3 -52 -8t-47 -14t-34.5 -24t-13.5 -40q0 -32 19.5 -46.5t46.5 -14.5q25 0 45 8.5t36 17.5v121z
M504 224v-59.5t1 -47.5t2 -48t4 -62l-5 -7h-42h-35t-36 -1t-46 -2l-6 7v37q-8 -6 -20 -15.5t-29 -17.5t-39.5 -14t-50.5 -6q-37 0 -69 12.5t-55.5 35.5t-37 55.5t-13.5 72.5q0 17 4 35.5t12.5 36.5t23 35t35.5 30q22 14 45 23.5t50.5 16.5t61.5 12.5t79 11.5q0 11 -2.5 23
t-10.5 20q-10 10 -23.5 14.5t-41.5 4.5q-25 0 -49.5 -4.5t-46 -10.5t-40 -13t-31.5 -12l-8 4l5 109l6 8q21 6 42.5 12t44.5 10.5t50 7.5t59 3q48 0 80.5 -7t54 -17.5t33.5 -23t20 -24.5q10 -16 15 -32t7.5 -35.5t2.5 -44.5v-59z" />
    <glyph glyph-name="adieresis" unicode="&#xe4;" horiz-adv-x="562" 
d="M248 737v-135l-6 -6l-137 -8l-5 6l-3 136l5 6l141 7zM470 739v-138l-5 -6l-136 -8l-6 6l-2 137l5 6l139 8zM340 260q-26 -3 -52 -8t-47 -14t-34.5 -24t-13.5 -40q0 -32 19.5 -46.5t46.5 -14.5q25 0 45 8.5t36 17.5v121zM504 224v-59.5t1 -47.5t2 -48t4 -62l-5 -7h-42h-35
t-36 -1t-46 -2l-6 7v37q-8 -6 -20 -15.5t-29 -17.5t-39.5 -14t-50.5 -6q-37 0 -69 12.5t-55.5 35.5t-37 55.5t-13.5 72.5q0 17 4 35.5t12.5 36.5t23 35t35.5 30q22 14 45 23.5t50.5 16.5t61.5 12.5t79 11.5q0 11 -2.5 23t-10.5 20q-10 10 -23.5 14.5t-41.5 4.5
q-25 0 -49.5 -4.5t-46 -10.5t-40 -13t-31.5 -12l-8 4l5 109l6 8q21 6 42.5 12t44.5 10.5t50 7.5t59 3q48 0 80.5 -7t54 -17.5t33.5 -23t20 -24.5q10 -16 15 -32t7.5 -35.5t2.5 -44.5v-59z" />
    <glyph glyph-name="agrave" unicode="&#xe0;" horiz-adv-x="562" 
d="M294 767q7 -25 12.5 -43t11.5 -35.5t14 -37.5t21 -50l-5 -7h-108l-7 4q-16 27 -27.5 46t-22 36.5t-23 36.5t-30.5 46l4 8h154zM340 260q-26 -3 -52 -8t-47 -14t-34.5 -24t-13.5 -40q0 -32 19.5 -46.5t46.5 -14.5q25 0 45 8.5t36 17.5v121zM504 224v-59.5t1 -47.5t2 -48
t4 -62l-5 -7h-42h-35t-36 -1t-46 -2l-6 7v37q-8 -6 -20 -15.5t-29 -17.5t-39.5 -14t-50.5 -6q-37 0 -69 12.5t-55.5 35.5t-37 55.5t-13.5 72.5q0 17 4 35.5t12.5 36.5t23 35t35.5 30q22 14 45 23.5t50.5 16.5t61.5 12.5t79 11.5q0 11 -2.5 23t-10.5 20q-10 10 -23.5 14.5
t-41.5 4.5q-25 0 -49.5 -4.5t-46 -10.5t-40 -13t-31.5 -12l-8 4l5 109l6 8q21 6 42.5 12t44.5 10.5t50 7.5t59 3q48 0 80.5 -7t54 -17.5t33.5 -23t20 -24.5q10 -16 15 -32t7.5 -35.5t2.5 -44.5v-59z" />
    <glyph glyph-name="aring" unicode="&#xe5;" horiz-adv-x="562" 
d="M329 698q-1 21 -6 32t-11.5 16t-12.5 6t-8 1q-5 0 -12 -2.5t-13 -9t-10.5 -18t-4.5 -30.5q0 -32 13 -46.5t27 -14.5q16 0 28 16t10 50zM419 698q2 -59 -35 -91t-97 -32q-30 0 -53 9t-38.5 24.5t-23.5 36.5t-8 44q0 22 7.5 44t23 39.5t40 28.5t59.5 11q36 0 59.5 -11
t38 -27.5t20.5 -36.5t7 -39zM340 260q-26 -3 -52 -8t-47 -14t-34.5 -24t-13.5 -40q0 -32 19.5 -46.5t46.5 -14.5q25 0 45 8.5t36 17.5v121zM504 224v-59.5t1 -47.5t2 -48t4 -62l-5 -7h-42h-35t-36 -1t-46 -2l-6 7v37q-8 -6 -20 -15.5t-29 -17.5t-39.5 -14t-50.5 -6
q-37 0 -69 12.5t-55.5 35.5t-37 55.5t-13.5 72.5q0 17 4 35.5t12.5 36.5t23 35t35.5 30q22 14 45 23.5t50.5 16.5t61.5 12.5t79 11.5q0 11 -2.5 23t-10.5 20q-10 10 -23.5 14.5t-41.5 4.5q-25 0 -49.5 -4.5t-46 -10.5t-40 -13t-31.5 -12l-8 4l5 109l6 8q21 6 42.5 12
t44.5 10.5t50 7.5t59 3q48 0 80.5 -7t54 -17.5t33.5 -23t20 -24.5q10 -16 15 -32t7.5 -35.5t2.5 -44.5v-59z" />
    <glyph glyph-name="atilde" unicode="&#xe3;" horiz-adv-x="562" 
d="M450 755v-112l-4 -8q-17 -14 -39 -26.5t-55 -12.5q-17 0 -29.5 4t-27.5 9l-30 11q-17 6 -34 11t-34 5q-26 0 -47 -11.5t-38 -22.5l-6 3l1 105l4 8q17 13 35 23.5t53 10.5q15 0 27 -2.5t26 -7.5l39 -14q17 -5 32.5 -10t32.5 -5q27 0 48.5 15.5t38.5 29.5zM340 260
q-26 -3 -52 -8t-47 -14t-34.5 -24t-13.5 -40q0 -32 19.5 -46.5t46.5 -14.5q25 0 45 8.5t36 17.5v121zM504 224v-59.5t1 -47.5t2 -48t4 -62l-5 -7h-42h-35t-36 -1t-46 -2l-6 7v37q-8 -6 -20 -15.5t-29 -17.5t-39.5 -14t-50.5 -6q-37 0 -69 12.5t-55.5 35.5t-37 55.5
t-13.5 72.5q0 17 4 35.5t12.5 36.5t23 35t35.5 30q22 14 45 23.5t50.5 16.5t61.5 12.5t79 11.5q0 11 -2.5 23t-10.5 20q-10 10 -23.5 14.5t-41.5 4.5q-25 0 -49.5 -4.5t-46 -10.5t-40 -13t-31.5 -12l-8 4l5 109l6 8q21 6 42.5 12t44.5 10.5t50 7.5t59 3q48 0 80.5 -7
t54 -17.5t33.5 -23t20 -24.5q10 -16 15 -32t7.5 -35.5t2.5 -44.5v-59z" />
    <glyph glyph-name="ccedilla" unicode="&#xe7;" horiz-adv-x="479" 
d="M459 139q-1 -18 -1.5 -31.5t-1 -26.5t-1 -27.5t-0.5 -34.5l-6 -6q-24 -8 -55 -15t-81 -7q-74 0 -127 23t-86.5 60.5t-49 86t-15.5 98.5t14.5 100.5t47 91t85 65.5t129.5 25q54 0 88 -9t57 -17l5 -6q-3 -20 -5 -34t-3 -26.5t-2.5 -26t-2.5 -32.5l-10 -4q-15 11 -39 23.5
t-60 12.5t-60.5 -14.5t-40 -37t-22 -50t-6.5 -53.5q0 -17 4 -43t18.5 -51t41.5 -43t72 -18q42 0 67.5 12t37.5 20zM345 -42q-7 -21 -12 -35.5t-9.5 -28.5t-10 -31.5t-12.5 -42.5l-6 -6q-43 1 -72.5 0.5t-57.5 -0.5l-3 6q12 25 20 42t15 31.5t14 30t17 36.5l6 5q20 0 33 -0.5
t23.5 -0.5h22h29.5z" />
    <glyph glyph-name="eacute" unicode="&#xe9;" horiz-adv-x="562" 
d="M437 765q-12 -18 -26 -39.5t-28.5 -44t-28 -44.5t-25.5 -41l-7 -4h-108l-4 6q11 26 19 44.5t14.5 36t12.5 37.5t15 49l5 5l158 2zM368 331q0 17 -2 34.5t-13 34.5q-8 14 -23.5 24.5t-40.5 10.5q-11 0 -21 -2.5t-19 -8.5q-14 -9 -23 -21t-14 -25t-7.5 -26t-3.5 -25z
M511 145l-7 -113l-6 -8q-20 -8 -37.5 -14.5t-37 -11.5t-43 -7.5t-54.5 -2.5q-27 0 -64 4t-74.5 19t-71.5 44t-56 80q-12 26 -18 61t-6 70q0 65 18.5 116t53 86.5t82.5 54.5t107 19q17 0 34.5 -2t36.5 -7q13 -3 32.5 -10t40.5 -23.5t40.5 -44.5t32.5 -72q11 -38 13 -75t3 -74
l-6 -7l-323 -6q3 -15 7 -30t15 -31q37 -55 125 -55q55 0 91 14t65 29z" />
    <glyph glyph-name="ecircumflex" unicode="&#xea;" horiz-adv-x="562" 
d="M387 767q12 -27 20 -45.5t16 -35.5t17 -36t24 -48l-3 -6l-135 -4l-6 5l-42 105l-44 -103l-6 -5h-114l-3 6q16 31 27 51.5t19.5 38t16.5 35.5t19 42l6 5h182zM368 331q0 17 -2 34.5t-13 34.5q-8 14 -23.5 24.5t-40.5 10.5q-11 0 -21 -2.5t-19 -8.5q-14 -9 -23 -21t-14 -25
t-7.5 -26t-3.5 -25zM511 145l-7 -113l-6 -8q-20 -8 -37.5 -14.5t-37 -11.5t-43 -7.5t-54.5 -2.5q-27 0 -64 4t-74.5 19t-71.5 44t-56 80q-12 26 -18 61t-6 70q0 65 18.5 116t53 86.5t82.5 54.5t107 19q17 0 34.5 -2t36.5 -7q13 -3 32.5 -10t40.5 -23.5t40.5 -44.5t32.5 -72
q11 -38 13 -75t3 -74l-6 -7l-323 -6q3 -15 7 -30t15 -31q37 -55 125 -55q55 0 91 14t65 29z" />
    <glyph glyph-name="edieresis" unicode="&#xeb;" horiz-adv-x="562" 
d="M243 737v-135l-6 -6l-137 -8l-5 6l-3 136l5 6l141 7zM465 739v-138l-5 -6l-136 -8l-6 6l-2 137l5 6l139 8zM368 331q0 17 -2 34.5t-13 34.5q-8 14 -23.5 24.5t-40.5 10.5q-11 0 -21 -2.5t-19 -8.5q-14 -9 -23 -21t-14 -25t-7.5 -26t-3.5 -25zM511 145l-7 -113l-6 -8
q-20 -8 -37.5 -14.5t-37 -11.5t-43 -7.5t-54.5 -2.5q-27 0 -64 4t-74.5 19t-71.5 44t-56 80q-12 26 -18 61t-6 70q0 65 18.5 116t53 86.5t82.5 54.5t107 19q17 0 34.5 -2t36.5 -7q13 -3 32.5 -10t40.5 -23.5t40.5 -44.5t32.5 -72q11 -38 13 -75t3 -74l-6 -7l-323 -6
q3 -15 7 -30t15 -31q37 -55 125 -55q55 0 91 14t65 29z" />
    <glyph glyph-name="egrave" unicode="&#xe8;" horiz-adv-x="562" 
d="M294 767q7 -25 12.5 -43t11.5 -35.5t14 -37.5t21 -50l-5 -7h-108l-7 4q-16 27 -27.5 46t-22 36.5t-23 36.5t-30.5 46l4 8h154zM368 331q0 17 -2 34.5t-13 34.5q-8 14 -23.5 24.5t-40.5 10.5q-11 0 -21 -2.5t-19 -8.5q-14 -9 -23 -21t-14 -25t-7.5 -26t-3.5 -25zM511 145
l-7 -113l-6 -8q-20 -8 -37.5 -14.5t-37 -11.5t-43 -7.5t-54.5 -2.5q-27 0 -64 4t-74.5 19t-71.5 44t-56 80q-12 26 -18 61t-6 70q0 65 18.5 116t53 86.5t82.5 54.5t107 19q17 0 34.5 -2t36.5 -7q13 -3 32.5 -10t40.5 -23.5t40.5 -44.5t32.5 -72q11 -38 13 -75t3 -74l-6 -7
l-323 -6q3 -15 7 -30t15 -31q37 -55 125 -55q55 0 91 14t65 29z" />
    <glyph glyph-name="iacute" unicode="&#xed;" horiz-adv-x="292" 
d="M302 765q-12 -18 -26 -39.5t-28.5 -44t-28 -44.5t-25.5 -41l-7 -4h-108l-4 6q11 26 19 44.5t14.5 36t12.5 37.5t15 49l5 5l158 2zM234 0h-51h-39t-37 -1t-46 -2l-6 7q1 31 2 59t2 57t1.5 62t0.5 74q0 53 -0.5 88.5t-2 62.5t-3.5 50t-5 52l6 6l172 30l7 -8l-2 -128
t-1 -128q0 -52 0.5 -90.5t2 -69.5t3 -58t3.5 -56z" />
    <glyph glyph-name="icircumflex" unicode="&#xee;" horiz-adv-x="292" 
d="M252 767q12 -27 20 -45.5t16 -35.5t17 -36t24 -48l-3 -6l-135 -4l-6 5l-42 105l-44 -103l-6 -5h-114l-3 6q16 31 27 51.5t19.5 38t16.5 35.5t19 42l6 5h182zM234 0h-51h-39t-37 -1t-46 -2l-6 7q1 31 2 59t2 57t1.5 62t0.5 74q0 53 -0.5 88.5t-2 62.5t-3.5 50t-5 52l6 6
l172 30l7 -8l-2 -128t-1 -128q0 -52 0.5 -90.5t2 -69.5t3 -58t3.5 -56z" />
    <glyph glyph-name="idieresis" unicode="&#xef;" horiz-adv-x="292" 
d="M108 737v-135l-6 -6l-137 -8l-5 6l-3 136l5 6l141 7zM330 739v-138l-5 -6l-136 -8l-6 6l-2 137l5 6l139 8zM234 0h-51h-39t-37 -1t-46 -2l-6 7q1 31 2 59t2 57t1.5 62t0.5 74q0 53 -0.5 88.5t-2 62.5t-3.5 50t-5 52l6 6l172 30l7 -8l-2 -128t-1 -128q0 -52 0.5 -90.5
t2 -69.5t3 -58t3.5 -56z" />
    <glyph glyph-name="igrave" unicode="&#xec;" horiz-adv-x="292" 
d="M159 767q7 -25 12.5 -43t11.5 -35.5t14 -37.5t21 -50l-5 -7h-108l-7 4q-16 27 -27.5 46t-22 36.5t-23 36.5t-30.5 46l4 8h154zM234 0h-51h-39t-37 -1t-46 -2l-6 7q1 31 2 59t2 57t1.5 62t0.5 74q0 53 -0.5 88.5t-2 62.5t-3.5 50t-5 52l6 6l172 30l7 -8l-2 -128t-1 -128
q0 -52 0.5 -90.5t2 -69.5t3 -58t3.5 -56z" />
    <glyph glyph-name="ntilde" unicode="&#xf1;" 
d="M471 755v-112l-4 -8q-17 -14 -39 -26.5t-55 -12.5q-17 0 -29.5 4t-27.5 9l-30 11q-17 6 -34 11t-34 5q-26 0 -47 -11.5t-38 -22.5l-6 3l1 105l4 8q17 13 35 23.5t53 10.5q15 0 27 -2.5t26 -7.5l39 -14q17 -5 32.5 -10t32.5 -5q27 0 48.5 15.5t38.5 29.5zM543 1h-50
t-37 -0.5l-34 -1t-42 -1.5l-6 6q0 26 0.5 51.5t0.5 51.5v44t-0.5 62t-1 61t-1.5 41q-1 13 -3.5 30t-8.5 31t-18 24t-33 10q-24 0 -42.5 -10t-34.5 -21q0 -67 0.5 -112t1.5 -83.5t2.5 -78.5t3.5 -98l-6 -6h-49.5t-37 -0.5t-35.5 -1t-45 -1.5l-6 6q1 48 1.5 96t0.5 96
q0 61 -1 105.5t-3 79.5t-4.5 65t-5.5 63l6 7q28 4 47 6.5t36.5 5.5t37 7t48.5 10l10 -7l-2 -55q35 20 74.5 39.5t85.5 19.5q13 0 30 -2t34 -8.5t32.5 -18.5t27.5 -31q9 -15 14.5 -32t8 -38.5t3.5 -49t1 -63.5v-78q1 -37 1.5 -62.5t1 -48t1.5 -46.5t3 -57z" />
    <glyph glyph-name="oacute" unicode="&#xf3;" 
d="M458 765q-12 -18 -26 -39.5t-28.5 -44t-28 -44.5t-25.5 -41l-7 -4h-108l-4 6q11 26 19 44.5t14.5 36t12.5 37.5t15 49l5 5l158 2zM396 267q0 41 -5.5 79.5t-23.5 60.5q-10 12 -26.5 21.5t-37.5 9.5q-24 0 -43 -12.5t-30 -32.5q-8 -13 -12 -30.5t-5.5 -35.5t-2 -34.5
t-0.5 -27.5q0 -36 3 -61.5t8.5 -42.5t12 -27.5t12.5 -16.5q9 -8 22.5 -15.5t33.5 -7.5q31 0 49.5 15.5t28.5 40t13 55.5t3 62zM569 266q0 -56 -12 -106.5t-43 -88.5t-83 -60.5t-131 -22.5q-54 0 -91 9t-62 23t-40 30t-25 31q-28 41 -37.5 88t-9.5 95q0 139 70.5 208
t201.5 69q20 0 54.5 -3t67.5 -16q35 -14 59 -35.5t39.5 -46.5t24 -52t12.5 -50.5t4.5 -42.5t0.5 -29z" />
    <glyph glyph-name="ocircumflex" unicode="&#xf4;" 
d="M408 767q12 -27 20 -45.5t16 -35.5t17 -36t24 -48l-3 -6l-135 -4l-6 5l-42 105l-44 -103l-6 -5h-114l-3 6q16 31 27 51.5t19.5 38t16.5 35.5t19 42l6 5h182zM396 267q0 41 -5.5 79.5t-23.5 60.5q-10 12 -26.5 21.5t-37.5 9.5q-24 0 -43 -12.5t-30 -32.5q-8 -13 -12 -30.5
t-5.5 -35.5t-2 -34.5t-0.5 -27.5q0 -36 3 -61.5t8.5 -42.5t12 -27.5t12.5 -16.5q9 -8 22.5 -15.5t33.5 -7.5q31 0 49.5 15.5t28.5 40t13 55.5t3 62zM569 266q0 -56 -12 -106.5t-43 -88.5t-83 -60.5t-131 -22.5q-54 0 -91 9t-62 23t-40 30t-25 31q-28 41 -37.5 88t-9.5 95
q0 139 70.5 208t201.5 69q20 0 54.5 -3t67.5 -16q35 -14 59 -35.5t39.5 -46.5t24 -52t12.5 -50.5t4.5 -42.5t0.5 -29z" />
    <glyph glyph-name="odieresis" unicode="&#xf6;" 
d="M266 737v-135l-6 -6l-137 -8l-5 6l-3 136l5 6l141 7zM488 739v-138l-5 -6l-136 -8l-6 6l-2 137l5 6l139 8zM396 267q0 41 -5.5 79.5t-23.5 60.5q-10 12 -26.5 21.5t-37.5 9.5q-24 0 -43 -12.5t-30 -32.5q-8 -13 -12 -30.5t-5.5 -35.5t-2 -34.5t-0.5 -27.5q0 -36 3 -61.5
t8.5 -42.5t12 -27.5t12.5 -16.5q9 -8 22.5 -15.5t33.5 -7.5q31 0 49.5 15.5t28.5 40t13 55.5t3 62zM569 266q0 -56 -12 -106.5t-43 -88.5t-83 -60.5t-131 -22.5q-54 0 -91 9t-62 23t-40 30t-25 31q-28 41 -37.5 88t-9.5 95q0 139 70.5 208t201.5 69q20 0 54.5 -3t67.5 -16
q35 -14 59 -35.5t39.5 -46.5t24 -52t12.5 -50.5t4.5 -42.5t0.5 -29z" />
    <glyph glyph-name="ograve" unicode="&#xf2;" 
d="M315 767q7 -25 12.5 -43t11.5 -35.5t14 -37.5t21 -50l-5 -7h-108l-7 4q-16 27 -27.5 46t-22 36.5t-23 36.5t-30.5 46l4 8h154zM396 267q0 41 -5.5 79.5t-23.5 60.5q-10 12 -26.5 21.5t-37.5 9.5q-24 0 -43 -12.5t-30 -32.5q-8 -13 -12 -30.5t-5.5 -35.5t-2 -34.5
t-0.5 -27.5q0 -36 3 -61.5t8.5 -42.5t12 -27.5t12.5 -16.5q9 -8 22.5 -15.5t33.5 -7.5q31 0 49.5 15.5t28.5 40t13 55.5t3 62zM569 266q0 -56 -12 -106.5t-43 -88.5t-83 -60.5t-131 -22.5q-54 0 -91 9t-62 23t-40 30t-25 31q-28 41 -37.5 88t-9.5 95q0 139 70.5 208
t201.5 69q20 0 54.5 -3t67.5 -16q35 -14 59 -35.5t39.5 -46.5t24 -52t12.5 -50.5t4.5 -42.5t0.5 -29z" />
    <glyph glyph-name="otilde" unicode="&#xf5;" 
d="M471 755v-112l-4 -8q-17 -14 -39 -26.5t-55 -12.5q-17 0 -29.5 4t-27.5 9l-30 11q-17 6 -34 11t-34 5q-26 0 -47 -11.5t-38 -22.5l-6 3l1 105l4 8q17 13 35 23.5t53 10.5q15 0 27 -2.5t26 -7.5l39 -14q17 -5 32.5 -10t32.5 -5q27 0 48.5 15.5t38.5 29.5zM396 267
q0 41 -5.5 79.5t-23.5 60.5q-10 12 -26.5 21.5t-37.5 9.5q-24 0 -43 -12.5t-30 -32.5q-8 -13 -12 -30.5t-5.5 -35.5t-2 -34.5t-0.5 -27.5q0 -36 3 -61.5t8.5 -42.5t12 -27.5t12.5 -16.5q9 -8 22.5 -15.5t33.5 -7.5q31 0 49.5 15.5t28.5 40t13 55.5t3 62zM569 266
q0 -56 -12 -106.5t-43 -88.5t-83 -60.5t-131 -22.5q-54 0 -91 9t-62 23t-40 30t-25 31q-28 41 -37.5 88t-9.5 95q0 139 70.5 208t201.5 69q20 0 54.5 -3t67.5 -16q35 -14 59 -35.5t39.5 -46.5t24 -52t12.5 -50.5t4.5 -42.5t0.5 -29z" />
    <glyph glyph-name="uacute" unicode="&#xfa;" 
d="M458 765q-12 -18 -26 -39.5t-28.5 -44t-28 -44.5t-25.5 -41l-7 -4h-108l-4 6q11 26 19 44.5t14.5 36t12.5 37.5t15 49l5 5l158 2zM547 527q-3 -141 -3 -282q0 -49 0.5 -82.5t1 -59.5t2 -48t3.5 -49l-6 -6h-42t-35 -0.5t-36.5 -1t-46.5 -1.5l-7 6l1 45q-27 -21 -61 -40.5
t-87 -19.5q-38 0 -72 12.5t-59 40.5q-14 16 -22 33.5t-12 40t-5 52.5t-1 71v70q0 38 -0.5 64t-1 48.5t-2 45.5t-3.5 55l7 6l165 8l7 -8l-2 -202q-1 -19 -1 -38v-38q0 -22 1 -46t8 -43.5t21.5 -32.5t41.5 -13q20 0 37.5 9.5t37.5 23.5q1 30 1 46.5v38.5v36t-1 72t-2 90.5
t-4 90.5l7 6l163 8z" />
    <glyph glyph-name="ucircumflex" unicode="&#xfb;" 
d="M408 767q12 -27 20 -45.5t16 -35.5t17 -36t24 -48l-3 -6l-135 -4l-6 5l-42 105l-44 -103l-6 -5h-114l-3 6q16 31 27 51.5t19.5 38t16.5 35.5t19 42l6 5h182zM547 527q-3 -141 -3 -282q0 -49 0.5 -82.5t1 -59.5t2 -48t3.5 -49l-6 -6h-42t-35 -0.5t-36.5 -1t-46.5 -1.5
l-7 6l1 45q-27 -21 -61 -40.5t-87 -19.5q-38 0 -72 12.5t-59 40.5q-14 16 -22 33.5t-12 40t-5 52.5t-1 71v70q0 38 -0.5 64t-1 48.5t-2 45.5t-3.5 55l7 6l165 8l7 -8l-2 -202q-1 -19 -1 -38v-38q0 -22 1 -46t8 -43.5t21.5 -32.5t41.5 -13q20 0 37.5 9.5t37.5 23.5
q1 30 1 46.5v38.5v36t-1 72t-2 90.5t-4 90.5l7 6l163 8z" />
    <glyph glyph-name="udieresis" unicode="&#xfc;" 
d="M267 737v-135l-6 -6l-137 -8l-5 6l-3 136l5 6l141 7zM489 739v-138l-5 -6l-136 -8l-6 6l-2 137l5 6l139 8zM547 527q-3 -141 -3 -282q0 -49 0.5 -82.5t1 -59.5t2 -48t3.5 -49l-6 -6h-42t-35 -0.5t-36.5 -1t-46.5 -1.5l-7 6l1 45q-27 -21 -61 -40.5t-87 -19.5
q-38 0 -72 12.5t-59 40.5q-14 16 -22 33.5t-12 40t-5 52.5t-1 71v70q0 38 -0.5 64t-1 48.5t-2 45.5t-3.5 55l7 6l165 8l7 -8l-2 -202q-1 -19 -1 -38v-38q0 -22 1 -46t8 -43.5t21.5 -32.5t41.5 -13q20 0 37.5 9.5t37.5 23.5q1 30 1 46.5v38.5v36t-1 72t-2 90.5t-4 90.5l7 6
l163 8z" />
    <glyph glyph-name="ugrave" unicode="&#xf9;" 
d="M315 767q7 -25 12.5 -43t11.5 -35.5t14 -37.5t21 -50l-5 -7h-108l-7 4q-16 27 -27.5 46t-22 36.5t-23 36.5t-30.5 46l4 8h154zM547 527q-3 -141 -3 -282q0 -49 0.5 -82.5t1 -59.5t2 -48t3.5 -49l-6 -6h-42t-35 -0.5t-36.5 -1t-46.5 -1.5l-7 6l1 45q-27 -21 -61 -40.5
t-87 -19.5q-38 0 -72 12.5t-59 40.5q-14 16 -22 33.5t-12 40t-5 52.5t-1 71v70q0 38 -0.5 64t-1 48.5t-2 45.5t-3.5 55l7 6l165 8l7 -8l-2 -202q-1 -19 -1 -38v-38q0 -22 1 -46t8 -43.5t21.5 -32.5t41.5 -13q20 0 37.5 9.5t37.5 23.5q1 30 1 46.5v38.5v36t-1 72t-2 90.5
t-4 90.5l7 6l163 8z" />
    <glyph glyph-name="ydieresis" unicode="&#xff;" horiz-adv-x="500" 
d="M212 737v-135l-6 -6l-137 -8l-5 6l-3 136l5 6l141 7zM434 739v-138l-5 -6l-136 -8l-6 6l-2 137l5 6l139 8zM511 525q-11 -29 -22 -58.5t-22 -59.5q-33 -87 -58 -154t-44 -121t-34 -98.5t-27.5 -87.5t-24.5 -88t-26 -99l-7 -6q-19 0 -38 0.5t-38 0.5q-20 0 -40 -0.5
t-39 -1.5l-5 8q17 37 28 61.5t20.5 47t20 48t25.5 64.5q-23 72 -51 151.5t-54.5 153.5t-49.5 135.5t-36 97.5l5 7q31 1 51.5 1.5t38.5 1.5t38 2.5t49 3.5l8 -6l40 -152l29 -106l19 -71l22 75l26 86q9 29 15 48.5t10.5 36t9 34t10.5 43.5l8 7l139 3z" />
    <glyph glyph-name="quotedbl" unicode="&#x22;" horiz-adv-x="396" 
d="M108 421h-27l-47 247q-1 6 -1.5 11.5t-0.5 10.5q0 26 18.5 42.5t47.5 16.5q21 0 32.5 -9t15.5 -14q8 -11 9 -23t0 -23zM316 421h-27l-47 247q-1 6 -1.5 11.5t-0.5 10.5q0 26 18.5 42.5t47.5 16.5q14 0 23.5 -4t15.5 -9t9 -10t4 -6q5 -9 5.5 -19t-0.5 -21z" />
    <glyph glyph-name="exclam" unicode="!" horiz-adv-x="292" 
d="M229 248l-122 -6l-5 7q-3 77 -6 153t-7 152q-2 35 -4 60t-4 46.5t-4 42t-5 46.5l6 7l175 15l8 -5q-9 -123 -13.5 -201.5t-7 -131.5t-3.5 -92.5t-2 -84.5zM251 148v-142l-5 -6l-159 -3l-6 7v140l7 7q25 0 42 -0.5t33.5 0t35 1t45.5 1.5z" />
    <glyph glyph-name="Lslash" unicode="&#x141;" horiz-adv-x="521" 
d="M496 132q-2 -22 -3 -35.5t-1.5 -26t-1.5 -27t-2 -36.5l-5 -7q-49 0 -86 0.5t-68 0.5t-58 -0.5t-56.5 -1t-64 -1t-79.5 -1.5l-6 6q1 28 1.5 49.5t0.5 45.5t0.5 56.5t0.5 84.5q-9 -7 -15.5 -12t-12.5 -9.5t-13 -9.5t-17 -13l-9 5v24.5v20.5t-0.5 21.5t-0.5 27.5l5 6
q23 13 34.5 20t28.5 18q0 75 -0.5 125t-1 88.5t-2 72.5t-3.5 77l6 5h51.5t38.5 0.5t38 1t51 2.5l6 -6q-1 -13 -1.5 -33t-1 -50.5t-1.5 -73.5t-2 -102q11 8 22 14.5t22 13.5l58 38t57 39l9 -6q-1 -16 -1.5 -26t-1 -19.5t-0.5 -20.5v-29l-5 -7q-8 -6 -30.5 -20t-48 -30.5
t-49 -31t-32.5 -20.5q-1 -33 -1.5 -60t-0.5 -51v-47.5v-51.5h19q9 0 33 0.5t56 1.5t68 2.5t71 3.5z" />
    <glyph glyph-name="lslash" unicode="&#x142;" horiz-adv-x="292" 
d="M230 0h-43t-35.5 -0.5t-38 -1t-50.5 -1.5l-6 7q1 29 2 52t1.5 55t1 80.5t0.5 129.5q-20 -12 -29 -18t-25 -16l-8 6q1 17 1.5 28t1 20t0.5 19v25l5 8q9 5 15.5 8.5t12 7t11 7.5t14.5 10q0 73 -1 126t-2.5 92t-4 67.5t-5.5 53.5l5 6q27 4 45.5 6.5t36 5.5t38 6.5t51.5 8.5
l6 -7q-2 -66 -3 -132t-1 -132q11 7 18 11.5t13 8t12 8t15 10.5l7 -6q-2 -16 -2.5 -27t-1 -21t-1 -21.5t-0.5 -27.5l-5 -8q-20 -11 -29.5 -17t-24.5 -17v-34.5t0.5 -54t1 -54t0.5 -36.5q0 -44 1 -78t2 -62t2 -51t2 -43z" />
    <glyph glyph-name="onesuperior" unicode="&#xb9;" horiz-adv-x="396" 
d="M256 236h-30h-23.5t-24.5 -0.5t-32 -1.5l-5 6q1 35 2 78.5t1.5 90t0.5 93.5v90q-17 -2 -28.5 -3t-28.5 -3l-6 6q1 12 1.5 19.5t0.5 14.5t0.5 14.5t1.5 19.5l6 6q29 3 50 6t39 5t35 4.5t39 5.5l7 -5q-2 -32 -3 -95t-1 -157q0 -43 0.5 -71.5t1 -49t1.5 -36t2 -31.5z" />
    <glyph glyph-name="Eth" unicode="&#xd0;" horiz-adv-x="708" 
d="M242 324q0 -49 0.5 -97.5t1.5 -97.5q25 0 50 1t48 5.5t44.5 15t39.5 30.5q16 17 27 40.5t17.5 49t9 51t2.5 47.5q0 17 -2 39t-7 44.5t-13.5 44t-22.5 37.5q-16 18 -34 27.5t-36 14t-33 5t-25 0.5q-19 0 -35 -0.5t-33 -1.5q0 -35 0.5 -66t0.5 -46v-50q27 0 44 0.5t31 1
t30 1t41 1.5l6 -6q-1 -14 -1.5 -23.5t-1 -18t-1 -18t-0.5 -24.5l-6 -7h-142zM71 -3l-6 6q1 49 1.5 86t1 71.5t0.5 72v88.5q-10 0 -17 -0.5t-13 -0.5t-13.5 -0.5t-17.5 -1.5l-7 5q0 13 0.5 22t0.5 17.5t-0.5 19t-0.5 26.5l7 6q11 0 18 -0.5t13.5 -0.5t13 0.5t15.5 0.5
q0 57 -1 127.5t-6 158.5l6 6l105 2q50 2 85 2.5t67 0.5q49 0 93.5 -3t83.5 -20q42 -17 75 -49.5t54 -72.5q23 -44 30 -93t7 -101q0 -43 -5 -84.5t-19 -82.5q-20 -56 -49.5 -92.5t-63 -58.5t-69 -32.5t-66.5 -15.5q-19 -3 -36.5 -4.5t-40 -2.5t-53 -1h-75.5z" />
    <glyph glyph-name="onehalf" unicode="&#xbd;" horiz-adv-x="917" 
d="M321 0h-26.5h-20t-22 -0.5t-31.5 -0.5l-6 8q16 36 29 63.5t23.5 50.5t20 44.5t19.5 45.5t22 52t28 65q24 57 41.5 98.5t30 72.5t22 53t17 41t14.5 37t15 40l8 6q20 0 32.5 0.5t22 0.5t19.5 0.5t25 0.5l5 -9q-40 -82 -79.5 -174t-77.5 -183q-21 -50 -38 -91.5t-32 -78.5
t-28 -70t-26 -65zM877 88q-1 -14 -1.5 -23.5t-0.5 -17.5t-0.5 -17t-0.5 -22l-6 -8h-37.5h-57.5t-68 -0.5t-69 -0.5h-59h-39l-5 12q9 10 15 16.5t12.5 14t15.5 17.5t23 27q67 77 102.5 123.5t35.5 81.5q0 10 -4 22t-13 22t-23.5 16.5t-36.5 6.5q-21 0 -38 -4.5t-30 -11.5
t-22.5 -14t-15.5 -11l-10 6q1 13 1.5 23t1 19.5t1 20.5t0.5 25l5 7q25 11 57.5 21.5t78.5 10.5q43 0 75 -12t53.5 -31.5t32 -46t10.5 -54.5q0 -34 -12.5 -59.5t-29.5 -48.5q-6 -8 -11.5 -14.5t-15.5 -17.5t-26 -28.5t-43 -46.5q26 0 43.5 0.5t33.5 1t32.5 1t40.5 1.5z
M256 236h-30h-23.5t-24.5 -0.5t-32 -1.5l-5 6q1 35 2 78.5t1.5 90t0.5 93.5v90q-17 -2 -28.5 -3t-28.5 -3l-6 6q1 12 1.5 19.5t0.5 14.5t0.5 14.5t1.5 19.5l6 6q29 3 50 6t39 5t35 4.5t39 5.5l7 -6q-2 -31 -3 -94t-1 -157q0 -43 0.5 -71.5t1 -49t1.5 -36t2 -31.5z" />
    <glyph glyph-name="Thorn" unicode="&#xde;" 
d="M261 266q20 0 47 2t51 13t41 35t17 68q0 41 -15.5 63t-40.5 31.5t-56.5 10t-63.5 -0.5v-22t-0.5 -34t-0.5 -34.5v-23.5v-21t0.5 -32.5t0.5 -33v-21.5h20zM282 611q61 0 104.5 -2t83.5 -18q44 -18 69.5 -44.5t38 -55t15.5 -56t3 -45.5q0 -56 -20.5 -106.5t-64.5 -85.5
q-28 -22 -61.5 -33.5t-69 -16.5t-70.5 -5.5t-67 0.5q1 -35 1.5 -74t1.5 -63l-5 -6h-51.5h-38.5t-37 -1t-46 -2l-5 6q1 29 2 59t1.5 64t1 73.5t0.5 87.5q0 102 -0.5 168t-2 110.5t-3 74.5t-3.5 60l5 6h51.5t38.5 0.5t37.5 1t48.5 1.5l4 -5v-17.5v-17t-0.5 -23.5t-0.5 -36z
" />
    <glyph glyph-name="onequarter" unicode="&#xbc;" horiz-adv-x="917" 
d="M350 0h-26.5h-20t-22 -0.5t-31.5 -0.5l-6 8q25 54 41.5 90t31 69t30.5 69.5t39 92.5q24 57 41.5 98.5t30 72.5t21.5 53.5t16.5 41t14.5 36.5t16 40l8 6q20 0 32.5 0.5t22 0.5t19.5 0.5t25 0.5l4 -9q-39 -82 -78.5 -174t-77.5 -183q-21 -50 -38 -91.5t-31.5 -78.5t-28 -70
t-26.5 -65zM256 236h-30h-23.5t-24.5 -0.5t-32 -1.5l-5 6q1 35 2 78.5t1.5 90t0.5 93.5v90q-17 -2 -28.5 -3t-28.5 -3l-6 6q1 12 1.5 20t0.5 14.5t0.5 14t1.5 19.5l6 6q29 3 50 6t39 5t35 4.5t39 5.5l7 -5q-2 -31 -3 -94.5t-1 -157.5q0 -43 0.5 -71.5t1 -49t1.5 -36t2 -31.5
zM731 176l2 104q0 2 0.5 13t1 23.5t1 22.5t0.5 11q-3 -5 -8.5 -16l-12 -24l-12.5 -25t-9 -19l-46 -91zM878 93h-39q1 -29 1 -47t1 -39l-6 -6h-28.5h-22t-22.5 -0.5t-29 -1.5l-6 6q1 21 1.5 40.5t2.5 48.5l-183 -1l-6 7q1 18 1.5 28.5t0.5 31.5l11 20q37 69 59 110t35.5 66.5
t21.5 41.5t17 37l8 6h39h29t30 0.5t41 1.5l7 -6q-2 -66 -3.5 -131t0.5 -131q19 0 25 0.5t19 0.5l5 -6q-1 -13 -1.5 -21t-0.5 -14.5t-0.5 -14.5t-1.5 -21z" />
    <glyph glyph-name="brokenbar" unicode="&#xa6;" horiz-adv-x="229" 
d="M63 308v381h103v-381h-103zM63 190h103v-381h-103v381z" />
    <glyph glyph-name="thorn" unicode="&#xfe;" 
d="M229 107q14 0 30 1t32 5t32 12t30 23q23 24 32 57t9 67q0 63 -24 102q-10 15 -21 24t-22 13.5t-21 6t-17 1.5q-23 0 -35.5 -6t-25.5 -14v-82.5v-63.5t0.5 -63.5t0.5 -82.5zM230 791q-1 -50 -2 -85t-1.5 -66.5t-1 -65t-1.5 -79.5q7 5 19.5 13t29 15.5t38 12.5t48.5 5
q47 0 86 -19.5t66.5 -53t42.5 -80t15 -100.5q0 -39 -10 -82.5t-35 -82.5t-67.5 -70.5t-106.5 -46.5q-38 -8 -68 -9t-53 -1q1 -40 1.5 -67.5t1 -52t1.5 -51.5t3 -67l-5 -5h-50h-37t-36 -1t-46 -2l-5 5q1 47 1.5 83t1 77t1 94.5t0.5 134.5v31.5v49t0.5 58t0.5 58v50v33.5
q0 85 -1.5 170.5t-10.5 169.5l6 7q30 4 49 7t35.5 6t34.5 5.5t47 7.5z" />
    <glyph glyph-name="threequarters" unicode="&#xbe;" horiz-adv-x="917" 
d="M731 176l2 104q0 2 0.5 13t1 23.5t1 22.5t0.5 11q-3 -5 -8.5 -16l-12 -24l-12.5 -25t-9 -19l-45 -91zM878 93h-39q1 -29 1 -47t1 -39l-6 -6h-28.5h-22t-22.5 -0.5t-29 -1.5l-6 6q1 21 1.5 40.5t2.5 48.5l-183 -1l-6 7q1 18 1.5 28.5t0.5 31.5l11 20q37 70 59 110.5
t35.5 66t21.5 41.5t17 37l8 6h39h29t30 0.5t41 1.5l7 -6q-2 -66 -3.5 -131t0.5 -131q19 0 25 0.5t19 0.5l5 -6q-1 -13 -1.5 -21t-0.5 -14.5t-0.5 -14.5t-1.5 -21zM381 0h-27.5h-20t-22 -0.5t-31.5 -0.5l-6 8q25 54 41.5 90t31 69t30.5 69.5t39 92.5q24 57 41.5 98.5t30 72.5
t22 53t17 41t14.5 37t15 40l8 6q20 0 32.5 0.5t22 0.5t19.5 0.5t25 0.5l4 -9q-39 -82 -78.5 -174t-77.5 -183q-21 -50 -38 -91.5t-31.5 -78.5t-27.5 -70t-26 -65zM335 669q-7 -14 -21.5 -39t-29.5 -50.5t-26.5 -45t-13.5 -22.5q31 -5 52 -18t33.5 -30.5t17.5 -38t5 -39.5
q0 -24 -6 -43.5t-14.5 -33.5t-18 -24.5t-17.5 -16.5q-18 -14 -37.5 -22t-38.5 -12.5t-36 -5.5t-30 -1q-52 0 -80 9.5t-39 14.5l-4 6q1 15 1.5 24.5t1 17t1 16t1.5 22.5l9 5q14 -9 38 -20.5t60 -11.5q45 0 65.5 21t20.5 47q0 31 -23 49.5t-62 18.5q-14 0 -23 -2t-19 -5l-9 11
q7 11 18 27t22.5 34.5t23.5 38.5t21 39q-25 0 -41.5 -0.5t-30.5 -0.5t-30 -0.5t-41 -1.5l-5 7q1 12 1.5 20t0.5 16t0.5 17.5t0.5 23.5l6 6h64h84.5t83 0.5t59.5 1.5z" />
    <glyph glyph-name="twosuperior" unicode="&#xb2;" horiz-adv-x="396" 
d="M356 323q-1 -14 -1.5 -23.5t-0.5 -17.5t-0.5 -17t-0.5 -22l-6 -8h-37.5h-57.5t-68 -0.5t-69 -0.5h-59h-39l-5 12q9 10 15 16.5t12.5 14t15.5 17.5t23 27q67 77 102.5 124t35.5 82q0 10 -4 22t-13 22t-23.5 16.5t-36.5 6.5q-21 0 -38 -4.5t-30 -11.5t-22.5 -14t-15.5 -11
l-10 6q1 13 1.5 23t1 19.5t1 20.5t0.5 25l5 7q26 11 58 21.5t78 10.5q43 0 75 -12t53.5 -31.5t32 -46t10.5 -54.5q0 -34 -12.5 -60t-29.5 -48q-6 -8 -11.5 -15t-15.5 -18t-26 -28.5t-43 -46.5q26 0 43.5 0.5t33.5 1t32.5 1t40.5 1.5z" />
    <glyph glyph-name="minus" unicode="&#x2212;" horiz-adv-x="667" 
d="M667 242h-667v103h667v-103z" />
    <glyph glyph-name="eth" unicode="&#xf0;" 
d="M306 99q19 1 35.5 8.5t29 26.5t19.5 51.5t7 83.5q0 20 -1.5 49.5t-10 57.5t-27 47.5t-52.5 19.5q-17 0 -33 -7t-30 -23q-20 -23 -26.5 -58t-6.5 -82q0 -37 3.5 -69.5t14 -56.5t29 -37t49.5 -11zM541 658q-14 -2 -26.5 -4.5t-41.5 -8.5q27 -45 45 -91t29.5 -91.5
t16.5 -88.5t5 -80q0 -76 -22 -142t-78 -109q-44 -34 -91 -44t-86 -10q-56 0 -103.5 17t-81.5 51.5t-53 86t-19 121.5q0 65 17 111t43 76t57.5 47.5t59.5 26.5t49.5 11t27.5 2q27 0 43 -4t28 -9q-7 21 -14 39.5t-24 47.5q-37 -8 -69 -15l-54 -12t-38 -9l-16 -4l-10 4
q-5 12 -8 20t-6 15t-7 15t-9 19l4 7q9 1 26.5 4.5l40 8l47.5 9.5t49 11q-29 35 -50.5 52t-35.5 27l3 9q20 3 40.5 5.5t40.5 6.5q18 3 35.5 6t34.5 6l13 -2q28 -26 42 -41.5t28 -34.5q17 4 33 7.5t38 9.5l13 4l10 -4q5 -12 8 -20t6 -15t6.5 -15t9.5 -20z" />
    <glyph glyph-name="multiply" unicode="&#xd7;" horiz-adv-x="667" 
d="M525 26l-192 192l-191 -192l-74 74l191 192l-191 192l74 74l191 -192l192 192l74 -74l-192 -192l192 -192z" />
    <glyph glyph-name="threesuperior" unicode="&#xb3;" horiz-adv-x="396" 
d="M335 669q-7 -14 -21.5 -39t-29.5 -50.5t-26.5 -45t-13.5 -22.5q31 -5 52 -18t33.5 -30.5t17.5 -38t5 -39.5q0 -24 -6 -43.5t-14.5 -33.5t-18 -24.5t-17.5 -16.5q-18 -14 -37.5 -22t-38.5 -12.5t-36 -5.5t-30 -1q-52 0 -80 9.5t-39 14.5l-4 6q1 15 1.5 24.5t1 17t1 16
t1.5 22.5l9 5q14 -9 38 -20.5t60 -11.5q45 0 65.5 21t20.5 47q0 31 -23 49.5t-62 18.5q-14 0 -23 -2t-19 -5l-9 11q7 11 18 27t22.5 34.5t23.5 38.5t21 39q-25 0 -41.5 -0.5t-30.5 -0.5t-30 -0.5t-41 -1.5l-5 7q1 12 1.5 20t0.5 16t0.5 17.5t0.5 23.5l6 6h64h84.5t83 0.5
t59.5 1.5z" />
    <glyph glyph-name="Scaron" unicode="&#x160;" horiz-adv-x="562" 
d="M196 752q-19 38 -39 74t-43 71l4 8l135 3l7 -6l41 -81q11 19 21.5 36t26.5 44l6 6h118l4 -7q-16 -25 -27.5 -44.5t-21 -36t-17.5 -32.5l-17 -34l-7 -5h-185zM375 420q18 -8 37.5 -18t39.5 -25q40 -31 57.5 -73.5t17.5 -85.5q0 -64 -28.5 -117.5t-91.5 -84.5
q-23 -11 -47.5 -17t-47 -9t-41.5 -4t-30 -1q-57 0 -98.5 9.5t-58.5 15.5q-8 2 -16.5 5.5t-16.5 6.5l-6 8l7 141l10 3q11 -9 26 -19.5t36 -20.5t48 -16.5t61 -6.5q33 0 55.5 7.5t37 19.5t21 27t6.5 29q0 20 -9.5 35t-26 27.5t-38.5 23t-48 21.5l-33 15q-21 10 -47 24.5
t-49 36.5t-38.5 54t-15.5 77q0 40 13 78.5t43 68.5t78 48t119 18q36 0 63.5 -3.5t49 -8.5t39 -11.5t33.5 -13.5l5 -7l-8 -131l-9 -4q-28 19 -64.5 37.5t-93.5 18.5q-25 0 -43 -6.5t-29.5 -17t-17 -22.5t-5.5 -24q0 -17 8 -29.5t24.5 -23.5t40 -21.5t55.5 -23.5z" />
    <glyph glyph-name="Yacute" unicode="&#xdd;" 
d="M460 901q-13 -17 -25 -32.5t-25.5 -33t-29 -38t-35.5 -46.5l-6 -4h-101l-4 6q12 28 19 46.5t12.5 34t10.5 31t11 37.5l5 5h166zM395 0h-46t-37.5 -0.5t-40.5 -1t-53 -1.5l-5 6q2 44 3.5 76.5t2 61t1 57.5t0.5 66v32q-11 20 -21.5 39t-21.5 39q-7 11 -21 36t-32.5 57
t-39 67t-39.5 67t-34 58t-22 39l3 8q31 0 53 0.5t41.5 1.5t41.5 2t54 3l7 -5q11 -24 19.5 -42.5t16 -33.5t13.5 -28t13 -26q4 -7 14 -26.5t21.5 -41.5t22 -42t14.5 -28q16 31 29.5 58l28 56t31 64t38.5 82l6 6h39.5t33 0.5t36 1t47.5 1.5l4 -7l-221 -402v-81.5t1 -64.5
t2 -65t3 -83z" />
    <glyph glyph-name="Zcaron" unicode="&#x17d;" horiz-adv-x="562" 
d="M191 752q-19 38 -39 74t-43 71l4 8l135 3l7 -6l41 -81q11 19 21.5 36t26.5 44l6 6h118l4 -7q-16 -25 -27.5 -44.5t-21 -36t-17.5 -32.5l-17 -34l-7 -5h-185zM517 0h-495l-6 6q15 30 59.5 122.5t116.5 242.5l56 120l42 87l-247 -4l-6 6l9 120l6 6h478l5 -5l-275 -572
q40 0 69 0.5t57 1t60.5 1.5t80.5 3l6 -7l-9 -122z" />
    <glyph glyph-name="scaron" unicode="&#x161;" horiz-adv-x="479" 
d="M149 598q-13 29 -21.5 48t-16.5 36t-17 35.5t-22 45.5l3 6l135 4l5 -5l43 -105l44 103l6 5h114l3 -5q-18 -34 -29.5 -56.5t-20 -40t-16 -34t-16.5 -37.5l-7 -5h-182zM319 327q21 -8 44 -18.5t42.5 -28t32.5 -45t13 -68.5v-10.5t-1 -11.5q-7 -54 -35 -85t-65 -47
t-76.5 -20.5t-67.5 -4.5q-27 0 -49.5 3t-41.5 7.5t-37 10.5t-36 13l-5 9q1 19 2 31.5t2 24t1.5 24.5t1.5 33l9 4q11 -9 19 -15t21 -13q28 -14 56.5 -21t49.5 -7q42 0 60.5 16.5t18.5 35.5q0 13 -7.5 23t-18 17t-23 12t-22.5 8l-38 14q-18 7 -40.5 17t-42.5 28t-33.5 45
t-13.5 67q0 30 8.5 52t18.5 36q19 28 46 44t54.5 23.5t54 9.5t44.5 2q49 0 83.5 -7.5t69.5 -17.5l5 -6l-10 -109l-9 -3q-19 12 -49 27t-76 15q-23 0 -37 -5.5t-21.5 -12.5t-9.5 -15t-2 -12q0 -21 17.5 -31.5t43.5 -19.5z" />
    <glyph glyph-name="yacute" unicode="&#xfd;" horiz-adv-x="500" 
d="M406 765q-12 -18 -26 -39.5t-28.5 -44t-28 -44.5t-25.5 -41l-7 -4h-108l-4 6q11 26 19 44.5t14.5 36t12.5 37.5t15 49l5 5l158 2zM511 525q-11 -29 -22 -58.5t-22 -59.5q-33 -87 -58 -154t-44 -121t-34 -98.5t-27.5 -87.5t-24.5 -88t-26 -99l-7 -6q-19 0 -38 0.5t-38 0.5
q-20 0 -40 -0.5t-39 -1.5l-5 8q17 37 28 61.5t20.5 47t20 48t25.5 64.5q-23 72 -51 151.5t-54.5 153.5t-49.5 135.5t-36 97.5l5 7q31 1 51.5 1.5t38.5 1.5t38 2.5t49 3.5l8 -6l40 -152l29 -106l19 -71l22 75l26 86q9 29 15 48.5t10.5 36t9 34t10.5 43.5l8 7l139 3z" />
    <glyph glyph-name="zcaron" unicode="&#x17e;" horiz-adv-x="479" 
d="M149 598q-13 29 -21.5 48t-16.5 36t-17 35.5t-22 45.5l3 6l135 4l5 -5l43 -105l44 103l6 5h114l3 -5q-18 -34 -29.5 -56.5t-20 -40t-16 -34t-16.5 -37.5l-7 -5h-182zM436 0h-413l-4 7q33 65 57.5 113t42.5 83.5t31.5 62.5t25 50.5t22.5 47t25 52.5l-178 -2l-5 6l10 104
l5 7h396l5 -9q-23 -46 -50 -99t-53 -104q-19 -38 -32 -65t-24 -50t-20.5 -44.5t-21.5 -47.5l193 7l6 -5l-10 -110z" />
    <glyph glyph-name="Euro" unicode="&#x20ac;" horiz-adv-x="583" 
d="M285 213q13 -54 45.5 -83.5t92.5 -29.5q32 0 55 6t39.5 15t27.5 18.5t20 16.5l10 -4l-7 -124l-5 -6q-7 -4 -20.5 -10t-33 -11.5t-43 -9.5t-50.5 -4q-67 0 -117.5 17t-87 47t-60 71.5t-36.5 90.5h-33h-22h-14t-12 -0.5t-15 -0.5l-6 8q5 17 10 40t10 44l6 6q18 0 33.5 -0.5
t33.5 -0.5q-1 9 -1.5 14.5t-0.5 15.5q0 11 0.5 16.5l1.5 16.5h-21h-22.5h-15t-12.5 -0.5t-15 -0.5l-6 8q6 17 11 40.5t9 43.5l6 6q23 0 40 -0.5t40 -1.5q13 46 37.5 86.5t61.5 71t87.5 48.5t115.5 18q26 0 50 -4t43.5 -10t34 -12.5t21.5 -10.5l4 -5l-32 -118l-12 -2
q-5 7 -12.5 15.5t-19.5 15.5t-30 12t-44 5q-57 0 -89 -31.5t-45 -79.5h88.5t74.5 2q13 1 24 1h20t16 1l6 -6q-5 -22 -10.5 -40t-12.5 -47l-6 -6q-10 0 -16 0.5t-11.5 0.5h-11h-14.5h-161q-1 -11 -1.5 -17.5t-0.5 -15.5v-16.5t1 -15.5h70t64 2q13 1 24 1h20.5t16.5 1l6 -6
q-6 -18 -12 -40t-12 -47l-6 -6q-10 0 -16 0.5t-11.5 0.5h-11h-14.5h-109z" />
    </font>
</defs>
</svg>
